<?xml version="1.0" encoding="utf-8"?>
<!-- Generator: Adobe Illustrator 19.0.0, SVG Export Plug-In . SVG Version: 6.00 Build 0)  -->
<svg version="1.1" id="Layer_1" xmlns="http://www.w3.org/2000/svg" xmlns:xlink="http://www.w3.org/1999/xlink" x="0px" y="0px"
	 viewBox="-680.1 505.8 84.1 15.2" style="enable-background:new -680.1 505.8 84.1 15.2;" xml:space="preserve">
<style type="text/css">
	.st0{fill:#FFBB00;}
	.st1{display:none;}
	.st2{display:inline;fill:#FFBB00;}
	.st3{display:inline;fill:#7A7A7A;}
	.st4{display:none;fill:#FFBB00;}
	.st5{display:none;fill:#7A7A7A;}
</style>
<path class="st0" d="M-666.7,519.7c0.1,0.4-0.1,0.8-0.5,1.1c-0.3,0.2-0.8,0.3-1.2,0.1l-3.1-1.6c-0.3-0.2-0.7-0.2-1,0l-3.1,1.5
	c-0.4,0.2-0.8,0.1-1.2-0.1c-0.3-0.3-0.5-0.7-0.4-1.1l0.5-3.5c0.1-0.4-0.1-0.7-0.3-1l-2.4-2.5c-0.3-0.3-0.4-0.7-0.3-1.1
	c0.1-0.4,0.5-0.7,0.9-0.8l3.5-0.6c0.4-0.1,0.7-0.3,0.8-0.6l1.6-3.1c0.2-0.4,0.6-0.6,1-0.6c0.4,0,0.8,0.2,1,0.6l1.6,3.1
	c0.2,0.3,0.5,0.5,0.8,0.6l3.4,0.6c0.4,0.1,0.8,0.4,0.9,0.8c0.1,0.4,0,0.8-0.3,1.1l-2.5,2.5c-0.2,0.3-0.4,0.6-0.3,1L-666.7,519.7z"/>
<path class="st0" d="M-649.9,519.7c0.1,0.4-0.1,0.8-0.5,1.1c-0.3,0.2-0.8,0.3-1.2,0.1l-3.1-1.6c-0.3-0.2-0.7-0.2-1,0l-3.1,1.5
	c-0.4,0.2-0.8,0.1-1.2-0.1c-0.3-0.2-0.5-0.7-0.4-1.1l0.5-3.5c0.1-0.4-0.1-0.7-0.3-1l-2.4-2.5c-0.3-0.3-0.4-0.7-0.3-1.1
	c0.1-0.4,0.5-0.7,0.9-0.8l3.5-0.6c0.3-0.1,0.7-0.3,0.8-0.6l1.6-3.1c0.2-0.4,0.6-0.6,1-0.6c0.4,0,0.8,0.2,1,0.6l1.6,3.1
	c0.2,0.3,0.5,0.5,0.8,0.6l3.4,0.6c0.4,0.1,0.8,0.4,0.9,0.8c0.1,0.4,0,0.8-0.3,1.1l-2.5,2.5c-0.2,0.3-0.4,0.6-0.3,1L-649.9,519.7z"/>
<path class="st0" d="M-633.1,519.7c0.1,0.4-0.1,0.8-0.5,1.1c-0.3,0.2-0.8,0.3-1.2,0.1l-3.1-1.6c-0.3-0.2-0.7-0.2-1,0l-3.1,1.5
	c-0.4,0.2-0.8,0.1-1.2-0.1c-0.3-0.2-0.5-0.7-0.4-1.1l0.5-3.5c0.1-0.4-0.1-0.7-0.3-1l-2.4-2.5c-0.3-0.3-0.4-0.7-0.3-1.1
	c0.1-0.4,0.5-0.7,0.9-0.8l3.5-0.6c0.3-0.1,0.7-0.3,0.8-0.6l1.6-3.1c0.2-0.4,0.6-0.6,1-0.6c0.4,0,0.8,0.2,1,0.6l1.6,3.1
	c0.2,0.3,0.5,0.5,0.8,0.6l3.4,0.6c0.4,0.1,0.8,0.4,0.9,0.8c0.1,0.4,0,0.8-0.3,1.1l-2.5,2.5c-0.3,0.3-0.4,0.6-0.3,1L-633.1,519.7z"/>
<path class="st0" d="M-616.4,519.7c0.1,0.4-0.1,0.8-0.5,1.1c-0.3,0.2-0.8,0.3-1.2,0.1l-3.1-1.6c-0.3-0.2-0.7-0.2-1,0l-3.1,1.5
	c-0.4,0.2-0.8,0.1-1.2-0.1c-0.3-0.2-0.5-0.7-0.4-1.1l0.5-3.5c0.1-0.3-0.1-0.7-0.3-1l-2.4-2.5c-0.3-0.3-0.4-0.7-0.3-1.1
	c0.1-0.4,0.5-0.7,0.9-0.8l3.5-0.6c0.3-0.1,0.7-0.3,0.8-0.6l1.6-3.1c0.2-0.4,0.6-0.6,1-0.6c0.4,0,0.8,0.2,1,0.6l1.6,3.1
	c0.2,0.3,0.5,0.5,0.8,0.6l3.4,0.6c0.4,0.1,0.8,0.4,0.9,0.8c0.1,0.4,0,0.8-0.3,1.1l-2.5,2.5c-0.3,0.3-0.4,0.6-0.3,1L-616.4,519.7z"/>
<g class="st1">
	<path class="st2" d="M-708,518.7c0.1,0.4-0.1,0.8-0.5,1.1c-0.3,0.2-0.8,0.3-1.2,0.1l-3.1-1.6c-0.3-0.2-0.7-0.2-1,0l-3.1,1.5
		c-0.4,0.2-0.8,0.1-1.2-0.1c-0.3-0.3-0.5-0.7-0.4-1.1l0.5-3.5c0.1-0.4-0.1-0.7-0.3-1l-2.4-2.5c-0.3-0.3-0.4-0.7-0.3-1.1
		c0.1-0.4,0.5-0.7,0.9-0.8l3.5-0.6c0.3-0.1,0.7-0.3,0.8-0.6l1.6-3.1c0.2-0.4,0.6-0.6,1-0.6c0.4,0,0.8,0.2,1,0.6l1.6,3.1
		c0.2,0.3,0.5,0.5,0.8,0.6l3.4,0.6c0.4,0.1,0.8,0.4,0.9,0.8c0.1,0.4,0,0.8-0.3,1.1l-2.5,2.5c-0.2,0.3-0.4,0.6-0.3,1L-708,518.7z"/>
	<path class="st2" d="M-680.7,518.7c0.1,0.4-0.1,0.8-0.5,1.1c-0.3,0.2-0.8,0.3-1.2,0.1l-3.1-1.6c-0.3-0.2-0.7-0.2-1,0l-3.1,1.5
		c-0.4,0.2-0.8,0.1-1.2-0.1s-0.5-0.7-0.4-1.1l0.5-3.5c0.1-0.4-0.1-0.7-0.3-1l-2.4-2.5c-0.3-0.3-0.4-0.7-0.3-1.1
		c0.1-0.4,0.5-0.7,0.9-0.8l3.5-0.6c0.3-0.1,0.7-0.3,0.8-0.6l1.6-3.1c0.2-0.4,0.6-0.6,1-0.6c0.4,0,0.8,0.2,1,0.6l1.6,3.1
		c0.2,0.3,0.5,0.5,0.8,0.6l3.4,0.6c0.4,0.1,0.8,0.4,0.9,0.8c0.1,0.4,0,0.8-0.3,1.1l-2.5,2.5c-0.2,0.3-0.4,0.6-0.3,1L-680.7,518.7z"
		/>
	<path class="st2" d="M-653.4,518.7c0.1,0.4-0.1,0.8-0.5,1.1c-0.3,0.2-0.8,0.3-1.2,0.1l-3.1-1.6c-0.3-0.2-0.7-0.2-1,0l-3.1,1.5
		c-0.4,0.2-0.8,0.1-1.2-0.1s-0.5-0.7-0.4-1.1l0.5-3.5c0.1-0.4-0.1-0.7-0.3-1l-2.4-2.5c-0.3-0.3-0.4-0.7-0.3-1.1
		c0.1-0.4,0.5-0.7,0.9-0.8l3.5-0.6c0.3-0.1,0.7-0.3,0.8-0.6l1.6-3.1c0.2-0.4,0.6-0.6,1-0.6c0.4,0,0.8,0.2,1,0.6l1.6,3.1
		c0.2,0.3,0.5,0.5,0.8,0.6l3.4,0.6c0.4,0.1,0.8,0.4,0.9,0.8c0.1,0.4,0,0.8-0.3,1.1l-2.5,2.5c-0.3,0.3-0.4,0.6-0.3,1L-653.4,518.7z"
		/>
	<path class="st2" d="M-626.1,518.7c0.1,0.4-0.1,0.8-0.5,1.1c-0.3,0.2-0.8,0.3-1.2,0.1l-3.1-1.6c-0.3-0.2-0.7-0.2-1,0l-3.1,1.5
		c-0.4,0.2-0.8,0.1-1.2-0.1c-0.3-0.2-0.5-0.7-0.4-1.1l0.5-3.5c0.1-0.4-0.1-0.7-0.3-1l-2.4-2.5c-0.3-0.3-0.4-0.7-0.3-1.1
		c0.1-0.4,0.5-0.7,0.9-0.8l3.5-0.6c0.3-0.1,0.7-0.3,0.8-0.6l1.6-3.1c0.2-0.4,0.6-0.6,1-0.6c0.4,0,0.8,0.2,1,0.6l1.6,3.1
		c0.2,0.3,0.5,0.5,0.8,0.6l3.4,0.6c0.4,0.1,0.8,0.4,0.9,0.8c0.1,0.4,0,0.8-0.3,1.1l-2.5,2.5c-0.3,0.3-0.4,0.6-0.3,1L-626.1,518.7z"
		/>
	<path class="st3" d="M-598.8,518.7c0.1,0.4-0.1,0.8-0.5,1.1c-0.3,0.2-0.8,0.3-1.2,0.1l-3.1-1.6c-0.3-0.2-0.7-0.2-1,0l-3.1,1.5
		c-0.4,0.2-0.8,0.1-1.2-0.1c-0.3-0.2-0.5-0.7-0.4-1.1l0.5-3.5c0.1-0.4-0.1-0.7-0.3-1l-2.4-2.5c-0.3-0.3-0.4-0.7-0.3-1.1
		c0.1-0.4,0.5-0.7,0.9-0.8l3.5-0.6c0.4-0.1,0.7-0.3,0.8-0.6l1.6-3.1c0.2-0.4,0.6-0.6,1-0.6c0.4,0,0.8,0.2,1,0.6l1.6,3.1
		c0.2,0.3,0.5,0.5,0.8,0.6l2.8,0.5l0.4,0.1l0.2,0c0.4,0.1,0.8,0.4,0.9,0.8s0,0.8-0.3,1.1l-1,1l-1.5,1.5c-0.2,0.3-0.4,0.6-0.3,1
		L-598.8,518.7z"/>
	<path class="st2" d="M-597.6,512.8l0.3-0.3v-2.7l-0.1,0l-0.4-0.1l-2.8-0.5c-0.3-0.1-0.6-0.3-0.8-0.6l-1.6-3.1
		c-0.2-0.4-0.6-0.6-1-0.6c-0.4,0-0.8,0.2-1,0.6l-1.6,3.1c-0.2,0.3-0.5,0.5-0.8,0.6l-3.5,0.6c-0.4,0.1-0.8,0.4-0.9,0.8
		c-0.1,0.4,0,0.8,0.3,1.1l2.4,2.5c0.2,0.3,0.4,0.6,0.3,1l-0.5,3.5c-0.1,0.4,0.1,0.8,0.4,1.1c0.3,0.3,0.8,0.3,1.2,0.1l3.1-1.5
		c0.3-0.2,0.7-0.2,1,0l3.1,1.6c0.4,0.2,0.8,0.2,1.2-0.1c0.3-0.2,0.5-0.7,0.5-1.1l-0.5-3.5c-0.1-0.4,0.1-0.7,0.3-1L-597.6,512.8z"/>
</g>
<g>
	<path class="st0" d="M-599.6,519.7c0.1,0.4-0.1,0.8-0.5,1.1c-0.3,0.2-0.8,0.3-1.2,0.1l-3.1-1.6c-0.3-0.2-0.7-0.2-1,0l-3.1,1.5
		c-0.4,0.2-0.8,0.1-1.2-0.1c-0.3-0.2-0.5-0.7-0.4-1.1l0.5-3.5c0.1-0.4-0.1-0.7-0.3-1l-2.4-2.5c-0.3-0.3-0.4-0.7-0.3-1.1
		c0.1-0.4,0.5-0.7,0.9-0.8l3.5-0.6c0.3-0.1,0.7-0.3,0.8-0.6l1.6-3.1c0.2-0.4,0.6-0.6,1-0.6c0.4,0,0.8,0.2,1,0.6l1.6,3.1
		c0.2,0.3,0.5,0.5,0.8,0.6l2.8,0.5l0.4,0.1l0.2,0c0.4,0.1,0.8,0.4,0.9,0.8s0,0.8-0.3,1.1l-1,1l-1.5,1.5c-0.2,0.3-0.4,0.6-0.3,1
		L-599.6,519.7z"/>
	<path class="st4" d="M-598.3,513.8l0.3-0.3v-2.7l-0.1,0l-0.4-0.1l-2.8-0.5c-0.3-0.1-0.6-0.3-0.8-0.6l-1.6-3.1
		c-0.2-0.4-0.6-0.6-1-0.6c-0.4,0-0.8,0.2-1,0.6l-1.6,3.1c-0.2,0.3-0.5,0.5-0.8,0.6l-3.5,0.6c-0.4,0.1-0.8,0.4-0.9,0.8
		c-0.1,0.4,0,0.8,0.3,1.1l2.4,2.5c0.2,0.3,0.4,0.6,0.3,1l-0.5,3.5c-0.1,0.4,0.1,0.8,0.4,1.1c0.3,0.3,0.8,0.3,1.2,0.1l3.1-1.5
		c0.3-0.2,0.7-0.2,1,0l3.1,1.6c0.4,0.2,0.8,0.2,1.2-0.1c0.3-0.2,0.5-0.7,0.5-1.1l-0.5-3.5c0-0.4,0.1-0.7,0.3-1L-598.3,513.8z"/>
</g>
<image style="display:none;overflow:visible;opacity:0.4;enable-background:new    ;" width="694" height="139" xlink:href="../../../../Aletheia/top dog roofing/google rating--.png"  transform="matrix(0.1672 0 0 0.1672 -751.3594 470.9629)">
</image>
<g>
	<path class="st5" d="M-599.6,519.7c0.1,0.4-0.1,0.8-0.5,1.1c-0.3,0.2-0.8,0.3-1.2,0.1l-3.1-1.6c-0.3-0.2-0.7-0.2-1,0l-3.1,1.5
		c-0.4,0.2-0.8,0.1-1.2-0.1c-0.3-0.2-0.5-0.7-0.4-1.1l0.5-3.5c0.1-0.4-0.1-0.7-0.3-1l-2.4-2.5c-0.3-0.3-0.4-0.7-0.3-1.1
		c0.1-0.4,0.5-0.7,0.9-0.8l3.5-0.6c0.3-0.1,0.7-0.3,0.8-0.6l1.6-3.1c0.2-0.4,0.6-0.6,1-0.6c0.4,0,0.8,0.2,1,0.6l1.6,3.1
		c0.2,0.3,0.5,0.5,0.8,0.6l2.8,0.5l0.4,0.1l0.2,0c0.4,0.1,0.8,0.4,0.9,0.8s0,0.8-0.3,1.1l-1,1l-1.5,1.5c-0.2,0.3-0.4,0.6-0.3,1
		L-599.6,519.7z"/>
	<path class="st4" d="M-598.3,513.8l0.3-0.3v-2.7l-0.1,0l-0.4-0.1l-2.8-0.5c-0.3-0.1-0.6-0.3-0.8-0.6l-1.6-3.1
		c-0.2-0.4-0.6-0.6-1-0.6c-0.4,0-0.8,0.2-1,0.6l-1.6,3.1c-0.2,0.3-0.5,0.5-0.8,0.6l-3.5,0.6c-0.4,0.1-0.8,0.4-0.9,0.8
		c-0.1,0.4,0,0.8,0.3,1.1l2.4,2.5c0.2,0.3,0.4,0.6,0.3,1l-0.5,3.5c-0.1,0.4,0.1,0.8,0.4,1.1c0.3,0.3,0.8,0.3,1.2,0.1l3.1-1.5
		c0.3-0.2,0.7-0.2,1,0l3.1,1.6c0.4,0.2,0.8,0.2,1.2-0.1c0.3-0.2,0.5-0.7,0.5-1.1l-0.5-3.5c0-0.4,0.1-0.7,0.3-1L-598.3,513.8z"/>
</g>
</svg>
