<?xml version="1.0" encoding="utf-8"?>
<!-- Generator: Adobe Illustrator 19.0.0, SVG Export Plug-In . SVG Version: 6.00 Build 0)  -->
<svg version="1.1" id="Layer_1" xmlns="http://www.w3.org/2000/svg" xmlns:xlink="http://www.w3.org/1999/xlink" x="0px" y="0px"
	 viewBox="0 0 1536 1024" style="enable-background:new 0 0 1536 1024;" xml:space="preserve">
<style type="text/css">
	.st0{fill:#17AA18;}
	.st1{fill:#FF25A0;}
	.st2{fill:#FFDB02;}
	.st3{fill:#00B7F7;}
	.st4{fill:#FFFFFF;}
</style>
<g id="XMLID_1_">
	<path id="XMLID_19_" class="st0" d="M9.1,70.6c2.7-0.5,5.3,0.9,5.7,3.2l3.9,20.7c0.4,2.3-1.4,4.5-4.2,5l0,0
		c-2.7,0.5-5.3-0.9-5.7-3.2L4.9,75.6C4.5,73.3,6.3,71.1,9.1,70.6L9.1,70.6z"/>
	<path id="XMLID_18_" class="st1" d="M-7.1,8.8c1-2.5,3.5-3.5,5.6-2.2L17.3,18c2.1,1.3,2.9,4.3,1.8,6.7l0,0c-1,2.5-3.5,3.5-5.6,2.2
		L-5.3,15.5C-7.4,14.3-8.2,11.2-7.1,8.8L-7.1,8.8z"/>
	<path id="XMLID_17_" class="st2" d="M-12-43.6c-1-2.5-0.1-5.5,2-6.7L9-61.2c2.1-1.2,4.6-0.1,5.6,2.4l0,0c1,2.5,0.1,5.5-2,6.7
		l-19,10.9C-8.5-40-11-41.1-12-43.6L-12-43.6z"/>
	<path id="XMLID_16_" class="st3" d="M116.1,39.4c0-2.8,1.9-5,4.2-5h21.1c2.3,0,4.2,2.2,4.2,5l0,0c0,2.8-1.9,5-4.2,5h-21.1
		C118,44.4,116.1,42.2,116.1,39.4L116.1,39.4z"/>
	<path id="XMLID_15_" class="st1" d="M74.3,46.5c1-2.5,3.5-3.5,5.6-2.2l18.8,11.5c2.1,1.3,2.9,4.3,1.8,6.7l0,0
		C99.5,65,97,66,95,64.7L76.2,53.3C74.1,52,73.3,49,74.3,46.5L74.3,46.5z"/>
	<path id="XMLID_14_" class="st0" d="M220.3,50.2c2.1-1.8,5-1.9,6.5-0.1L240.6,66c1.5,1.7,1,4.6-1.1,6.4l0,0c-2.1,1.8-5,1.9-6.5,0.1
		l-13.8-15.9C217.7,54.9,218.2,52.1,220.3,50.2L220.3,50.2z"/>
	<path id="XMLID_13_" class="st1" d="M100.9-17.1c1-2.5,3.5-3.5,5.6-2.2l18.8,11.5c2.1,1.3,2.9,4.3,1.8,6.7l0,0
		c-1,2.5-3.5,3.5-5.6,2.2l-18.8-11.5C100.7-11.6,99.9-14.6,100.9-17.1L100.9-17.1z"/>
	<path id="XMLID_12_" class="st2" d="M133.8-76.8c1.2-2.4,3.7-3.2,5.7-1.8l18.2,12.8c2,1.4,2.6,4.5,1.5,6.9l0,0
		c-1.2,2.4-3.7,3.2-5.7,1.8L135.3-70C133.3-71.4,132.7-74.4,133.8-76.8L133.8-76.8z"/>
	<path id="XMLID_11_" class="st0" d="M105.4,113.9c2.7-0.5,5.3,0.9,5.7,3.2l3.9,20.7c0.4,2.3-1.4,4.5-4.2,5l0,0
		c-2.7,0.5-5.3-0.9-5.7-3.2l-3.9-20.7C100.8,116.6,102.6,114.4,105.4,113.9L105.4,113.9z"/>
	<path id="XMLID_10_" class="st1" d="M166.6,135.3c1-2.5,3.5-3.5,5.6-2.2l18.8,11.5c2.1,1.3,2.9,4.3,1.8,6.7l0,0
		c-1,2.5-3.5,3.5-5.6,2.2l-18.8-11.5C166.4,140.8,165.6,137.8,166.6,135.3L166.6,135.3z"/>
	<path id="XMLID_9_" class="st2" d="M185.7,103.6c-1-2.5-0.1-5.5,2-6.7l19-10.9c2.1-1.2,4.6-0.1,5.6,2.4l0,0c1,2.5,0.1,5.5-2,6.7
		l-19,10.9C189.2,107.1,186.7,106.1,185.7,103.6L185.7,103.6z"/>
	<path id="XMLID_8_" class="st2" d="M29.8,140.4c1.2-2.4,3.7-3.2,5.7-1.8l18.1,12.9c2,1.4,2.6,4.5,1.5,6.9l0,0
		c-1.2,2.4-3.7,3.2-5.7,1.8l-18.1-12.9C29.2,145.9,28.6,142.8,29.8,140.4L29.8,140.4z"/>
	<path id="XMLID_7_" class="st2" d="M42.5,81c-2-1.3-2.8-4.3-1.8-6.8l9.7-22.5c1.1-2.5,3.6-3.4,5.6-2.1l0,0c2,1.3,2.8,4.3,1.8,6.8
		l-9.7,22.5C47.1,81.3,44.6,82.2,42.5,81L42.5,81z"/>
	<path id="XMLID_6_" class="st0" d="M279.8,132c2.7,0.3,4.5,2.4,3.9,4.7l-4.9,21.1c-0.5,2.3-3.2,3.9-5.9,3.6l0,0
		c-2.7-0.3-4.5-2.4-3.9-4.7l4.9-21.1C274.5,133.3,277.1,131.7,279.8,132L279.8,132z"/>
	<path id="XMLID_5_" class="st3" d="M-97.1,16.8c-1.1-2.4-0.5-5.5,1.5-6.8l18.3-12.6c2-1.4,4.5-0.6,5.7,1.8l0,0
		c1.1,2.4,0.5,5.5-1.5,6.8l-18.3,12.6C-93.4,20-95.9,19.2-97.1,16.8L-97.1,16.8z"/>
	<path id="XMLID_4_" class="st1" d="M-112,163.5c-0.5-2.7,0.9-5.4,3.2-6l20.6-5.3c2.3-0.6,4.5,1.1,5,3.9l0,0c0.5,2.7-1,5.4-3.2,6
		l-20.6,5.3C-109.3,167.9-111.6,166.2-112,163.5L-112,163.5z"/>
	<path id="XMLID_3_" class="st2" d="M-95.9,86.2c1.2-2.4,3.7-3.2,5.7-1.8L-72,97.1c2,1.4,2.7,4.5,1.5,6.9l0,0
		c-1.2,2.4-3.7,3.2-5.7,1.8L-94.4,93C-96.4,91.6-97.1,88.6-95.9,86.2L-95.9,86.2z"/>
</g>
<g id="XMLID_21_">
	<path id="XMLID_38_" class="st0" d="M240.8,287.8c2.7-0.5,5.3,0.9,5.7,3.2l3.9,20.7c0.4,2.3-1.4,4.5-4.2,5l0,0
		c-2.7,0.5-5.3-0.9-5.7-3.2l-3.9-20.7C236.2,290.6,238.1,288.3,240.8,287.8L240.8,287.8z"/>
	<path id="XMLID_37_" class="st1" d="M224.6,226c1-2.5,3.5-3.5,5.6-2.2l18.8,11.5c2.1,1.3,2.9,4.3,1.8,6.7l0,0
		c-1,2.5-3.5,3.5-5.6,2.2l-18.8-11.5C224.4,231.5,223.6,228.5,224.6,226L224.6,226z"/>
	<path id="XMLID_36_" class="st2" d="M219.8,173.6c-1-2.5-0.1-5.5,2-6.7l19-10.9c2.1-1.2,4.6-0.1,5.6,2.4l0,0c1,2.5,0.1,5.5-2,6.7
		l-19,10.9C223.3,177.2,220.8,176.1,219.8,173.6L219.8,173.6z"/>
	<path id="XMLID_35_" class="st3" d="M347.9,256.7c0-2.8,1.9-5,4.2-5h21.1c2.3,0,4.2,2.2,4.2,5l0,0c0,2.8-1.9,5-4.2,5H352
		C349.7,261.7,347.9,259.4,347.9,256.7L347.9,256.7z"/>
	<path id="XMLID_34_" class="st1" d="M306.1,263.7c1-2.5,3.5-3.5,5.6-2.2l18.8,11.5c2.1,1.3,2.9,4.3,1.8,6.7l0,0
		c-1,2.5-3.5,3.5-5.6,2.2l-18.8-11.5C305.9,269.2,305.1,266.2,306.1,263.7L306.1,263.7z"/>
	<path id="XMLID_33_" class="st0" d="M452,267.5c2.1-1.8,5-1.9,6.5-0.1l13.8,15.9c1.5,1.7,1,4.6-1.1,6.4l0,0c-2.1,1.8-5,1.9-6.5,0.1
		L451,273.9C449.5,272.2,449.9,269.3,452,267.5L452,267.5z"/>
	<path id="XMLID_32_" class="st1" d="M332.6,200.2c1-2.5,3.5-3.5,5.6-2.2l18.8,11.5c2.1,1.3,2.9,4.3,1.8,6.7l0,0
		c-1,2.5-3.5,3.5-5.6,2.2l-18.8-11.5C332.4,205.7,331.6,202.6,332.6,200.2L332.6,200.2z"/>
	<path id="XMLID_31_" class="st2" d="M365.6,140.4c1.2-2.4,3.7-3.2,5.7-1.8l18.2,12.8c2,1.4,2.6,4.5,1.5,6.9l0,0
		c-1.2,2.4-3.7,3.2-5.7,1.8l-18.2-12.8C365.1,145.9,364.4,142.8,365.6,140.4L365.6,140.4z"/>
	<path id="XMLID_30_" class="st0" d="M337.1,331.1c2.7-0.5,5.3,0.9,5.7,3.2l3.9,20.7c0.4,2.3-1.4,4.5-4.2,5l0,0
		c-2.7,0.5-5.3-0.9-5.7-3.2l-3.9-20.7C332.5,333.8,334.4,331.6,337.1,331.1L337.1,331.1z"/>
	<path id="XMLID_29_" class="st1" d="M398.4,352.5c1-2.5,3.5-3.5,5.6-2.2l18.8,11.5c2.1,1.3,2.9,4.3,1.8,6.7l0,0
		c-1,2.5-3.5,3.5-5.6,2.2l-18.8-11.5C398.2,358,397.3,355,398.4,352.5L398.4,352.5z"/>
	<path id="XMLID_28_" class="st2" d="M417.5,320.8c-1-2.5-0.1-5.5,2-6.7l19-10.9c2.1-1.2,4.6-0.1,5.6,2.4l0,0c1,2.5,0.1,5.5-2,6.7
		l-19,10.9C421,324.3,418.5,323.3,417.5,320.8L417.5,320.8z"/>
	<path id="XMLID_27_" class="st2" d="M261.5,357.7c1.2-2.4,3.7-3.2,5.7-1.8l18.1,12.9c2,1.4,2.6,4.5,1.5,6.9l0,0
		c-1.2,2.4-3.7,3.2-5.7,1.8L263,364.5C261,363.1,260.3,360,261.5,357.7L261.5,357.7z"/>
	<path id="XMLID_26_" class="st2" d="M274.3,298.2c-2-1.3-2.8-4.3-1.8-6.8l9.7-22.5c1.1-2.5,3.6-3.4,5.6-2.1l0,0
		c2,1.3,2.8,4.3,1.8,6.8l-9.7,22.5C278.9,298.5,276.3,299.5,274.3,298.2L274.3,298.2z"/>
	<path id="XMLID_25_" class="st0" d="M511.5,349.2c2.7,0.3,4.5,2.4,3.9,4.7l-4.9,21.1c-0.5,2.3-3.2,3.9-5.9,3.6l0,0
		c-2.7-0.3-4.5-2.4-3.9-4.7l4.9-21.1C506.2,350.6,508.8,348.9,511.5,349.2L511.5,349.2z"/>
	<path id="XMLID_24_" class="st3" d="M134.7,234c-1.1-2.4-0.5-5.5,1.5-6.8l18.3-12.6c2-1.4,4.5-0.6,5.7,1.8l0,0
		c1.1,2.4,0.5,5.5-1.5,6.8l-18.3,12.6C138.3,237.3,135.8,236.4,134.7,234L134.7,234z"/>
	<path id="XMLID_23_" class="st1" d="M119.7,380.7c-0.5-2.7,0.9-5.4,3.2-6l20.6-5.3c2.3-0.6,4.5,1.1,5,3.9l0,0c0.5,2.7-1,5.4-3.2,6
		l-20.6,5.3C122.4,385.1,120.2,383.4,119.7,380.7L119.7,380.7z"/>
	<path id="XMLID_22_" class="st2" d="M135.9,303.4c1.2-2.4,3.7-3.2,5.7-1.8l18.2,12.7c2,1.4,2.7,4.5,1.5,6.9l0,0
		c-1.2,2.4-3.7,3.2-5.7,1.8l-18.2-12.7C135.4,308.9,134.7,305.8,135.9,303.4L135.9,303.4z"/>
</g>
<g id="XMLID_56_">
	<path id="XMLID_73_" class="st0" d="M576.4,413.2c-2.7,0.5-5.3-0.9-5.7-3.2l-3.9-20.7c-0.4-2.3,1.4-4.5,4.2-5l0,0
		c2.7-0.5,5.3,0.9,5.7,3.2l3.9,20.7C581,410.5,579.1,412.7,576.4,413.2L576.4,413.2z"/>
	<path id="XMLID_72_" class="st1" d="M592.6,475.1c-1,2.5-3.5,3.5-5.6,2.2l-18.8-11.5c-2.1-1.3-2.9-4.3-1.8-6.7l0,0
		c1-2.5,3.5-3.5,5.6-2.2l18.8,11.5C592.8,469.6,593.7,472.6,592.6,475.1L592.6,475.1z"/>
	<path id="XMLID_71_" class="st2" d="M597.4,527.4c1,2.5,0.1,5.5-2,6.7l-19,10.9c-2.1,1.2-4.6,0.1-5.6-2.4l0,0c-1-2.5-0.1-5.5,2-6.7
		l19-10.9C594,523.9,596.5,524.9,597.4,527.4L597.4,527.4z"/>
	<path id="XMLID_70_" class="st3" d="M469.4,444.4c0,2.8-1.9,5-4.2,5h-21.1c-2.3,0-4.2-2.2-4.2-5l0,0c0-2.8,1.9-5,4.2-5h21.1
		C467.5,439.4,469.4,441.6,469.4,444.4L469.4,444.4z"/>
	<path id="XMLID_69_" class="st1" d="M511.1,437.3c-1,2.5-3.5,3.5-5.6,2.2l-18.8-11.5c-2.1-1.3-2.9-4.3-1.8-6.7l0,0
		c1-2.5,3.5-3.5,5.6-2.2l18.8,11.5C511.3,431.8,512.2,434.8,511.1,437.3L511.1,437.3z"/>
	<path id="XMLID_68_" class="st0" d="M365.2,433.6c-2.1,1.8-5,1.9-6.5,0.1l-13.8-15.9c-1.5-1.7-1-4.6,1.1-6.4l0,0
		c2.1-1.8,5-1.9,6.5-0.1l13.8,15.9C367.8,428.9,367.3,431.8,365.2,433.6L365.2,433.6z"/>
	<path id="XMLID_67_" class="st1" d="M484.6,500.9c-1,2.5-3.5,3.5-5.6,2.2l-18.8-11.5c-2.1-1.3-2.9-4.3-1.8-6.7l0,0
		c1-2.5,3.5-3.5,5.6-2.2l18.8,11.5C484.8,495.4,485.6,498.4,484.6,500.9L484.6,500.9z"/>
	<path id="XMLID_66_" class="st2" d="M451.6,560.7c-1.2,2.4-3.7,3.2-5.7,1.8l-18.2-12.8c-2-1.4-2.6-4.5-1.5-6.9l0,0
		c1.2-2.4,3.7-3.2,5.7-1.8l18.2,12.8C452.1,555.2,452.8,558.3,451.6,560.7L451.6,560.7z"/>
	<path id="XMLID_65_" class="st0" d="M480.1,370c-2.7,0.5-5.3-0.9-5.7-3.2l-3.9-20.7c-0.4-2.3,1.4-4.5,4.2-5l0,0
		c2.7-0.5,5.3,0.9,5.7,3.2l3.9,20.7C484.7,367.2,482.8,369.5,480.1,370L480.1,370z"/>
	<path id="XMLID_64_" class="st1" d="M418.9,348.5c-1,2.5-3.5,3.5-5.6,2.2l-18.8-11.5c-2.1-1.3-2.9-4.3-1.8-6.7l0,0
		c1-2.5,3.5-3.5,5.6-2.2l18.8,11.5C419.1,343,419.9,346,418.9,348.5L418.9,348.5z"/>
	<path id="XMLID_63_" class="st2" d="M399.8,380.3c1,2.5,0.1,5.5-2,6.7l-19,10.9c-2.1,1.2-4.6,0.1-5.6-2.4l0,0c-1-2.5-0.1-5.5,2-6.7
		l19-10.9C396.3,376.7,398.8,377.8,399.8,380.3L399.8,380.3z"/>
	<path id="XMLID_62_" class="st2" d="M555.7,343.4c-1.2,2.4-3.7,3.2-5.7,1.8l-18.1-12.9c-2-1.4-2.6-4.5-1.5-6.9l0,0
		c1.2-2.4,3.7-3.2,5.7-1.8l18.1,12.9C556.2,337.9,556.9,341,555.7,343.4L555.7,343.4z"/>
	<path id="XMLID_61_" class="st2" d="M542.9,402.9c2,1.3,2.8,4.3,1.8,6.8l-9.7,22.5c-1.1,2.5-3.6,3.4-5.6,2.1l0,0
		c-2-1.3-2.8-4.3-1.8-6.8l9.7-22.5C538.4,402.6,540.9,401.6,542.9,402.9L542.9,402.9z"/>
	<path id="XMLID_60_" class="st0" d="M305.7,351.8c-2.7-0.3-4.5-2.4-3.9-4.7l4.9-21.1c0.5-2.3,3.2-3.9,5.9-3.6l0,0
		c2.7,0.3,4.5,2.4,3.9,4.7l-4.9,21.1C311,350.5,308.4,352.1,305.7,351.8L305.7,351.8z"/>
	<path id="XMLID_59_" class="st3" d="M682.6,467c1.1,2.4,0.5,5.5-1.5,6.8l-18.3,12.6c-2,1.4-4.5,0.6-5.7-1.8l0,0
		c-1.1-2.4-0.5-5.5,1.5-6.8l18.3-12.6C678.9,463.8,681.4,464.6,682.6,467L682.6,467z"/>
	<path id="XMLID_58_" class="st1" d="M697.5,320.4c0.5,2.7-0.9,5.4-3.2,6l-20.6,5.3c-2.3,0.6-4.5-1.1-5-3.9l0,0
		c-0.5-2.7,1-5.4,3.2-6l20.6-5.3C694.8,315.9,697,317.7,697.5,320.4L697.5,320.4z"/>
	<path id="XMLID_57_" class="st2" d="M681.4,397.7c-1.2,2.4-3.7,3.2-5.7,1.8l-18.2-12.7c-2-1.4-2.7-4.5-1.5-6.9l0,0
		c1.2-2.4,3.7-3.2,5.7-1.8l18.2,12.7C681.9,392.2,682.5,395.3,681.4,397.7L681.4,397.7z"/>
</g>
<g id="XMLID_20_">
	<path id="XMLID_55_" class="st0" d="M390,544.7c-2.7,0.5-5.3-0.9-5.7-3.2l-3.9-20.7c-0.4-2.3,1.4-4.5,4.2-5l0,0
		c2.7-0.5,5.3,0.9,5.7,3.2l3.9,20.7C394.6,541.9,392.7,544.1,390,544.7L390,544.7z"/>
	<path id="XMLID_54_" class="st1" d="M406.2,606.5c-1,2.5-3.5,3.5-5.6,2.2l-18.8-11.5c-2.1-1.3-2.9-4.3-1.8-6.7l0,0
		c1-2.5,3.5-3.5,5.6-2.2l18.8,11.5C406.4,601,407.2,604,406.2,606.5L406.2,606.5z"/>
	<path id="XMLID_53_" class="st2" d="M411,658.9c1,2.5,0.1,5.5-2,6.7l-19,10.9c-2.1,1.2-4.6,0.1-5.6-2.4l0,0c-1-2.5-0.1-5.5,2-6.7
		l19-10.9C407.5,655.3,410,656.4,411,658.9L411,658.9z"/>
	<path id="XMLID_52_" class="st3" d="M282.9,575.8c0,2.8-1.9,5-4.2,5h-21.1c-2.3,0-4.2-2.2-4.2-5l0,0c0-2.8,1.9-5,4.2-5h21.1
		C281.1,570.8,282.9,573,282.9,575.8L282.9,575.8z"/>
	<path id="XMLID_51_" class="st1" d="M324.7,568.7c-1,2.5-3.5,3.5-5.6,2.2l-18.8-11.5c-2.1-1.3-2.9-4.3-1.8-6.7l0,0
		c1-2.5,3.5-3.5,5.6-2.2l18.8,11.5C324.9,563.2,325.7,566.2,324.7,568.7L324.7,568.7z"/>
	<path id="XMLID_50_" class="st0" d="M178.8,565c-2.1,1.8-5,1.9-6.5,0.1l-13.8-15.9c-1.5-1.7-1-4.6,1.1-6.4l0,0
		c2.1-1.8,5-1.9,6.5-0.1l13.8,15.9C181.4,560.3,180.9,563.2,178.8,565L178.8,565z"/>
	<path id="XMLID_49_" class="st1" d="M298.2,632.3c-1,2.5-3.5,3.5-5.6,2.2l-18.8-11.5c-2.1-1.3-2.9-4.3-1.8-6.7l0,0
		c1-2.5,3.5-3.5,5.6-2.2l18.8,11.5C298.4,626.8,299.2,629.8,298.2,632.3L298.2,632.3z"/>
	<path id="XMLID_48_" class="st2" d="M265.2,692.1c-1.2,2.4-3.7,3.2-5.7,1.8L241.3,681c-2-1.4-2.6-4.5-1.5-6.9l0,0
		c1.2-2.4,3.7-3.2,5.7-1.8l18.2,12.8C265.7,686.6,266.4,689.7,265.2,692.1L265.2,692.1z"/>
	<path id="XMLID_47_" class="st0" d="M293.7,501.4c-2.7,0.5-5.3-0.9-5.7-3.2l-3.9-20.7c-0.4-2.3,1.4-4.5,4.2-5l0,0
		c2.7-0.5,5.3,0.9,5.7,3.2l3.9,20.7C298.3,498.6,296.4,500.9,293.7,501.4L293.7,501.4z"/>
	<path id="XMLID_46_" class="st1" d="M232.4,479.9c-1,2.5-3.5,3.5-5.6,2.2L208,470.7c-2.1-1.3-2.9-4.3-1.8-6.7l0,0
		c1-2.5,3.5-3.5,5.6-2.2l18.8,11.5C232.6,474.4,233.5,477.4,232.4,479.9L232.4,479.9z"/>
	<path id="XMLID_45_" class="st2" d="M213.3,511.7c1,2.5,0.1,5.5-2,6.7l-19,10.9c-2.1,1.2-4.6,0.1-5.6-2.4l0,0c-1-2.5-0.1-5.5,2-6.7
		l19-10.9C209.9,508.1,212.3,509.2,213.3,511.7L213.3,511.7z"/>
	<path id="XMLID_44_" class="st2" d="M369.3,474.8c-1.2,2.4-3.7,3.2-5.7,1.8l-18.1-12.9c-2-1.4-2.6-4.5-1.5-6.9l0,0
		c1.2-2.4,3.7-3.2,5.7-1.8l18.1,12.9C369.8,469.4,370.5,472.4,369.3,474.8L369.3,474.8z"/>
	<path id="XMLID_43_" class="st2" d="M356.5,534.3c2,1.3,2.8,4.3,1.8,6.8l-9.7,22.5c-1.1,2.5-3.6,3.4-5.6,2.1l0,0
		c-2-1.3-2.8-4.3-1.8-6.8l9.7-22.5C352,534,354.5,533,356.5,534.3L356.5,534.3z"/>
	<path id="XMLID_42_" class="st0" d="M119.3,483.2c-2.7-0.3-4.5-2.4-3.9-4.7l4.9-21.1c0.5-2.3,3.2-3.9,5.9-3.6l0,0
		c2.7,0.3,4.5,2.4,3.9,4.7l-4.9,21.1C124.6,481.9,122,483.5,119.3,483.2L119.3,483.2z"/>
	<path id="XMLID_41_" class="st3" d="M496.2,598.4c1.1,2.4,0.5,5.5-1.5,6.8l-18.3,12.6c-2,1.4-4.5,0.6-5.7-1.8l0,0
		c-1.1-2.4-0.5-5.5,1.5-6.8l18.3-12.6C492.5,595.2,495,596,496.2,598.4L496.2,598.4z"/>
	<path id="XMLID_40_" class="st1" d="M511.1,451.8c0.5,2.7-0.9,5.4-3.2,6l-20.6,5.3c-2.3,0.6-4.5-1.1-5-3.9l0,0
		c-0.5-2.7,1-5.4,3.2-6l20.6-5.3C508.4,447.3,510.6,449.1,511.1,451.8L511.1,451.8z"/>
	<path id="XMLID_39_" class="st2" d="M494.9,529.1c-1.2,2.4-3.7,3.2-5.7,1.8L471,518.2c-2-1.4-2.7-4.5-1.5-6.9l0,0
		c1.2-2.4,3.7-3.2,5.7-1.8l18.2,12.7C495.4,523.6,496.1,526.7,494.9,529.1L494.9,529.1z"/>
</g>
<g id="sprinkles">
	<g id="XMLID_91_">
		<path id="XMLID_89_" class="st4" d="M1348.6,842.3c0-2.4,2-4.4,4.4-4.4h22.3c2.4,0,4.4,2,4.4,4.4l0,0c0,2.4-2,4.4-4.4,4.4H1353
			C1350.6,846.8,1348.6,844.8,1348.6,842.3L1348.6,842.3z"/>
		<path id="XMLID_88_" class="st1" d="M1304.3,848.6c1.1-2.2,3.8-3,5.9-1.9l19.9,10.1c2.2,1.1,3.1,3.8,1.9,5.9l0,0
			c-1.1,2.2-3.8,3-5.9,1.9l-19.9-10.1C1304.1,853.4,1303.2,850.8,1304.3,848.6L1304.3,848.6z"/>
		<path id="XMLID_87_" d="M1299.2,802.4c-1-2.2-0.1-4.8,2.1-5.9l20.2-9.6c2.2-1.1,4.8-0.1,5.9,2.1l0,0c1.1,2.2,0.1,4.8-2.1,5.9
			l-20.2,9.6C1302.9,805.6,1300.3,804.6,1299.2,802.4L1299.2,802.4z"/>
		<path id="XMLID_86_" class="st4" d="M1435,875.6c0-2.4,2-4.4,4.4-4.4h22.3c2.4,0,4.4,2,4.4,4.4l0,0c0,2.4-2,4.4-4.4,4.4h-22.3
			C1437,880,1435,878.1,1435,875.6L1435,875.6z"/>
		<path id="XMLID_85_" class="st1" d="M1390.7,881.9c1.1-2.2,3.8-3,5.9-1.9l19.9,10.1c2.2,1.1,3.1,3.8,1.9,5.9l0,0
			c-1.1,2.2-3.8,3-5.9,1.9l-19.9-10.1C1390.5,886.7,1389.6,884.1,1390.7,881.9L1390.7,881.9z"/>
		<path id="XMLID_84_" class="st4" d="M1463.1,819.6c0-2.4,2-4.4,4.4-4.4h22.3c2.4,0,4.4,2,4.4,4.4l0,0c0,2.4-2,4.4-4.4,4.4h-22.3
			C1465.1,824,1463.1,822,1463.1,819.6L1463.1,819.6z"/>
		<path id="XMLID_83_" class="st1" d="M1418.9,825.8c1.1-2.2,3.8-3,5.9-1.9l19.9,10.1c2.2,1.1,3.1,3.8,1.9,5.9l0,0
			c-1.1,2.2-3.8,3-5.9,1.9l-19.9-10.1C1418.6,830.7,1417.8,828,1418.9,825.8L1418.9,825.8z"/>
		<path id="XMLID_82_" d="M1453.8,773.1c1.2-2.1,3.9-2.8,6-1.6l19.3,11.3c2.1,1.2,2.8,3.9,1.6,6l0,0c-1.2,2.1-3.9,2.8-6,1.6
			l-19.3-11.3C1453.3,778,1452.6,775.2,1453.8,773.1L1453.8,773.1z"/>
		<path id="XMLID_81_" class="st4" d="M1532.8,953.9c0-2.4,2-4.4,4.4-4.4h22.3c2.4,0,4.4,2,4.4,4.4l0,0c0,2.4-2,4.4-4.4,4.4h-22.3
			C1534.8,958.3,1532.8,956.3,1532.8,953.9L1532.8,953.9z"/>
		<path id="XMLID_80_" class="st1" d="M1488.5,960.2c1.1-2.2,3.8-3,5.9-1.9l19.9,10.1c2.2,1.1,3.1,3.8,1.9,5.9l0,0
			c-1.1,2.2-3.8,3-5.9,1.9l-19.9-10.1C1488.3,965,1487.4,962.3,1488.5,960.2L1488.5,960.2z"/>
		<path id="XMLID_79_" d="M1508.8,932.1c-1.1-2.2-0.1-4.8,2.1-5.9l20.2-9.6c2.2-1.1,4.8-0.1,5.9,2.1l0,0c1.1,2.2,0.1,4.8-2.1,5.9
			l-20.2,9.6C1512.5,935.3,1509.8,934.3,1508.8,932.1L1508.8,932.1z"/>
		<path id="XMLID_78_" d="M1343.5,964.7c1.2-2.1,4-2.8,6.1-1.6l19.2,11.4c2.1,1.2,2.8,4,1.6,6.1l0,0c-1.2,2.1-4,2.8-6.1,1.6
			l-19.2-11.4C1342.9,969.5,1342.2,966.8,1343.5,964.7L1343.5,964.7z"/>
		<path id="XMLID_77_" d="M1357,912.2c-2.2-1.1-3-3.8-1.9-6l10.3-19.8c1.1-2.2,3.8-3,6-1.9l0,0c2.2,1.1,3,3.8,1.9,6l-10.3,19.8
			C1361.8,912.5,1359.2,913.4,1357,912.2L1357,912.2z"/>
		<path id="XMLID_76_" class="st4" d="M1304.8,910.8c0.8-2.3,3.4-3.5,5.7-2.6l21,7.7c2.3,0.8,3.5,3.4,2.6,5.7l0,0
			c-0.8,2.3-3.4,3.5-5.7,2.6l-21-7.7C1305.1,915.7,1304,913.1,1304.8,910.8L1304.8,910.8z"/>
		<path id="XMLID_75_" class="st4" d="M1209,855.7c-1.2-2.1-0.5-4.8,1.6-6l19.4-11.1c2.1-1.2,4.8-0.5,6,1.6l0,0
			c1.2,2.1,0.5,4.8-1.6,6l-19.4,11.1C1212.9,858.5,1210.2,857.8,1209,855.7L1209,855.7z"/>
		<path id="XMLID_74_" class="st1" d="M1193.2,985c-0.5-2.4,1-4.7,3.4-5.2l21.8-4.7c2.4-0.5,4.7,1,5.3,3.4l0,0
			c0.5,2.4-1,4.7-3.4,5.2l-21.8,4.7C1196,988.9,1193.7,987.3,1193.2,985L1193.2,985z"/>
		<path id="XMLID_2_" d="M1210.3,916.8c1.2-2.1,3.9-2.8,6-1.6l19.3,11.2c2.1,1.2,2.8,3.9,1.6,6l0,0c-1.2,2.1-3.9,2.8-6,1.6
			l-19.3-11.2C1209.7,921.6,1209,918.9,1210.3,916.8L1210.3,916.8z"/>
	</g>
</g>
</svg>
