<?xml version="1.0" encoding="utf-8"?>
<!-- Generator: Adobe Illustrator 19.0.0, SVG Export Plug-In . SVG Version: 6.00 Build 0)  -->
<svg version="1.1" id="Layer_1" xmlns="http://www.w3.org/2000/svg" xmlns:xlink="http://www.w3.org/1999/xlink" x="0px" y="0px"
	 viewBox="0 0 353.3 346.7" style="enable-background:new 0 0 353.3 346.7;" xml:space="preserve">
<style type="text/css">
	.st0{fill:#6BA544;}
	.st1{fill:#FFFFFF;}
</style>
<path class="st0" d="M43.3,146.4c-0.5-0.7-0.6-1.1-0.8-1.2c-14.2-8.7-16.3-21.3-11.6-36c1.7-5.3,1.4-10.3-0.1-15.6
	c-4.1-15.3-0.2-24,14.3-30c10.3-4.3,21.1-7.2,31.7-10.7c7-2.3,14.1-4.7,21.9-7.2c5.8-8.7,14-15.3,25.5-17.2c1.4-0.2,2.6-1.9,3.9-3
	c7.2-6.2,14-12.9,21.6-18.5c11.8-8.8,24.7-8.4,37.9-2.9c12.5,5.2,22.9,13.5,32.8,22.5c3.5,3.1,6.9,5.1,11.7,5.6
	c12.3,1.4,22.6,6.7,28.5,17.6c11.2,3.1,21.7,6,32.3,8.9c1.4,0.4,2.9,0.9,4.3,1.4c16.3,6.3,19.7,12.1,19,29.6
	c-0.2,5.2,1.1,10.5,2.1,15.6c0.9,4.6,2.7,9,3.3,13.5c1.5,10.7-1.9,19.7-10.8,26.3c3.2,10.4,6.5,20.5,9.3,30.7
	c8.2,28.9,11.8,58.3,10.6,88.4c-0.1,3.5,1.2,7.4,2.8,10.7c4.2,8.7,9,17,13.4,25.6c1,2,1.6,4.4,2.1,6.6c2.2,9.3,0.3,14.8-8.7,18
	c-10.9,3.9-22.2,7.4-33.6,8.7c-12.1,1.4-24.5-0.1-36.8-0.3c-1.7,0-3.4-0.4-4.9,0.1c-34.7,10.7-70.5,11.7-106.4,10.6
	c-22.4-0.7-44.4-3.8-66.1-9.7c-5.8-1.6-12.5-0.4-18.7,0.1c-18.9,1.4-37.2-0.9-55-7.5c-14.3-5.3-17.4-11.7-11.5-25.8
	c4.2-9.9,10-19.2,14.9-28.8c0.9-1.8,1.7-4.1,1.6-6c-3.3-39.8,5.5-77.8,17.7-115.2C42.2,149.5,42.8,147.8,43.3,146.4z M210.1,72.2
	c7.1-0.2,11.2,4.4,16,7.8c2,1.4,6.4,2.5,7.3,1.6c1.6-1.8,2.5-5.5,1.9-7.9c-1.8-7.4-7.4-11.6-14.2-14.3c-10-4-20.5-3.9-31-2.7
	c-5.1,0.6-10.2,1.3-15.4,2c-0.2-0.5-0.5-1.1-0.7-1.6c4-3.6,8.1-7.2,12.1-10.8c9.2-8.2,9.4-17.2,0.6-25.8
	c-9.8-9.5-20.8-10.8-32.1-3.2c-3.9,2.6-7.5,5.6-10.8,8.8c-4.5,4.4-8.5,9.3-13.2,14.6c-12.7-1.6-19.8,6.1-24,17.5c-3.1,0-5.6,0.1-8,0
	c-8.4-0.2-13.8,4.4-17.5,11.2c-2.8,5-1.8,8.4,3.6,10.4c7.8,2.8,15.8,5.3,23.9,6.8c11.8,2.2,22.9,2,31.6-8.9
	c3.6-4.5,9.9-6.1,16.7-5.7c-2.1,3.1-3.9,5.5-5.4,8c-3.5,5.9-1.7,10.4,5.2,10.8c12.3,0.7,24.6,0.9,36.8,0.7
	c5.1-0.1,10.2-1.3,15.2-2.7c5.2-1.5,6.4-4.7,4.4-9.7C212.3,76.7,211.3,74.7,210.1,72.2z M288.1,76.8c-8.4,8-18.7,12.1-29.4,15.3
	c-24.1,7.2-48.9,9.8-73.9,10.3c-31.3,0.6-62.2-1.5-92.4-10.1C81,89.1,70.1,84.7,61,76.6c3.6-2.5,9.2-1.1,11-6.5
	c-5.5,0.7-10.8,2-15.8,3.9c-6.3,2.5-7.6,6.6-2.7,11.4c4.8,4.7,10.4,9,16.4,12c17.4,8.7,36.4,12.6,55.6,15.2
	c27.1,3.7,54.4,4.3,81.7,2c21.8-1.8,43.4-5.2,63.8-13.1c7.8-3,15.1-7.7,22.2-12.3c4-2.6,7.3-6.5,5.9-12.7
	c-6.2-5.1-13.8-6.4-22.4-7.5C278.1,76,284.6,73.3,288.1,76.8z M219.9,247.4c-13.3-3.4-28.9,8.2-39.5,28.4
	c-7.5-17-19.2-28.2-38.3-29.7c-6.1,13.1,8.7,32.5,32.1,43.2c0,8.5,0,17.2,0,25.9c4.4,0,8.3,0,12.4,0c0-8.9,0-17.3,0-26.1
	c9.1-3,17.9-6.9,23.8-15.2C216.1,265.8,220.7,257.5,219.9,247.4z M219.4,211c-1.8-0.3-2.6-0.5-3.4-0.5c-16.5,0.6-35,19.9-34.7,36.3
	c0,2,1,4,1.6,6.2c13.6-0.1,22.7-6.8,29.6-16.8C217.5,228.7,221.2,220.7,219.4,211z M140.6,210.4c-1.4,11.6,3.1,20.2,9.5,28
	c7.1,8.6,15.6,14.6,27.2,14.5c3.7-7.2,1.8-16.9-5.3-25.9C164.3,217.2,154.5,211.1,140.6,210.4z M141.3,174.2
	c-2.2,11.8,2.9,20.5,9,28.6c6.5,8.5,14.4,15.2,26.6,14.9c4.5-8.4,1.3-16-2.7-22.7C166.9,182.9,155.9,176.2,141.3,174.2z
	 M182.6,217.9c12.5-0.2,21.3-6,27.9-15c6-8.2,10.6-17.1,8.3-28.7c-13.7,1.9-23.5,8.5-30.9,18.9C182.7,200.3,180.1,208.3,182.6,217.9
	z M180.9,142.1c-12.9,10.4-19.4,41.9-0.4,51.8c7.9-4,10.6-11.6,11.4-19.8C193.1,161.9,189.7,151,180.9,142.1z"/>
<path class="st1" d="M210.1,72.2c1.2,2.5,2.2,4.5,3.1,6.6c2,5,0.8,8.2-4.4,9.7c-4.9,1.4-10.1,2.6-15.2,2.7
	c-12.3,0.2-24.6,0-36.8-0.7c-6.9-0.4-8.7-4.8-5.2-10.8c1.5-2.5,3.3-4.9,5.4-8c-6.9-0.3-13.1,1.2-16.7,5.7
	c-8.7,10.9-19.9,11.1-31.6,8.9c-8.1-1.5-16.1-4-23.9-6.8c-5.4-1.9-6.3-5.4-3.6-10.4c3.8-6.8,9.2-11.4,17.5-11.2c2.5,0.1,4.9,0,8,0
	c4.2-11.4,11.3-19.1,24-17.5c4.7-5.2,8.7-10.1,13.2-14.6c3.3-3.3,6.9-6.3,10.8-8.8c11.3-7.5,22.4-6.3,32.1,3.2
	c8.8,8.6,8.6,17.6-0.6,25.8c-4,3.6-8.1,7.2-12.1,10.8c0.2,0.5,0.5,1.1,0.7,1.6c5.1-0.7,10.2-1.4,15.4-2c10.5-1.3,20.9-1.4,31,2.7
	c6.8,2.7,12.4,6.9,14.2,14.3c0.6,2.4-0.3,6.1-1.9,7.9c-0.9,1-5.3-0.2-7.3-1.6C221.3,76.6,217.2,72,210.1,72.2z"/>
<path class="st1" d="M288.1,76.8c-3.6-3.4-10.1-0.8-11.6-7.8c8.5,1.1,16.2,2.4,22.4,7.5c1.4,6.2-1.9,10.1-5.9,12.7
	c-7.1,4.6-14.3,9.2-22.2,12.3c-20.5,8-42,11.3-63.8,13.1c-27.3,2.3-54.6,1.7-81.7-2c-19.2-2.6-38.1-6.5-55.6-15.2
	c-6-3-11.5-7.3-16.4-12c-4.9-4.8-3.7-8.9,2.7-11.4c5-1.9,10.3-3.2,15.8-3.9c-1.8,5.4-7.3,4-11,6.5c9.1,8.1,19.9,12.5,31.3,15.7
	c30.2,8.6,61.2,10.7,92.4,10.1c25.1-0.5,49.8-3.1,73.9-10.3C269.4,88.9,279.7,84.8,288.1,76.8z"/>
<path class="st1" d="M219.9,247.4c0.8,10.1-3.8,18.5-9.5,26.5c-5.9,8.3-14.7,12.2-23.8,15.2c0,8.8,0,17.2,0,26.1c-4.1,0-8,0-12.4,0
	c0-8.7,0-17.4,0-25.9c-23.4-10.7-38.2-30.1-32.1-43.2c19.1,1.5,30.8,12.7,38.3,29.7C191,255.5,206.6,243.9,219.9,247.4z"/>
<path class="st1" d="M219.4,211c1.8,9.8-1.9,17.8-7,25.2c-6.9,10-15.9,16.7-29.6,16.8c-0.6-2.2-1.5-4.2-1.6-6.2
	c-0.3-16.4,18.2-35.7,34.7-36.3C216.8,210.5,217.6,210.7,219.4,211z"/>
<path class="st1" d="M140.6,210.4c13.9,0.8,23.7,6.8,31.4,16.6c7,9,9,18.8,5.3,25.9c-11.6,0.1-20.1-5.9-27.2-14.5
	C143.7,230.6,139.3,222,140.6,210.4z"/>
<path class="st1" d="M141.3,174.2c14.6,2.1,25.7,8.8,32.9,20.8c4,6.7,7.2,14.3,2.7,22.7c-12.1,0.2-20.1-6.5-26.6-14.9
	C144.2,194.7,139.1,185.9,141.3,174.2z"/>
<path class="st1" d="M182.6,217.9c-2.5-9.6,0.1-17.5,5.2-24.8c7.4-10.4,17.3-17,30.9-18.9c2.3,11.6-2.3,20.5-8.3,28.7
	C203.8,211.9,195.1,217.7,182.6,217.9z"/>
<path class="st1" d="M180.9,142.1c8.9,8.9,12.3,19.8,11,32c-0.8,8.2-3.5,15.8-11.4,19.8C161.5,184,167.9,152.5,180.9,142.1z"/>
</svg>
