<?xml version="1.0" encoding="utf-8"?>
<!-- Generator: Adobe Illustrator 19.0.0, SVG Export Plug-In . SVG Version: 6.00 Build 0)  -->
<svg version="1.1" id="Layer_1" xmlns="http://www.w3.org/2000/svg" xmlns:xlink="http://www.w3.org/1999/xlink" x="0px" y="0px"
	 viewBox="0 0 391.3 392" style="enable-background:new 0 0 391.3 392;" xml:space="preserve">
<path d="M208.6,379.6c1.3-1.4,2.6-2.8,3.8-4.2l0.2-0.3c4.5-4.9,9.1-10,13.4-15.2c12.8-15.6,23.4-28.7,34-42.6
	c18.3-24.1,34.3-49.2,47.4-74.6c11.7-22.7,19.7-43.5,24.3-63.5c2.9-12.5,4.3-23.4,4.3-33.4c0-9.2-0.8-18.5-2.6-27.6
	c-4.8-25.3-16.3-47.9-34.1-67.1c-10.3-11.1-22.8-20.6-37.2-28.1c-19.8-10.4-41.6-15.7-64.7-15.9c-5.7-0.1-11.6,0.6-16.9,1.1l-0.1,0
	c-11.8,1.2-23.4,4.1-34.5,8.4c-24.3,9.5-44.5,24.7-60,45.1c-18.2,23.9-27.3,50.8-27.7,82.3c0.1,1.2,0.1,2.4,0.2,3.8
	c0.2,3.3,0.3,7,0.7,10.7c1.3,11.7,3.9,23.7,8,36.6c7.4,23.4,18.3,46.7,34.2,73.3c16,26.8,35.3,53.6,58.9,81.9
	c5.8,6.9,11.9,13.8,17.8,20.4l0.3,0.3c2.3,2.6,4.6,5.1,6.8,7.7c0.8,0.9,1.7,1.7,2.5,2.4C193.7,386,203.5,385.2,208.6,379.6z
	 M192.3,353.7c-1-1.1-1.9-2.1-2.7-3c-1.8-2-3.3-3.7-4.9-5.6c-20-23.2-36.7-45.2-51.1-67.1c-14-21.2-25-40.8-33.7-60
	c-9.1-20-14.6-36.9-17.4-53.1c-5.8-33.9,1.7-64.4,22.6-90.9c16.5-21,38.6-34.9,65.6-41.4c9.6-2.3,19.2-3.3,28.6-3.1
	c34.2,1,63,14.1,85.5,39c14.8,16.4,24.1,36,27.7,58.5c2.8,17.6,1.1,36.2-5,57c-5.6,18.8-13.8,37.8-25.9,59.8
	c-14.9,26.9-32.5,53.1-52.4,77.7c-5.3,6.5-10.7,13-16,19.2c-2.8,3.3-5.6,6.6-8.4,10c-0.1,0.1-0.4,0.5-0.6,0.9
	c-0.2,0.4-0.5,0.8-0.8,1.2c-1.2,1.8-3.2,3-5.3,3.1c-0.2,0-0.3,0-0.5,0C195.5,356,193.6,355.2,192.3,353.7z"/>
<path d="M141.8,149.4l0,0.2c-0.2,14.8,5.7,29.2,16.1,39.8c10.3,10.4,24.1,16.1,38.8,16.1l0.3,0c15.2-0.1,29.2-6,39.6-16.6
	c10.3-10.6,16.1-25.2,15.7-39.9c-0.4-15.1-6.5-29-17.4-39.2c-10.3-9.6-23.7-15-37.8-15c-0.7,0-1.4,0-2.1,0
	C162.4,96.1,141.2,124,141.8,149.4z M196.5,118.1L196.5,118.1c8.8-0.1,16.9,3,23,8.9c6.1,5.9,9.5,14.2,9.6,23.1
	c0.2,8.3-3,16.5-8.8,22.6c-5.9,6.2-13.8,9.5-22.9,9.6l-0.5,0c-8.6,0-16.3-3.1-22.2-8.8c-6.1-6-9.7-14.6-9.7-23.5
	C164.9,134.6,176.7,118.5,196.5,118.1z"/>
</svg>
