<?xml version="1.0" encoding="utf-8"?>
<!-- Generator: Adobe Illustrator 19.0.0, SVG Export Plug-In . SVG Version: 6.00 Build 0)  -->
<svg version="1.1" id="Layer_1" xmlns="http://www.w3.org/2000/svg" xmlns:xlink="http://www.w3.org/1999/xlink" x="0px" y="0px"
	 viewBox="-571 317 391.3 392" style="enable-background:new -571 317 391.3 392;" xml:space="preserve">
<path d="M-190,626.5c2.5-5.4,3.6-11.5,3.6-19.9V423.5c0-5.3-0.1-9.8-0.4-13.9c-0.8-11.9-6.3-21.7-16.3-29.1
	c-6.9-5.1-14.8-7.5-24.2-7.5h-147.2c-48.5,0-98.6,0-148,0.1c-14.8,0-26.5,6.6-34.9,19.7c-3.8,5.9-5.6,13-5.6,22.4v184.9
	c0,4.2,0.2,8.6,0.4,12.9c0.8,17.8,14.9,34.3,32.2,37.7c4,0.7,7.7,1.1,11.1,1.2c7.1,0.1,14.3,0.1,21.3,0.1c2.4,0,4.7,0,7.1,0h260.3
	c3.2,0,6.9-0.1,10.2-0.8C-206.1,648-196.2,639.9-190,626.5z M-534.4,399.4L-534.4,399.4c2.9-2.4,6.3-3.7,9.9-3.9l0.3,0l149.6,0
	c47.7,0,97.1,0,145.6-0.1c0.3,0,0.6,0,0.8,0c0.9,0,1.9-0.1,3,0c6.9,0.4,12.4,4.3,15,10.7c2.6,6.3,1.4,12.9-3.2,18.2
	c-1.1,1.3-2.4,2.3-3.5,3.1c-12.9,9.8-25.6,19.5-38.4,29.2l-4.2,3.2c-14.2,10.8-28.3,21.5-42.5,32.3c-16.3,12.3-33.3,25.3-48.3,36.8
	c-6.9,5.4-14.5,8.3-22.5,8.5c-0.5,0-1,0-1.4,0c0,0,0,0,0,0c-9.1,0-17-2.5-23.3-7.4c-3.7-2.8-7.4-5.6-11.1-8.4l-2-1.5
	c-4.4-3.3-8.7-6.6-13.1-9.9c-16.1-12.2-32.2-24.4-48.2-36.6l-3.4-2.6c-14.9-11.3-29.7-22.6-44.6-33.9c-1.9-1.5-3.7-2.9-5.6-4.2
	c-2.8-2.1-5.7-4.3-8.6-6.6c-4.2-3.4-6.5-8.1-6.6-13.2C-540.8,407.9-538.5,403-534.4,399.4z M-208.7,607.9c0,4.6-0.7,11.3-6.4,16.5
	c-3.6,3.1-7.6,4.8-12.2,5.1l-0.2,0l-293.8,0c-10.5-0.4-18.2-7.7-19.2-18.1c-0.2-1.5-0.2-2.7-0.2-3.8c0-0.3,0-0.5,0-0.8V468.5
	c0-0.7,0-1.4,0-2.2c0-0.8,0.1-1.7,0.1-2.7v-12.9l11.1,7.2c1.6,1,2.8,1.8,4,2.8c16.7,12.7,33.5,25.5,50.3,38.3l1.7,1.3
	c17.2,13.1,34.3,26.1,51.5,39.2c4.3,3.4,8.5,6.5,12.4,9.4c11.2,8.2,23.9,11.9,37.7,11.1c12.1-0.7,22.6-4.3,31.2-10.8
	c23.7-18,46.7-35.4,64.1-48.7c12.2-9.3,24.6-18.7,36.6-27.9l0.2-0.1c5.3-4,10.6-8.1,15.9-12.1c1-0.8,2.1-1.5,4.1-2.9l10.9-7.3v13.1
	c0,1.9,0,2.9,0.1,4l0,0.5V607.9z"/>
</svg>
