<?xml version="1.0" encoding="utf-8"?>
<!-- Generator: Adobe Illustrator 19.0.0, SVG Export Plug-In . SVG Version: 6.00 Build 0)  -->
<svg version="1.1" id="Layer_1" xmlns="http://www.w3.org/2000/svg" xmlns:xlink="http://www.w3.org/1999/xlink" x="0px" y="0px"
	 viewBox="-571 317 391.3 392" style="enable-background:new -571 317 391.3 392;" xml:space="preserve">
<path d="M-507.1,338.2c-17.3,10.3-31.2,24-41.1,40.6c-11.8,19.7-16.1,41.2-12.6,64.1c3.4,20.5,8.9,41.1,16.3,61
	c16.7,44.6,42.2,83.2,75.7,114.8c13.4,12.5,27.9,23.9,43.2,33.7c21.4,13.8,44.9,24.8,71.7,33.7c13.3,4.5,27.6,8.1,43.7,11.1
	c12.1,2.3,23.7,2.5,35.3,0.7c18.8-3.1,36.1-11.5,51.2-25c13.3-11.7,23.6-26.5,30.7-44c2.7-6.8,5.6-15.8,3.6-25.1
	c-2.5-12-8.7-20.4-18.4-25c-16-7.7-32.5-15.2-48.4-22.5l-0.6-0.3c-7.4-3.4-14.9-6.8-22.3-10.2c-4-1.9-7.8-2.9-11.3-3.1
	c-12.2-0.6-22.5,3.7-30.5,12.7c-1.8,2-3.5,4.1-5.2,6.3c-0.9,1.1-1.8,2.3-2.7,3.4c-1.7,2.2-3.6,4.4-5.4,6.6c-1.5,1.8-3,3.6-4.5,5.4
	l-3.7,4.6l-5.2-2.9c-40.3-22.7-70.6-53.9-92.7-95.4l-3.1-5.8l5.5-3.5c0.5-0.3,0.8-0.5,1-0.7l0.5-0.4c1.7-1.4,3.5-2.9,5.3-4.3
	c3.4-2.8,6.9-5.6,10.2-8.5l0.6-0.5c2.7-2.4,5.3-4.6,7-7c8.5-11.5,10-24,4.4-36.9c-9.5-21.7-19.4-44-30.5-68.2
	c-6.2-13.4-19.1-21.8-33.7-21.8c-3.5,0-7,0.5-10.4,1.5C-490.9,329.6-498.7,333.2-507.1,338.2L-507.1,338.2z M-476.5,349.1l1.4-0.5
	l1.5,0.1c6.4,0.4,11.1,3.9,13.8,10.3c5.4,11.8,10.9,23.8,16.3,35.5c1.1,2.5,2.3,5,3.4,7.5l0.1,0.2c3,6.7,6.2,13.7,9.4,20.4
	c3.7,7.8,2,15-4.8,20.3c-5.8,4.5-11.6,9.2-17.3,13.6l-0.4,0.3c-3.1,2.5-6.3,5-9.4,7.4c-2.2,1.7-3.7,3.3-4.5,4.9
	c-1.9,3.7-2,7.2-0.2,11.2c12.6,28.2,29.8,53.6,51.1,75.4c20.3,20.7,44.8,38,72.9,51.4c4.3,2.1,9.5,0.9,13.1-2.9c2-2.1,3.9-4.6,5.7-7
	c0.7-0.9,1.5-1.9,2.2-2.8c5.6-7.1,11.4-14.5,16.9-21.6l0.7-0.8c0.1-0.1,0.2-0.3,0.3-0.4l0.4-0.5c4.8-5.4,11-6.7,17.5-3.7
	c9.3,4.2,19.2,8.8,29.2,13.4c5.9,2.7,11.9,5.5,17.8,8.2c5.9,2.7,11.9,5.5,17.9,8.2c2.3,1.1,9.3,4.4,10,13.5l0.1,1.3l-0.4,1.3
	c-2.7,8.7-6.9,17.1-12.6,25.2c-13.3,18.9-30.9,30.9-52.2,35.6c-4.8,1-9.8,1.5-14.8,1.5c-5,0-10.1-0.5-15.2-1.5
	c-14.5-2.9-27.4-6.2-39.5-10.1c-34.2-11-64.8-27.5-91.1-49c-27.9-22.9-50.8-50.6-67.9-82.2c-15-27.7-25.3-57.2-30.7-87.5
	c-1-5.1-1.9-10.2-2.1-15.3c-0.6-13.9,2.9-27.3,10.4-40C-516.1,370.9-499,357.1-476.5,349.1z"/>
</svg>
