<?xml version="1.0" encoding="utf-8"?>
<!-- Generator: Adobe Illustrator 19.0.0, SVG Export Plug-In . SVG Version: 6.00 Build 0)  -->
<svg version="1.1" id="Layer_1" xmlns="http://www.w3.org/2000/svg" xmlns:xlink="http://www.w3.org/1999/xlink" x="0px" y="0px"
	 viewBox="-159 -40 640 640" style="enable-background:new -159 -40 640 640;" xml:space="preserve">
<style type="text/css">
	.st0{fill:#6AA547;}
</style>
<path class="st0" d="M65.2,49c-7.9-18.9-28.5-28.9-48.1-23.6l-5.5,1.5C-53,44.5-108.2,107.1-92.1,183.3
	C-55,358.3,82.7,496,257.7,533.1C334,549.3,396.5,494,414.1,429.4l1.5-5.5c5.4-19.7-4.7-40.3-23.5-48.1l-97.3-40.5
	c-16.5-6.9-35.6-2.1-47,11.8l-38.6,47.2c-70.3-34.9-126.9-93.3-159.4-165l44.2-36c13.9-11.3,18.6-30.4,11.8-47L65.2,49z"/>
</svg>
