<?xml version="1.0" encoding="utf-8"?>
<!-- Generator: Adobe Illustrator 19.0.0, SVG Export Plug-In . SVG Version: 6.00 Build 0)  -->
<svg version="1.1" id="Layer_1" xmlns="http://www.w3.org/2000/svg" xmlns:xlink="http://www.w3.org/1999/xlink" x="0px" y="0px"
	 viewBox="0 0 353.3 346.7" style="enable-background:new 0 0 353.3 346.7;" xml:space="preserve">
<style type="text/css">
	.st0{fill:#6BA544;}
	.st1{fill:#FFFFFF;}
</style>
<g>
	<path class="st0" d="M275.9,119.3c-3.4-3.7-6.8-7.4-10.7-11.7c2-1.7,3.6-3.2,5.3-4.6c9.1-7.1,18.4-14,27.1-21.4
		c3.6-3.1,17.3-18.9,2.8-14.1c-3.7,1.3-7.7,2.7-10.7,5.2c-8.7,7.3-17,15-25.4,22.7c-1.6,1.5-2.9,3.4-4.7,5.5c-3.1-3-5.6-5.3-8.9-8.4
		c3-6.5,5.9-13,9-19.4c4.7-9.6,9.6-19.1,14.1-28.9c3.2-6.9,0.2-12.6-6.3-5.2c-11.1,12.7-17.4,27.9-22.7,43.6
		c-0.2,0.7-0.5,1.4-1.1,3.1c-3.3-4.2-6.2-7.9-10.3-12.9c2.1-9.6,4.8-21.4,7.4-33.3c1.4-6.4,2.9-12.8,4.3-19.2
		C247.7,9,255.3,3,268.4,1.7c9.2-0.9,17.3,4.1,21.2,14c3.5,8.7,8.4,15.5,17.3,19.5c5.8,2.6,9.3,7.6,10.2,14.2
		c0.9,7.3,5.9,11.5,12.1,14.4c2.9,1.4,5.9,2.6,8.8,3.9c7.6,3.5,11.8,9.7,13.3,17.7c2.3,11.8-3.6,19.8-17.1,22.6
		c-18.5,3.8-37,7.4-55.5,11C278,119.2,277.3,119.2,275.9,119.3z"/>
	<path class="st1" d="M35.3,267.5c10.2,9,18.9,16.8,28.6,25.5c-11.4,9.9-22,19-32.9,28.5c-5.6-4.9-10.4-9.1-15.8-13.8
		C21.8,294.5,28.1,281.8,35.3,267.5z"/>
	<path class="st1" d="M228.8,112.3c-0.7,1.9-1.1,4.5-2.5,6.3c-5.2,6.5-10.2,13.2-16.2,18.9c-7.2,6.8-15,13-22.9,18.9
		c-3.1,2.3-7.1,3.7-10.9,4.6c-1.9,0.5-5.2-0.3-6.3-1.8c-1.1-1.4-0.8-4.7,0-6.6c1.5-3.3,3.5-6.5,5.9-9.2
		c12.5-13.9,27.9-23.8,44.5-32.1C222.8,110.1,225.6,108.6,228.8,112.3z"/>
	<path class="st1" d="M206.9,96.2c-2.4,0.8-4.7,1.9-7.1,2.2c-8.7,1.4-17.4,2.3-26,3.7c-12.3,2.1-22.9,7.8-32.5,15.5
		c-2.8,2.3-5.9,4.2-8.5,5.9c-4.6-1.3-4.8-4-3.8-7.1c3.5-11.2,11.8-18.2,21.7-23.1c16.4-8.1,33.6-8.3,50.8-2.9c2,0.6,3.7,2.4,5.6,3.6
		C207,94.8,207,95.5,206.9,96.2z"/>
	<path class="st1" d="M243.6,131.8c0.8,1.7,2,3.3,2.2,5c1.6,17.3,1,34.2-9.7,49.1c-4.3,6-9.6,10.8-16.6,13.2c-2.2,0.8-5.2-0.6-7.9-1
		c0.4-2.5,0-5.8,1.5-7.3c14-14.7,20.1-33,24.4-52.3c0.6-2.6,2.5-4.9,3.8-7.3C242.1,131.4,242.8,131.6,243.6,131.8z"/>
	<path class="st1" d="M78.2,308.9c-11.7,4.7-22.3,9-32.8,13.3c-0.2-0.4-0.5-0.7-0.7-1.1c8.1-7.5,16.1-15,24.5-22.9
		C72.2,301.9,74.8,305,78.2,308.9z"/>
	<path class="st0" d="M277.4,160.4c-2.6-16.1-7.3-31.2-19.5-42.9c-5.9-5.7-11.5-11.6-17.4-17.3c-9.8-9.4-18.9-19.5-31.6-25.4
		c-26-12-51-11.1-75.4,4.4c-17.1,10.9-28.4,26.6-37.3,44.2C65.2,184.7,34.4,246,3.5,307.3c-0.8,1.5-1.2,3.2-1.7,4.5
		c0.5,0.9,0.6,1.4,0.9,1.7c9,8.4,17.9,16.9,27.2,25c1.6,1.4,5.2,1.4,7.4,0.7c4.5-1.6,8.7-4,13-6.2c45.5-23.1,91.1-46.1,136.6-69.2
		c20.7-10.5,41.8-20.1,60.5-34.3C270.3,212,282.2,189.9,277.4,160.4z M36.8,326.2l-5.6-4.8c-0.1,0-0.1,0.1-0.2,0.1
		c-5.6-4.9-10.4-9.1-15.8-13.8c1.8-3.5,3.5-7.1,5.3-10.6l4-8c0.6-1.2,1.2-2.3,1.7-3.5l5.6-11.3c1.1-2.2,2.2-4.4,3.4-6.7
		c0,0,35.8,27.8,42.9,41.5L36.8,326.2z M132.8,123.6c-4.6-1.3-4.8-4-3.8-7.1c3.5-11.2,11.8-18.2,21.7-23.1
		c16.4-8.1,33.6-8.3,50.8-2.9c2,0.6,3.7,2.4,5.6,3.6c0,0.7-0.1,1.4-0.1,2c-2.4,0.8-4.7,1.9-7.1,2.2c-8.7,1.4-17.4,2.3-26,3.7
		c-12.3,2.1-22.9,7.8-32.5,15.5C138.4,119.9,135.4,121.8,132.8,123.6z M187.1,156.4c-3.1,2.3-7.1,3.7-10.9,4.6
		c-1.9,0.5-5.2-0.3-6.3-1.8c-1.1-1.4-0.8-4.7,0-6.6c1.5-3.3,3.5-6.5,5.9-9.2c12.5-13.9,27.9-23.8,44.5-32.1c2.5-1.2,5.3-2.7,8.5,1
		c-0.7,1.9-1.1,4.5-2.5,6.3c-5.2,6.5-10.2,13.2-16.2,18.9C202.9,144.3,195,150.4,187.1,156.4z M236.2,185.8
		c-3.4,4.8-7.9,9.8-13.5,12.1c-4.9,2-16.4,0-9.5-7.2c14-14.7,20.1-33,24.4-52.3c0.6-2.6,2.5-4.9,3.8-7.3c0.8,0.2,1.5,0.4,2.3,0.5
		c0.8,1.7,2,3.3,2.2,5C247.4,154,246.8,170.9,236.2,185.8z"/>
</g>
</svg>
