<?xml version="1.0" encoding="utf-8"?>
<!-- Generator: Adobe Illustrator 19.0.0, SVG Export Plug-In . SVG Version: 6.00 Build 0)  -->
<svg version="1.1" id="Layer_1" focusable="false" xmlns="http://www.w3.org/2000/svg" xmlns:xlink="http://www.w3.org/1999/xlink"
	 x="0px" y="0px" viewBox="-466 269 27 24" style="enable-background:new -466 269 27 24;" xml:space="preserve">
<style type="text/css">
	.st0{fill:none;stroke:#6AA547;stroke-width:1.5;stroke-dasharray:0,0;}
</style>
<g>
	<g>
		<g>
			<g>
				<path class="st0" d="M-466,269h5l4.8,12.9l-1.8,4h15.9"/>
				<path class="st0" d="M-459.8,272.1h20.3l-2.6,9.7h-14.2"/>
				<path class="st0" d="M-455.4,292.3c-1.3,0-2.3-1.1-2.3-2.4c0-1.3,1-2.4,2.3-2.4c1.3,0,2.3,1.1,2.3,2.4
					C-453.1,291.3-454.1,292.3-455.4,292.3L-455.4,292.3z M-446.4,292.3c-1.3,0-2.3-1.1-2.3-2.4c0-1.3,1-2.4,2.3-2.4
					c1.3,0,2.3,1.1,2.3,2.4C-444.1,291.3-445.1,292.3-446.4,292.3L-446.4,292.3z M-458,276.9h17.2 M-452.4,272.1v9.7 M-446.8,272.1
					v9.7"/>
			</g>
		</g>
	</g>
</g>
</svg>
