<?xml version="1.0" encoding="utf-8"?>
<!-- Generator: Adobe Illustrator 19.0.0, SVG Export Plug-In . SVG Version: 6.00 Build 0)  -->
<svg version="1.1" id="Layer_1" xmlns="http://www.w3.org/2000/svg" xmlns:xlink="http://www.w3.org/1999/xlink" x="0px" y="0px"
	 viewBox="0 0 353.3 346.7" style="enable-background:new 0 0 353.3 346.7;" xml:space="preserve">
<style type="text/css">
	.st0{fill:#6BA544;}
</style>
<path class="st0" d="M257.5,152.4c-0.6,3.9-1.9,6.4-6.5,7.5c-17.9,3.9-35.5,9.1-51.8,17.8c-22,11.7-37.4,29.3-45.3,52.8
	c-5.3,15.7-9,31.8-13.2,47.8c-1.4,5.4-4.3,8.5-9.2,8.6c-5.1,0-8.1-3-9.1-9.1c-3-18.3-8.1-36.1-15.3-53.2
	c-9.9-23.7-27.3-40.4-50.7-50.2c-14.4-5.9-29.5-10-44.4-14.6c-4.5-1.4-6.9-3.9-6.6-8.5c0.2-4.4,2.3-6.8,6.9-7.7
	c17.9-3.7,35-9.5,51.3-17.9c23.2-12,38.8-30.6,46.8-55.1c5.2-15.9,8.7-32.3,12.8-48.5c1.1-4.5,3.8-6.9,8.9-6.9c5,0,7.2,2.2,8.5,7.2
	c4.5,17.6,8.2,35.4,14,52.6c8.3,24.2,24.9,41.5,48.2,52.4c15.5,7.3,31.5,12.9,48.3,16.3C255.1,144.5,257.6,147.9,257.5,152.4z
	 M66.7,151.8c18.2,4.9,31.8,14.5,43.3,27.7c11.4,13.1,18.3,28.4,23.7,46.2c5.1-18,11.4-33.6,22.8-46.8
	c11.5-13.2,25.5-22.4,43.7-27.2c-36.7-11-55.6-36.9-66.5-70.5C122.7,115.3,102.2,139.7,66.7,151.8z"/>
<path class="st0" d="M262.8,208.6c3.9,0.3,5.2,2.6,5.2,5.8c0.4,27.1,25.6,53.3,50.9,58.9c2.8,0.6,5.6,1.2,8.5,1.3
	c3.3,0.1,5.3,1.6,5.4,4.7c0.2,3.3-2,4.6-5.2,4.9c-12.3,1.1-23.8,4.4-33.9,11.8c-15,11.1-23.7,26-25.7,44.6c-0.4,3.5-1.5,6.1-5.1,6.3
	c-3.5,0.2-4.6-2.3-5-5.6c-3.2-28.2-21.7-51.4-53.1-56.4c-2.8-0.4-5.7-0.7-8.5-0.9c-3.1-0.2-5.4-1.3-5.4-4.7c0-3.5,2.3-4.3,5.4-4.5
	c28.4-1.9,50.8-19.4,59.2-46.5c1.4-4.5,1.8-9.4,2.2-14.1C258.2,210.7,259.5,208.7,262.8,208.6z"/>
<path class="st0" d="M260.2,101.2c-3.6-16.8-13-29.8-27.7-38.8c-4.5-2.8-10-4-14.9-6.3c-1.8-0.9-4.1-2.5-4.5-4.3
	c-0.8-3.1,1.8-4.2,4.5-4.9c20-5.5,33.7-17.9,40.5-37.7c0.4-1.2,0.7-2.4,1-3.7c1.2-5.8,3.6-6.7,8.6-3.4c5.9,24.4,20.7,39.9,45.3,45.7
	c0.3,0.4,0.7,0.7,0.9,1.1c0.4,0.9,0.7,1.8,1.4,3.5c-1.6,1.1-3.1,2.9-4.9,3.4c-16.2,4.5-28.6,13.8-36.5,28.6
	c-2.3,4.3-3.7,9.1-5.2,13.8C267,103.4,265.1,104.2,260.2,101.2z"/>
<path class="st0" d="M60.9,290.6c-9.3,0-16.5-6.8-16.5-15.6c0-9.8,7.3-17.4,16.6-17.3c9.3,0.1,16.6,7.8,16.5,17.5
	C77.4,284,70.2,290.7,60.9,290.6z"/>
<path class="st0" d="M298.8,125c7.8,0,13.5,5.4,13.6,12.9c0,7.6-5.6,13.1-13.3,13.1c-7.6,0-13.2-5.4-13.2-12.7
	C285.7,130.5,291,125.1,298.8,125z"/>
</svg>
