<?xml version="1.0" encoding="utf-8"?>
<!-- Generator: Adobe Illustrator 19.0.0, SVG Export Plug-In . SVG Version: 6.00 Build 0)  -->
<svg version="1.1" id="Layer_1" xmlns="http://www.w3.org/2000/svg" xmlns:xlink="http://www.w3.org/1999/xlink" x="0px" y="0px"
	 viewBox="0 0 809.8 529.8" style="enable-background:new 0 0 809.8 529.8;" xml:space="preserve">
<style type="text/css">
	.st0{fill:#17AA18;}
	.st1{fill:#FF25A0;}
	.st2{fill:#FFDB02;}
	.st3{fill:#00B7F7;}
</style>
<g id="XMLID_1_">
	<path id="XMLID_19_" class="st0" d="M-5.3,37c1.4-0.3,2.8,0.5,3,1.7l2,10.8c0.2,1.2-0.8,2.4-2.2,2.6l0,0c-1.4,0.3-2.8-0.5-3-1.7
		l-2-10.8C-7.7,38.5-6.7,37.3-5.3,37L-5.3,37z"/>
	<path id="XMLID_18_" class="st1" d="M-13.8,4.8c0.5-1.3,1.9-1.8,2.9-1.2l9.8,6c1.1,0.7,1.5,2.2,1,3.5l0,0c-0.5,1.3-1.9,1.8-2.9,1.2
		l-9.8-6C-13.9,7.6-14.3,6-13.8,4.8L-13.8,4.8z"/>
	<path id="XMLID_17_" class="st2" d="M-16.3-22.6c-0.5-1.3-0.1-2.9,1-3.5l9.9-5.7c1.1-0.6,2.4-0.1,2.9,1.2l0,0
		c0.5,1.3,0.1,2.9-1,3.5l-9.9,5.7C-14.5-20.7-15.8-21.3-16.3-22.6L-16.3-22.6z"/>
	<path id="XMLID_16_" class="st3" d="M50.6,20.8c0-1.4,1-2.6,2.2-2.6h11c1.2,0,2.2,1.2,2.2,2.6l0,0c0,1.4-1,2.6-2.2,2.6h-11
		C51.6,23.4,50.6,22.2,50.6,20.8L50.6,20.8z"/>
	<path id="XMLID_15_" class="st1" d="M28.8,24.5c0.5-1.3,1.9-1.8,2.9-1.2l9.8,6c1.1,0.7,1.5,2.2,1,3.5l0,0c-0.5,1.3-1.9,1.8-2.9,1.2
		l-9.8-6C28.7,27.3,28.2,25.8,28.8,24.5L28.8,24.5z"/>
	<path id="XMLID_14_" class="st0" d="M105,26.4c1.1-0.9,2.6-1,3.4-0.1l7.2,8.3c0.8,0.9,0.5,2.4-0.5,3.4l0,0c-1.1,0.9-2.6,1-3.4,0.1
		l-7.2-8.3C103.6,28.9,103.9,27.3,105,26.4L105,26.4z"/>
	<path id="XMLID_13_" class="st1" d="M42.7-8.7c0.5-1.3,1.9-1.8,2.9-1.2l9.8,6c1.1,0.7,1.5,2.2,1,3.5l0,0c-0.5,1.3-1.9,1.8-2.9,1.2
		l-9.8-6C42.5-5.9,42.1-7.4,42.7-8.7L42.7-8.7z"/>
	<path id="XMLID_12_" class="st2" d="M59.9-39.9c0.6-1.2,1.9-1.7,3-0.9l9.5,6.7c1,0.7,1.4,2.3,0.8,3.6l0,0c-0.6,1.2-1.9,1.7-3,0.9
		l-9.5-6.7C59.6-37.1,59.2-38.7,59.9-39.9L59.9-39.9z"/>
	<path id="XMLID_11_" class="st0" d="M45,59.6c1.4-0.3,2.8,0.5,3,1.7l2,10.8c0.2,1.2-0.8,2.4-2.2,2.6l0,0c-1.4,0.3-2.8-0.5-3-1.7
		l-2-10.8C42.6,61.1,43.6,59.9,45,59.6L45,59.6z"/>
	<path id="XMLID_10_" class="st1" d="M77,70.8c0.5-1.3,1.9-1.8,2.9-1.2l9.8,6c1.1,0.7,1.5,2.2,1,3.5l0,0c-0.5,1.3-1.9,1.8-2.9,1.2
		l-9.8-6C76.9,73.7,76.4,72.1,77,70.8L77,70.8z"/>
	<path id="XMLID_9_" class="st2" d="M86.9,54.2c-0.5-1.3-0.1-2.9,1-3.5l9.9-5.7c1.1-0.6,2.4-0.1,2.9,1.2l0,0c0.5,1.3,0.1,2.9-1,3.5
		l-9.9,5.7C88.7,56.1,87.5,55.5,86.9,54.2L86.9,54.2z"/>
	<path id="XMLID_8_" class="st2" d="M5.5,73.5c0.6-1.2,1.9-1.7,3-0.9l9.5,6.7c1,0.7,1.4,2.3,0.8,3.6l0,0c-0.6,1.2-1.9,1.7-3,0.9
		l-9.5-6.7C5.2,76.3,4.9,74.7,5.5,73.5L5.5,73.5z"/>
	<path id="XMLID_7_" class="st2" d="M12.2,42.4c-1.1-0.7-1.5-2.2-0.9-3.5l5.1-11.7c0.6-1.3,1.9-1.8,2.9-1.1l0,0
		c1.1,0.7,1.5,2.2,0.9,3.5l-5.1,11.7C14.6,42.6,13.3,43.1,12.2,42.4L12.2,42.4z"/>
	<path id="XMLID_6_" class="st0" d="M136,69.1c1.4,0.2,2.3,1.3,2,2.5l-2.6,11c-0.3,1.2-1.7,2-3.1,1.9l0,0c-1.4-0.2-2.3-1.3-2-2.5
		l2.6-11C133.3,69.8,134.6,68.9,136,69.1L136,69.1z"/>
	<path id="XMLID_5_" class="st3" d="M-60.7,9c-0.6-1.3-0.2-2.9,0.8-3.6l9.5-6.6c1-0.7,2.4-0.3,3,1l0,0c0.6,1.3,0.2,2.9-0.8,3.6
		l-9.5,6.6C-58.8,10.6-60.1,10.2-60.7,9L-60.7,9z"/>
	<path id="XMLID_4_" class="st1" d="M-68.5,85.5c-0.3-1.4,0.5-2.8,1.7-3.1l10.8-2.8c1.2-0.3,2.3,0.6,2.6,2l0,0
		c0.3,1.4-0.5,2.8-1.7,3.1l-10.8,2.8C-67.1,87.8-68.3,86.9-68.5,85.5L-68.5,85.5z"/>
	<path id="XMLID_3_" class="st2" d="M-60.1,45.2c0.6-1.3,1.9-1.7,3-1l9.5,6.6c1,0.7,1.4,2.3,0.8,3.6l0,0c-0.6,1.3-1.9,1.7-3,1
		l-9.5-6.6C-60.3,48-60.7,46.4-60.1,45.2L-60.1,45.2z"/>
</g>
<g id="XMLID_21_">
	<path id="XMLID_38_" class="st0" d="M115.7,150.4c1.4-0.3,2.8,0.5,3,1.7l2,10.8c0.2,1.2-0.8,2.4-2.2,2.6l0,0
		c-1.4,0.3-2.8-0.5-3-1.7l-2-10.8C113.3,151.9,114.3,150.7,115.7,150.4L115.7,150.4z"/>
	<path id="XMLID_37_" class="st1" d="M107.2,118.2c0.5-1.3,1.9-1.8,2.9-1.2l9.8,6c1.1,0.7,1.5,2.2,1,3.5l0,0
		c-0.5,1.3-1.9,1.8-2.9,1.2l-9.8-6C107.1,121,106.7,119.4,107.2,118.2L107.2,118.2z"/>
	<path id="XMLID_36_" class="st2" d="M104.7,90.8c-0.5-1.3-0.1-2.9,1-3.5l9.9-5.7c1.1-0.6,2.4-0.1,2.9,1.2l0,0
		c0.5,1.3,0.1,2.9-1,3.5l-9.9,5.7C106.5,92.7,105.2,92.1,104.7,90.8L104.7,90.8z"/>
	<path id="XMLID_35_" class="st3" d="M171.6,134.2c0-1.4,1-2.6,2.2-2.6h11c1.2,0,2.2,1.2,2.2,2.6l0,0c0,1.4-1,2.6-2.2,2.6h-11
		C172.6,136.8,171.6,135.6,171.6,134.2L171.6,134.2z"/>
	<path id="XMLID_34_" class="st1" d="M149.8,137.9c0.5-1.3,1.9-1.8,2.9-1.2l9.8,6c1.1,0.7,1.5,2.2,1,3.5l0,0
		c-0.5,1.3-1.9,1.8-2.9,1.2l-9.8-6C149.7,140.7,149.2,139.2,149.8,137.9L149.8,137.9z"/>
	<path id="XMLID_33_" class="st0" d="M226,139.8c1.1-0.9,2.6-1,3.4-0.1l7.2,8.3c0.8,0.9,0.5,2.4-0.5,3.4l0,0c-1.1,0.9-2.6,1-3.4,0.1
		l-7.2-8.3C224.6,142.3,224.9,140.8,226,139.8L226,139.8z"/>
	<path id="XMLID_32_" class="st1" d="M163.6,104.7c0.5-1.3,1.9-1.8,2.9-1.2l9.8,6c1.1,0.7,1.5,2.2,1,3.5l0,0
		c-0.5,1.3-1.9,1.8-2.9,1.2l-9.8-6C163.5,107.5,163.1,106,163.6,104.7L163.6,104.7z"/>
	<path id="XMLID_31_" class="st2" d="M180.8,73.5c0.6-1.2,1.9-1.7,3-0.9l9.5,6.7c1,0.7,1.4,2.3,0.8,3.6l0,0c-0.6,1.2-1.9,1.7-3,0.9
		l-9.5-6.7C180.6,76.3,180.2,74.7,180.8,73.5L180.8,73.5z"/>
	<path id="XMLID_30_" class="st0" d="M166,173c1.4-0.3,2.8,0.5,3,1.7l2,10.8c0.2,1.2-0.8,2.4-2.2,2.6l0,0c-1.4,0.3-2.8-0.5-3-1.7
		l-2-10.8C163.6,174.5,164.6,173.3,166,173L166,173z"/>
	<path id="XMLID_29_" class="st1" d="M198,184.2c0.5-1.3,1.9-1.8,2.9-1.2l9.8,6c1.1,0.7,1.5,2.2,1,3.5l0,0c-0.5,1.3-1.9,1.8-2.9,1.2
		l-9.8-6C197.8,187.1,197.4,185.5,198,184.2L198,184.2z"/>
	<path id="XMLID_28_" class="st2" d="M207.9,167.6c-0.5-1.3-0.1-2.9,1-3.5l9.9-5.7c1.1-0.6,2.4-0.1,2.9,1.2l0,0
		c0.5,1.3,0.1,2.9-1,3.5l-9.9,5.7C209.7,169.5,208.4,168.9,207.9,167.6L207.9,167.6z"/>
	<path id="XMLID_27_" class="st2" d="M126.5,186.9c0.6-1.2,1.9-1.7,3-0.9l9.5,6.7c1,0.7,1.4,2.3,0.8,3.6l0,0c-0.6,1.2-1.9,1.7-3,0.9
		l-9.5-6.7C126.2,189.7,125.9,188.1,126.5,186.9L126.5,186.9z"/>
	<path id="XMLID_26_" class="st2" d="M133.2,155.8c-1.1-0.7-1.5-2.2-0.9-3.5l5.1-11.7c0.6-1.3,1.9-1.8,2.9-1.1l0,0
		c1.1,0.7,1.5,2.2,0.9,3.5l-5.1,11.7C135.6,156,134.2,156.5,133.2,155.8L133.2,155.8z"/>
	<path id="XMLID_25_" class="st0" d="M257,182.5c1.4,0.2,2.3,1.3,2,2.5l-2.6,11c-0.3,1.2-1.7,2-3.1,1.9l0,0c-1.4-0.2-2.3-1.3-2-2.5
		l2.6-11C254.3,183.2,255.6,182.3,257,182.5L257,182.5z"/>
	<path id="XMLID_24_" class="st3" d="M60.3,122.4c-0.6-1.3-0.2-2.9,0.8-3.6l9.5-6.6c1-0.7,2.4-0.3,3,1l0,0c0.6,1.3,0.2,2.9-0.8,3.6
		l-9.5,6.6C62.2,124,60.9,123.6,60.3,122.4L60.3,122.4z"/>
	<path id="XMLID_23_" class="st1" d="M52.5,198.9c-0.3-1.4,0.5-2.8,1.7-3.1l10.8-2.8c1.2-0.3,2.3,0.6,2.6,2l0,0
		c0.3,1.4-0.5,2.8-1.7,3.1l-10.8,2.8C53.9,201.2,52.7,200.3,52.5,198.9L52.5,198.9z"/>
	<path id="XMLID_22_" class="st2" d="M60.9,158.6c0.6-1.3,1.9-1.7,3-1l9.5,6.6c1,0.7,1.4,2.3,0.8,3.6l0,0c-0.6,1.3-1.9,1.7-3,1
		l-9.5-6.6C60.7,161.4,60.3,159.8,60.9,158.6L60.9,158.6z"/>
</g>
<g id="XMLID_56_">
	<path id="XMLID_73_" class="st0" d="M218.9,404.9c-1.4,0.3-2.8-0.5-3-1.7l-2-10.8c-0.2-1.2,0.8-2.4,2.2-2.6l0,0
		c1.4-0.3,2.8,0.5,3,1.7l2,10.8C221.3,403.5,220.3,404.6,218.9,404.9L218.9,404.9z"/>
	<path id="XMLID_72_" class="st1" d="M227.4,437.2c-0.5,1.3-1.9,1.8-2.9,1.2l-9.8-6c-1.1-0.7-1.5-2.2-1-3.5l0,0
		c0.5-1.3,1.9-1.8,2.9-1.2l9.8,6C227.5,434.3,227.9,435.9,227.4,437.2L227.4,437.2z"/>
	<path id="XMLID_71_" class="st2" d="M229.9,464.5c0.5,1.3,0.1,2.9-1,3.5l-9.9,5.7c-1.1,0.6-2.4,0.1-2.9-1.2l0,0
		c-0.5-1.3-0.1-2.9,1-3.5l9.9-5.7C228.1,462.7,229.4,463.2,229.9,464.5L229.9,464.5z"/>
	<path id="XMLID_70_" class="st3" d="M163,421.2c0,1.4-1,2.6-2.2,2.6h-11c-1.2,0-2.2-1.2-2.2-2.6l0,0c0-1.4,1-2.6,2.2-2.6h11
		C162,418.6,163,419.7,163,421.2L163,421.2z"/>
	<path id="XMLID_69_" class="st1" d="M184.8,417.5c-0.5,1.3-1.9,1.8-2.9,1.2l-9.8-6c-1.1-0.7-1.5-2.2-1-3.5l0,0
		c0.5-1.3,1.9-1.8,2.9-1.2l9.8,6C184.9,414.6,185.4,416.2,184.8,417.5L184.8,417.5z"/>
	<path id="XMLID_68_" class="st0" d="M108.6,415.5c-1.1,0.9-2.6,1-3.4,0.1l-7.2-8.3c-0.8-0.9-0.5-2.4,0.5-3.4l0,0
		c1.1-0.9,2.6-1,3.4-0.1l7.2,8.3C110,413.1,109.7,414.6,108.6,415.5L108.6,415.5z"/>
	<path id="XMLID_67_" class="st1" d="M171,450.7c-0.5,1.3-1.9,1.8-2.9,1.2l-9.8-6c-1.1-0.7-1.5-2.2-1-3.5l0,0
		c0.5-1.3,1.9-1.8,2.9-1.2l9.8,6C171.1,447.8,171.5,449.4,171,450.7L171,450.7z"/>
	<path id="XMLID_66_" class="st2" d="M153.8,481.9c-0.6,1.2-1.9,1.7-3,0.9l-9.5-6.7c-1-0.7-1.4-2.3-0.8-3.6l0,0
		c0.6-1.2,1.9-1.7,3-0.9l9.5,6.7C154,479,154.4,480.6,153.8,481.9L153.8,481.9z"/>
	<path id="XMLID_65_" class="st0" d="M168.6,382.3c-1.4,0.3-2.8-0.5-3-1.7l-2-10.8c-0.2-1.2,0.8-2.4,2.2-2.6l0,0
		c1.4-0.3,2.8,0.5,3,1.7l2,10.8C171,380.9,170,382.1,168.6,382.3L168.6,382.3z"/>
	<path id="XMLID_64_" class="st1" d="M136.6,371.1c-0.5,1.3-1.9,1.8-2.9,1.2l-9.8-6c-1.1-0.7-1.5-2.2-1-3.5l0,0
		c0.5-1.3,1.9-1.8,2.9-1.2l9.8,6C136.8,368.2,137.2,369.8,136.6,371.1L136.6,371.1z"/>
	<path id="XMLID_63_" class="st2" d="M126.7,387.7c0.5,1.3,0.1,2.9-1,3.5l-9.9,5.7c-1.1,0.6-2.4,0.1-2.9-1.2l0,0
		c-0.5-1.3-0.1-2.9,1-3.5l9.9-5.7C124.9,385.8,126.2,386.4,126.7,387.7L126.7,387.7z"/>
	<path id="XMLID_62_" class="st2" d="M208.1,368.4c-0.6,1.2-1.9,1.7-3,0.9l-9.5-6.7c-1-0.7-1.4-2.3-0.8-3.6l0,0
		c0.6-1.2,1.9-1.7,3-0.9l9.5,6.7C208.4,365.6,208.7,367.2,208.1,368.4L208.1,368.4z"/>
	<path id="XMLID_61_" class="st2" d="M201.4,399.5c1.1,0.7,1.5,2.2,0.9,3.5l-5.1,11.7c-0.6,1.3-1.9,1.8-2.9,1.1l0,0
		c-1.1-0.7-1.5-2.2-0.9-3.5l5.1-11.7C199,399.3,200.4,398.8,201.4,399.5L201.4,399.5z"/>
	<path id="XMLID_60_" class="st0" d="M77.6,372.8c-1.4-0.2-2.3-1.3-2-2.5l2.6-11c0.3-1.2,1.7-2,3.1-1.9l0,0c1.4,0.2,2.3,1.3,2,2.5
		l-2.6,11C80.3,372.1,79,373,77.6,372.8L77.6,372.8z"/>
	<path id="XMLID_59_" class="st3" d="M274.3,433c0.6,1.3,0.2,2.9-0.8,3.6l-9.5,6.6c-1,0.7-2.4,0.3-3-1l0,0c-0.6-1.3-0.2-2.9,0.8-3.6
		l9.5-6.6C272.4,431.3,273.7,431.7,274.3,433L274.3,433z"/>
	<path id="XMLID_58_" class="st1" d="M282.1,356.4c0.3,1.4-0.5,2.8-1.7,3.1l-10.8,2.8c-1.2,0.3-2.3-0.6-2.6-2l0,0
		c-0.3-1.4,0.5-2.8,1.7-3.1l10.8-2.8C280.7,354.1,281.9,355,282.1,356.4L282.1,356.4z"/>
	<path id="XMLID_57_" class="st2" d="M273.7,396.8c-0.6,1.3-1.9,1.7-3,1l-9.5-6.6c-1-0.7-1.4-2.3-0.8-3.6l0,0c0.6-1.3,1.9-1.7,3-1
		l9.5,6.6C273.9,393.9,274.3,395.5,273.7,396.8L273.7,396.8z"/>
</g>
<g id="XMLID_267_">
	<path id="XMLID_284_" class="st0" d="M323.9,470.5c-1.2-0.8-1.6-2.3-0.9-3.3l6.3-9.1c0.7-1,2.2-1.1,3.4-0.3l0,0
		c1.2,0.8,1.6,2.3,0.9,3.3l-6.3,9.1C326.6,471.1,325.1,471.3,323.9,470.5L323.9,470.5z"/>
	<path id="XMLID_283_" class="st1" d="M306.9,499.2c-1.3,0.5-2.6,0-2.9-1.3l-2.7-11.2c-0.3-1.2,0.5-2.6,1.8-3.2l0,0
		c1.3-0.5,2.6,0,2.9,1.3l2.7,11.2C309.1,497.3,308.2,498.7,306.9,499.2L306.9,499.2z"/>
	<path id="XMLID_282_" class="st2" d="M289.3,520.2c-0.6,1.3-2,2.1-3.2,1.7l-11-3c-1.2-0.3-1.7-1.6-1.2-2.9l0,0
		c0.6-1.3,2-2.1,3.2-1.7l11,3C289.3,517.6,289.9,519,289.3,520.2L289.3,520.2z"/>
	<path id="XMLID_281_" class="st3" d="M273,442.2c-1,1-2.5,1.2-3.4,0.3l-7.8-7.8c-0.8-0.9-0.7-2.4,0.3-3.4l0,0c1-1,2.5-1.2,3.4-0.3
		l7.8,7.8C274.1,439.7,274,441.2,273,442.2L273,442.2z"/>
	<path id="XMLID_280_" class="st1" d="M291,455.1c-1.3,0.5-2.6,0-2.9-1.3l-2.7-11.2c-0.3-1.2,0.5-2.6,1.8-3.2l0,0
		c1.3-0.5,2.6,0,2.9,1.3l2.7,11.2C293.1,453.2,292.3,454.6,291,455.1L291,455.1z"/>
	<path id="XMLID_279_" class="st0" d="M238.7,399.7c-1.4-0.1-2.5-1.2-2.5-2.4l0.8-11c0.1-1.2,1.3-2.1,2.8-2l0,0
		c1.4,0.1,2.5,1.2,2.5,2.4l-0.8,11C241.4,398.9,240.1,399.8,238.7,399.7L238.7,399.7z"/>
	<path id="XMLID_278_" class="st1" d="M257.6,468.7c-1.3,0.5-2.6,0-2.9-1.3l-2.7-11.2c-0.3-1.2,0.5-2.6,1.8-3.2l0,0
		c1.3-0.5,2.6,0,2.9,1.3l2.7,11.2C259.7,466.7,258.9,468.1,257.6,468.7L257.6,468.7z"/>
	<path id="XMLID_277_" class="st2" d="M223.4,478.4c-1.3,0.4-2.5-0.2-2.8-1.5l-1.9-11.5c-0.2-1.3,0.7-2.6,2-3.1l0,0
		c1.3-0.4,2.5,0.2,2.8,1.5l1.9,11.5C225.6,476.6,224.7,478,223.4,478.4L223.4,478.4z"/>
	<path id="XMLID_276_" class="st0" d="M304.5,418.9c-1.2-0.8-1.6-2.3-0.9-3.3l6.3-9.1c0.7-1,2.2-1.1,3.4-0.3l0,0
		c1.2,0.8,1.6,2.3,0.9,3.3l-6.3,9.1C307.2,419.5,305.7,419.7,304.5,418.9L304.5,418.9z"/>
	<path id="XMLID_275_" class="st1" d="M289.9,388.3c-1.3,0.5-2.6,0-2.9-1.3l-2.7-11.2c-0.3-1.2,0.5-2.6,1.8-3.2l0,0
		c1.3-0.5,2.6,0,2.9,1.3l2.7,11.2C292,386.3,291.2,387.7,289.9,388.3L289.9,388.3z"/>
	<path id="XMLID_274_" class="st2" d="M271.1,392.9c-0.6,1.3-2,2.1-3.2,1.7l-11-3c-1.2-0.3-1.7-1.6-1.2-2.9l0,0
		c0.6-1.3,2-2.1,3.2-1.7l11,3C271.2,390.3,271.7,391.6,271.1,392.9L271.1,392.9z"/>
	<path id="XMLID_273_" class="st2" d="M342.1,437.1c-1.3,0.4-2.5-0.2-2.8-1.5l-1.9-11.5c-0.2-1.3,0.7-2.6,2-3.1l0,0
		c1.3-0.4,2.5,0.2,2.8,1.5l1.9,11.5C344.4,435.3,343.5,436.7,342.1,437.1L342.1,437.1z"/>
	<path id="XMLID_272_" class="st2" d="M315.4,454.2c0.3,1.2-0.5,2.6-1.9,3.1l-11.9,4.7c-1.3,0.5-2.6-0.1-2.9-1.3l0,0
		c-0.3-1.2,0.5-2.6,1.9-3.1l11.9-4.7C313.9,452.4,315.1,453,315.4,454.2L315.4,454.2z"/>
	<path id="XMLID_271_" class="st0" d="M247.1,347.5c-0.9-1.1-0.7-2.5,0.3-3.2l9.6-5.9c1.1-0.6,2.6-0.3,3.5,0.8l0,0
		c0.9,1.1,0.7,2.5-0.3,3.2l-9.6,5.9C249.5,349,248,348.7,247.1,347.5L247.1,347.5z"/>
	<path id="XMLID_270_" class="st3" d="M343,529.6c-0.5,1.3-1.9,2.2-3.1,1.9l-11.4-2.1c-1.2-0.2-1.9-1.5-1.4-2.8l0,0
		c0.5-1.3,1.9-2.2,3.1-1.9l11.4,2.1C342.8,527,343.5,528.3,343,529.6L343,529.6z"/>
	<path id="XMLID_269_" class="st1" d="M402.8,481.2c-0.8,1.2-2.3,1.6-3.4,1l-9.5-5.7c-1-0.6-1.2-2.1-0.4-3.3l0,0
		c0.8-1.2,2.3-1.6,3.4-1l9.5,5.7C403.5,478.5,403.7,480,402.8,481.2L402.8,481.2z"/>
	<path id="XMLID_268_" class="st2" d="M368.3,503.6c-1.3,0.5-2.6-0.2-2.8-1.4l-2-11.4c-0.2-1.3,0.7-2.6,2-3.1l0,0
		c1.3-0.5,2.6,0.2,2.8,1.4l2,11.4C370.5,501.8,369.6,503.2,368.3,503.6L368.3,503.6z"/>
</g>
<g id="XMLID_20_">
	<path id="XMLID_55_" class="st0" d="M121.6,473.5c-1.4,0.3-2.8-0.5-3-1.7l-2-10.8c-0.2-1.2,0.8-2.4,2.2-2.6l0,0
		c1.4-0.3,2.8,0.5,3,1.7l2,10.8C124,472.1,123,473.2,121.6,473.5L121.6,473.5z"/>
	<path id="XMLID_54_" class="st1" d="M130,505.8c-0.5,1.3-1.9,1.8-2.9,1.2l-9.8-6c-1.1-0.7-1.5-2.2-1-3.5l0,0
		c0.5-1.3,1.9-1.8,2.9-1.2l9.8,6C130.2,502.9,130.6,504.5,130,505.8L130,505.8z"/>
	<path id="XMLID_53_" class="st2" d="M132.6,533.1c0.5,1.3,0.1,2.9-1,3.5l-9.9,5.7c-1.1,0.6-2.4,0.1-2.9-1.2l0,0
		c-0.5-1.3-0.1-2.9,1-3.5l9.9-5.7C130.7,531.3,132,531.8,132.6,533.1L132.6,533.1z"/>
	<path id="XMLID_52_" class="st3" d="M65.7,489.8c0,1.4-1,2.6-2.2,2.6h-11c-1.2,0-2.2-1.2-2.2-2.6l0,0c0-1.4,1-2.6,2.2-2.6h11
		C64.7,487.2,65.7,488.3,65.7,489.8L65.7,489.8z"/>
	<path id="XMLID_51_" class="st1" d="M87.5,486.1c-0.5,1.3-1.9,1.8-2.9,1.2l-9.8-6c-1.1-0.7-1.5-2.2-1-3.5l0,0
		c0.5-1.3,1.9-1.8,2.9-1.2l9.8,6C87.6,483.2,88,484.8,87.5,486.1L87.5,486.1z"/>
	<path id="XMLID_50_" class="st0" d="M11.3,484.1c-1.1,0.9-2.6,1-3.4,0.1l-7.2-8.3c-0.8-0.9-0.5-2.4,0.5-3.4l0,0
		c1.1-0.9,2.6-1,3.4-0.1l7.2,8.3C12.7,481.7,12.4,483.2,11.3,484.1L11.3,484.1z"/>
	<path id="XMLID_49_" class="st1" d="M73.6,519.3c-0.5,1.3-1.9,1.8-2.9,1.2l-9.8-6c-1.1-0.7-1.5-2.2-1-3.5l0,0
		c0.5-1.3,1.9-1.8,2.9-1.2l9.8,6C73.7,516.4,74.2,518,73.6,519.3L73.6,519.3z"/>
	<path id="XMLID_48_" class="st2" d="M56.4,550.5c-0.6,1.2-1.9,1.7-3,0.9l-9.5-6.7c-1-0.7-1.4-2.3-0.8-3.6l0,0
		c0.6-1.2,1.9-1.7,3-0.9l9.5,6.7C56.7,547.6,57,549.2,56.4,550.5L56.4,550.5z"/>
	<path id="XMLID_47_" class="st0" d="M71.3,450.9c-1.4,0.3-2.8-0.5-3-1.7l-2-10.8c-0.2-1.2,0.8-2.4,2.2-2.6l0,0
		c1.4-0.3,2.8,0.5,3,1.7l2,10.8C73.7,449.5,72.7,450.7,71.3,450.9L71.3,450.9z"/>
	<path id="XMLID_46_" class="st1" d="M39.3,439.7c-0.5,1.3-1.9,1.8-2.9,1.2l-9.8-6c-1.1-0.7-1.5-2.2-1-3.5l0,0
		c0.5-1.3,1.9-1.8,2.9-1.2l9.8,6C39.4,436.9,39.9,438.4,39.3,439.7L39.3,439.7z"/>
	<path id="XMLID_45_" class="st2" d="M29.3,456.3c0.5,1.3,0.1,2.9-1,3.5l-9.9,5.7c-1.1,0.6-2.4,0.1-2.9-1.2l0,0
		c-0.5-1.3-0.1-2.9,1-3.5l9.9-5.7C27.5,454.4,28.8,455,29.3,456.3L29.3,456.3z"/>
	<path id="XMLID_44_" class="st2" d="M110.8,437.1c-0.6,1.2-1.9,1.7-3,0.9l-9.5-6.7c-1-0.7-1.4-2.3-0.8-3.6l0,0
		c0.6-1.2,1.9-1.7,3-0.9l9.5,6.7C111,434.2,111.4,435.8,110.8,437.1L110.8,437.1z"/>
	<path id="XMLID_43_" class="st2" d="M104.1,468.1c1.1,0.7,1.5,2.2,0.9,3.5l-5.1,11.7c-0.6,1.3-1.9,1.8-2.9,1.1l0,0
		c-1.1-0.7-1.5-2.2-0.9-3.5l5.1-11.7C101.7,467.9,103,467.4,104.1,468.1L104.1,468.1z"/>
	<path id="XMLID_42_" class="st0" d="M-19.8,441.4c-1.4-0.2-2.3-1.3-2-2.5l2.6-11c0.3-1.2,1.7-2,3.1-1.9l0,0c1.4,0.2,2.3,1.3,2,2.5
		l-2.6,11C-17,440.8-18.4,441.6-19.8,441.4L-19.8,441.4z"/>
	<path id="XMLID_41_" class="st3" d="M177,501.6c0.6,1.3,0.2,2.9-0.8,3.6l-9.5,6.6c-1,0.7-2.4,0.3-3-1l0,0c-0.6-1.3-0.2-2.9,0.8-3.6
		l9.5-6.6C175.1,499.9,176.4,500.3,177,501.6L177,501.6z"/>
	<path id="XMLID_40_" class="st1" d="M184.8,425c0.3,1.4-0.5,2.8-1.7,3.1l-10.8,2.8c-1.2,0.3-2.3-0.6-2.6-2l0,0
		c-0.3-1.4,0.5-2.8,1.7-3.1l10.8-2.8C183.4,422.7,184.5,423.6,184.8,425L184.8,425z"/>
	<path id="XMLID_39_" class="st2" d="M176.4,465.4c-0.6,1.3-1.9,1.7-3,1l-9.5-6.6c-1-0.7-1.4-2.3-0.8-3.6l0,0c0.6-1.3,1.9-1.7,3-1
		l9.5,6.6C176.6,462.5,177,464.1,176.4,465.4L176.4,465.4z"/>
</g>
<g id="XMLID_159_">
	<path id="XMLID_176_" class="st0" d="M337.7,475c1.4-0.3,2.8,0.5,3,1.7l2,10.8c0.2,1.2-0.8,2.4-2.2,2.6l0,0c-1.4,0.3-2.8-0.5-3-1.7
		l-2-10.8C335.3,476.5,336.3,475.3,337.7,475L337.7,475z"/>
	<path id="XMLID_175_" class="st1" d="M329.2,442.8c0.5-1.3,1.9-1.8,2.9-1.2l9.8,6c1.1,0.7,1.5,2.2,1,3.5l0,0
		c-0.5,1.3-1.9,1.8-2.9,1.2l-9.8-6C329.1,445.6,328.7,444,329.2,442.8L329.2,442.8z"/>
	<path id="XMLID_174_" class="st2" d="M326.7,415.4c-0.5-1.3-0.1-2.9,1-3.5l9.9-5.7c1.1-0.6,2.4-0.1,2.9,1.2l0,0
		c0.5,1.3,0.1,2.9-1,3.5l-9.9,5.7C328.5,417.3,327.2,416.7,326.7,415.4L326.7,415.4z"/>
	<path id="XMLID_173_" class="st3" d="M393.6,458.8c0-1.4,1-2.6,2.2-2.6h11c1.2,0,2.2,1.2,2.2,2.6l0,0c0,1.4-1,2.6-2.2,2.6h-11
		C394.6,461.4,393.6,460.2,393.6,458.8L393.6,458.8z"/>
	<path id="XMLID_172_" class="st1" d="M371.8,462.5c0.5-1.3,1.9-1.8,2.9-1.2l9.8,6c1.1,0.7,1.5,2.2,1,3.5l0,0
		c-0.5,1.3-1.9,1.8-2.9,1.2l-9.8-6C371.7,465.3,371.2,463.8,371.8,462.5L371.8,462.5z"/>
	<path id="XMLID_171_" class="st0" d="M448,464.4c1.1-0.9,2.6-1,3.4-0.1l7.2,8.3c0.8,0.9,0.5,2.4-0.5,3.4l0,0
		c-1.1,0.9-2.6,1-3.4,0.1l-7.2-8.3C446.6,466.9,446.9,465.3,448,464.4L448,464.4z"/>
	<path id="XMLID_170_" class="st1" d="M385.7,429.3c0.5-1.3,1.9-1.8,2.9-1.2l9.8,6c1.1,0.7,1.5,2.2,1,3.5l0,0
		c-0.5,1.3-1.9,1.8-2.9,1.2l-9.8-6C385.5,432.1,385.1,430.6,385.7,429.3L385.7,429.3z"/>
	<path id="XMLID_169_" class="st2" d="M402.9,398.1c0.6-1.2,1.9-1.7,3-0.9l9.5,6.7c1,0.7,1.4,2.3,0.8,3.6l0,0
		c-0.6,1.2-1.9,1.7-3,0.9l-9.5-6.7C402.6,400.9,402.2,399.3,402.9,398.1L402.9,398.1z"/>
	<path id="XMLID_168_" class="st0" d="M388,497.6c1.4-0.3,2.8,0.5,3,1.7l2,10.8c0.2,1.2-0.8,2.4-2.2,2.6l0,0c-1.4,0.3-2.8-0.5-3-1.7
		l-2-10.8C385.6,499.1,386.6,497.9,388,497.6L388,497.6z"/>
	<path id="XMLID_167_" class="st1" d="M420,508.8c0.5-1.3,1.9-1.8,2.9-1.2l9.8,6c1.1,0.7,1.5,2.2,1,3.5l0,0
		c-0.5,1.3-1.9,1.8-2.9,1.2l-9.8-6C419.9,511.7,419.4,510.1,420,508.8L420,508.8z"/>
	<path id="XMLID_166_" class="st2" d="M429.9,492.2c-0.5-1.3-0.1-2.9,1-3.5l9.9-5.7c1.1-0.6,2.4-0.1,2.9,1.2l0,0
		c0.5,1.3,0.1,2.9-1,3.5l-9.9,5.7C431.7,494.1,430.5,493.5,429.9,492.2L429.9,492.2z"/>
	<path id="XMLID_165_" class="st2" d="M348.5,511.5c0.6-1.2,1.9-1.7,3-0.9l9.5,6.7c1,0.7,1.4,2.3,0.8,3.6l0,0
		c-0.6,1.2-1.9,1.7-3,0.9l-9.5-6.7C348.2,514.3,347.9,512.7,348.5,511.5L348.5,511.5z"/>
	<path id="XMLID_164_" class="st2" d="M355.2,480.4c-1.1-0.7-1.5-2.2-0.9-3.5l5.1-11.7c0.6-1.3,1.9-1.8,2.9-1.1l0,0
		c1.1,0.7,1.5,2.2,0.9,3.5l-5.1,11.7C357.6,480.6,356.3,481.1,355.2,480.4L355.2,480.4z"/>
	<path id="XMLID_163_" class="st0" d="M479,507.1c1.4,0.2,2.3,1.3,2,2.5l-2.6,11c-0.3,1.2-1.7,2-3.1,1.9l0,0c-1.4-0.2-2.3-1.3-2-2.5
		l2.6-11C476.3,507.8,477.6,506.9,479,507.1L479,507.1z"/>
	<path id="XMLID_162_" class="st3" d="M282.3,447c-0.6-1.3-0.2-2.9,0.8-3.6l9.5-6.6c1-0.7,2.4-0.3,3,1l0,0c0.6,1.3,0.2,2.9-0.8,3.6
		l-9.5,6.6C284.2,448.6,282.9,448.2,282.3,447L282.3,447z"/>
	<path id="XMLID_161_" class="st1" d="M274.5,523.5c-0.3-1.4,0.5-2.8,1.7-3.1l10.8-2.8c1.2-0.3,2.3,0.6,2.6,2l0,0
		c0.3,1.4-0.5,2.8-1.7,3.1l-10.8,2.8C275.9,525.8,274.7,524.9,274.5,523.5L274.5,523.5z"/>
	<path id="XMLID_160_" class="st2" d="M282.9,483.2c0.6-1.3,1.9-1.7,3-1l9.5,6.6c1,0.7,1.4,2.3,0.8,3.6l0,0c-0.6,1.3-1.9,1.7-3,1
		l-9.5-6.6C282.7,486,282.3,484.4,282.9,483.2L282.9,483.2z"/>
</g>
<g id="XMLID_141_">
	<path id="XMLID_158_" class="st0" d="M534.7,435.4c1.4-0.3,2.8,0.5,3,1.7l2,10.8c0.2,1.2-0.8,2.4-2.2,2.6l0,0
		c-1.4,0.3-2.8-0.5-3-1.7l-2-10.8C532.3,436.9,533.3,435.7,534.7,435.4L534.7,435.4z"/>
	<path id="XMLID_157_" class="st1" d="M526.2,403.2c0.5-1.3,1.9-1.8,2.9-1.2l9.8,6c1.1,0.7,1.5,2.2,1,3.5l0,0
		c-0.5,1.3-1.9,1.8-2.9,1.2l-9.8-6C526.1,406,525.7,404.4,526.2,403.2L526.2,403.2z"/>
	<path id="XMLID_156_" class="st2" d="M523.7,375.8c-0.5-1.3-0.1-2.9,1-3.5l9.9-5.7c1.1-0.6,2.4-0.1,2.9,1.2l0,0
		c0.5,1.3,0.1,2.9-1,3.5l-9.9,5.7C525.5,377.7,524.2,377.1,523.7,375.8L523.7,375.8z"/>
	<path id="XMLID_155_" class="st3" d="M590.6,419.2c0-1.4,1-2.6,2.2-2.6h11c1.2,0,2.2,1.2,2.2,2.6l0,0c0,1.4-1,2.6-2.2,2.6h-11
		C591.6,421.8,590.6,420.6,590.6,419.2L590.6,419.2z"/>
	<path id="XMLID_154_" class="st1" d="M568.8,422.9c0.5-1.3,1.9-1.8,2.9-1.2l9.8,6c1.1,0.7,1.5,2.2,1,3.5l0,0
		c-0.5,1.3-1.9,1.8-2.9,1.2l-9.8-6C568.7,425.7,568.2,424.2,568.8,422.9L568.8,422.9z"/>
	<path id="XMLID_153_" class="st0" d="M645,424.8c1.1-0.9,2.6-1,3.4-0.1l7.2,8.3c0.8,0.9,0.5,2.4-0.5,3.4l0,0
		c-1.1,0.9-2.6,1-3.4,0.1l-7.2-8.3C643.6,427.3,643.9,425.8,645,424.8L645,424.8z"/>
	<path id="XMLID_152_" class="st1" d="M582.6,389.7c0.5-1.3,1.9-1.8,2.9-1.2l9.8,6c1.1,0.7,1.5,2.2,1,3.5l0,0
		c-0.5,1.3-1.9,1.8-2.9,1.2l-9.8-6C582.5,392.5,582.1,391,582.6,389.7L582.6,389.7z"/>
	<path id="XMLID_151_" class="st2" d="M599.8,358.5c0.6-1.2,1.9-1.7,3-0.9l9.5,6.7c1,0.7,1.4,2.3,0.8,3.6l0,0
		c-0.6,1.2-1.9,1.7-3,0.9l-9.5-6.7C599.6,361.3,599.2,359.7,599.8,358.5L599.8,358.5z"/>
	<path id="XMLID_150_" class="st0" d="M585,458c1.4-0.3,2.8,0.5,3,1.7l2,10.8c0.2,1.2-0.8,2.4-2.2,2.6l0,0c-1.4,0.3-2.8-0.5-3-1.7
		l-2-10.8C582.6,459.5,583.6,458.3,585,458L585,458z"/>
	<path id="XMLID_149_" class="st1" d="M617,469.2c0.5-1.3,1.9-1.8,2.9-1.2l9.8,6c1.1,0.7,1.5,2.2,1,3.5l0,0
		c-0.5,1.3-1.9,1.8-2.9,1.2l-9.8-6C616.8,472.1,616.4,470.5,617,469.2L617,469.2z"/>
	<path id="XMLID_148_" class="st2" d="M626.9,452.6c-0.5-1.3-0.1-2.9,1-3.5l9.9-5.7c1.1-0.6,2.4-0.1,2.9,1.2l0,0
		c0.5,1.3,0.1,2.9-1,3.5l-9.9,5.7C628.7,454.5,627.4,453.9,626.9,452.6L626.9,452.6z"/>
	<path id="XMLID_147_" class="st2" d="M545.5,471.9c0.6-1.2,1.9-1.7,3-0.9l9.5,6.7c1,0.7,1.4,2.3,0.8,3.6l0,0
		c-0.6,1.2-1.9,1.7-3,0.9l-9.5-6.7C545.2,474.7,544.9,473.1,545.5,471.9L545.5,471.9z"/>
	<path id="XMLID_146_" class="st2" d="M552.2,440.8c-1.1-0.7-1.5-2.2-0.9-3.5l5.1-11.7c0.6-1.3,1.9-1.8,2.9-1.1l0,0
		c1.1,0.7,1.5,2.2,0.9,3.5l-5.1,11.7C554.6,441,553.2,441.5,552.2,440.8L552.2,440.8z"/>
	<path id="XMLID_145_" class="st0" d="M676,467.5c1.4,0.2,2.3,1.3,2,2.5l-2.6,11c-0.3,1.2-1.7,2-3.1,1.9l0,0c-1.4-0.2-2.3-1.3-2-2.5
		l2.6-11C673.3,468.2,674.6,467.3,676,467.5L676,467.5z"/>
	<path id="XMLID_144_" class="st3" d="M479.3,407.4c-0.6-1.3-0.2-2.9,0.8-3.6l9.5-6.6c1-0.7,2.4-0.3,3,1l0,0
		c0.6,1.3,0.2,2.9-0.8,3.6l-9.5,6.6C481.2,409,479.9,408.6,479.3,407.4L479.3,407.4z"/>
	<path id="XMLID_143_" class="st1" d="M471.5,483.9c-0.3-1.4,0.5-2.8,1.7-3.1l10.8-2.8c1.2-0.3,2.3,0.6,2.6,2l0,0
		c0.3,1.4-0.5,2.8-1.7,3.1l-10.8,2.8C472.9,486.2,471.7,485.3,471.5,483.9L471.5,483.9z"/>
	<path id="XMLID_142_" class="st2" d="M479.9,443.6c0.6-1.3,1.9-1.7,3-1l9.5,6.6c1,0.7,1.4,2.3,0.8,3.6l0,0c-0.6,1.3-1.9,1.7-3,1
		l-9.5-6.6C479.7,446.4,479.3,444.8,479.9,443.6L479.9,443.6z"/>
</g>
<g id="XMLID_123_">
	<path id="XMLID_140_" class="st0" d="M705.9,464.9c-1.4,0.3-2.8-0.5-3-1.7l-2-10.8c-0.2-1.2,0.8-2.4,2.2-2.6l0,0
		c1.4-0.3,2.8,0.5,3,1.7l2,10.8C708.3,463.5,707.3,464.6,705.9,464.9L705.9,464.9z"/>
	<path id="XMLID_139_" class="st1" d="M714.4,497.2c-0.5,1.3-1.9,1.8-2.9,1.2l-9.8-6c-1.1-0.7-1.5-2.2-1-3.5l0,0
		c0.5-1.3,1.9-1.8,2.9-1.2l9.8,6C714.5,494.3,714.9,495.9,714.4,497.2L714.4,497.2z"/>
	<path id="XMLID_138_" class="st2" d="M716.9,524.5c0.5,1.3,0.1,2.9-1,3.5l-9.9,5.7c-1.1,0.6-2.4,0.1-2.9-1.2l0,0
		c-0.5-1.3-0.1-2.9,1-3.5l9.9-5.7C715.1,522.7,716.4,523.2,716.9,524.5L716.9,524.5z"/>
	<path id="XMLID_137_" class="st3" d="M650,481.2c0,1.4-1,2.6-2.2,2.6h-11c-1.2,0-2.2-1.2-2.2-2.6l0,0c0-1.4,1-2.6,2.2-2.6h11
		C649,478.6,650,479.7,650,481.2L650,481.2z"/>
	<path id="XMLID_136_" class="st1" d="M671.8,477.5c-0.5,1.3-1.9,1.8-2.9,1.2l-9.8-6c-1.1-0.7-1.5-2.2-1-3.5l0,0
		c0.5-1.3,1.9-1.8,2.9-1.2l9.8,6C671.9,474.6,672.4,476.2,671.8,477.5L671.8,477.5z"/>
	<path id="XMLID_135_" class="st0" d="M595.6,475.5c-1.1,0.9-2.6,1-3.4,0.1l-7.2-8.3c-0.8-0.9-0.5-2.4,0.5-3.4l0,0
		c1.1-0.9,2.6-1,3.4-0.1l7.2,8.3C597,473.1,596.7,474.6,595.6,475.5L595.6,475.5z"/>
	<path id="XMLID_134_" class="st1" d="M658,510.7c-0.5,1.3-1.9,1.8-2.9,1.2l-9.8-6c-1.1-0.7-1.5-2.2-1-3.5l0,0
		c0.5-1.3,1.9-1.8,2.9-1.2l9.8,6C658.1,507.8,658.5,509.4,658,510.7L658,510.7z"/>
	<path id="XMLID_133_" class="st2" d="M640.8,541.9c-0.6,1.2-1.9,1.7-3,0.9l-9.5-6.7c-1-0.7-1.4-2.3-0.8-3.6l0,0
		c0.6-1.2,1.9-1.7,3-0.9l9.5,6.7C641,539,641.4,540.6,640.8,541.9L640.8,541.9z"/>
	<path id="XMLID_132_" class="st0" d="M655.6,442.3c-1.4,0.3-2.8-0.5-3-1.7l-2-10.8c-0.2-1.2,0.8-2.4,2.2-2.6l0,0
		c1.4-0.3,2.8,0.5,3,1.7l2,10.8C658,440.9,657,442.1,655.6,442.3L655.6,442.3z"/>
	<path id="XMLID_131_" class="st1" d="M623.6,431.1c-0.5,1.3-1.9,1.8-2.9,1.2l-9.8-6c-1.1-0.7-1.5-2.2-1-3.5l0,0
		c0.5-1.3,1.9-1.8,2.9-1.2l9.8,6C623.8,428.2,624.2,429.8,623.6,431.1L623.6,431.1z"/>
	<path id="XMLID_130_" class="st2" d="M613.7,447.7c0.5,1.3,0.1,2.9-1,3.5l-9.9,5.7c-1.1,0.6-2.4,0.1-2.9-1.2l0,0
		c-0.5-1.3-0.1-2.9,1-3.5l9.9-5.7C611.9,445.8,613.2,446.4,613.7,447.7L613.7,447.7z"/>
	<path id="XMLID_129_" class="st2" d="M695.1,428.4c-0.6,1.2-1.9,1.7-3,0.9l-9.5-6.7c-1-0.7-1.4-2.3-0.8-3.6l0,0
		c0.6-1.2,1.9-1.7,3-0.9l9.5,6.7C695.4,425.6,695.7,427.2,695.1,428.4L695.1,428.4z"/>
	<path id="XMLID_128_" class="st2" d="M688.4,459.5c1.1,0.7,1.5,2.2,0.9,3.5l-5.1,11.7c-0.6,1.3-1.9,1.8-2.9,1.1l0,0
		c-1.1-0.7-1.5-2.2-0.9-3.5l5.1-11.7C686,459.3,687.4,458.8,688.4,459.5L688.4,459.5z"/>
	<path id="XMLID_127_" class="st0" d="M564.6,432.8c-1.4-0.2-2.3-1.3-2-2.5l2.6-11c0.3-1.2,1.7-2,3.1-1.9l0,0c1.4,0.2,2.3,1.3,2,2.5
		l-2.6,11C567.3,432.1,566,433,564.6,432.8L564.6,432.8z"/>
	<path id="XMLID_126_" class="st3" d="M761.3,493c0.6,1.3,0.2,2.9-0.8,3.6l-9.5,6.6c-1,0.7-2.4,0.3-3-1l0,0
		c-0.6-1.3-0.2-2.9,0.8-3.6l9.5-6.6C759.4,491.3,760.7,491.7,761.3,493L761.3,493z"/>
	<path id="XMLID_125_" class="st1" d="M769.1,416.4c0.3,1.4-0.5,2.8-1.7,3.1l-10.8,2.8c-1.2,0.3-2.3-0.6-2.6-2l0,0
		c-0.3-1.4,0.5-2.8,1.7-3.1l10.8-2.8C767.7,414.1,768.9,415,769.1,416.4L769.1,416.4z"/>
	<path id="XMLID_124_" class="st2" d="M760.7,456.8c-0.6,1.3-1.9,1.7-3,1l-9.5-6.6c-1-0.7-1.4-2.3-0.8-3.6l0,0c0.6-1.3,1.9-1.7,3-1
		l9.5,6.6C760.9,453.9,761.3,455.5,760.7,456.8L760.7,456.8z"/>
</g>
<g id="XMLID_105_">
	<path id="XMLID_122_" class="st0" d="M608.6,533.5c-1.4,0.3-2.8-0.5-3-1.7l-2-10.8c-0.2-1.2,0.8-2.4,2.2-2.6l0,0
		c1.4-0.3,2.8,0.5,3,1.7l2,10.8C611,532.1,610,533.2,608.6,533.5L608.6,533.5z"/>
	<path id="XMLID_121_" class="st1" d="M617,565.8c-0.5,1.3-1.9,1.8-2.9,1.2l-9.8-6c-1.1-0.7-1.5-2.2-1-3.5l0,0
		c0.5-1.3,1.9-1.8,2.9-1.2l9.8,6C617.2,562.9,617.6,564.5,617,565.8L617,565.8z"/>
	<path id="XMLID_120_" class="st2" d="M619.6,593.1c0.5,1.3,0.1,2.9-1,3.5l-9.9,5.7c-1.1,0.6-2.4,0.1-2.9-1.2l0,0
		c-0.5-1.3-0.1-2.9,1-3.5l9.9-5.7C617.7,591.3,619,591.8,619.6,593.1L619.6,593.1z"/>
	<path id="XMLID_119_" class="st3" d="M552.7,549.8c0,1.4-1,2.6-2.2,2.6h-11c-1.2,0-2.2-1.2-2.2-2.6l0,0c0-1.4,1-2.6,2.2-2.6h11
		C551.7,547.2,552.7,548.3,552.7,549.8L552.7,549.8z"/>
	<path id="XMLID_118_" class="st1" d="M574.5,546.1c-0.5,1.3-1.9,1.8-2.9,1.2l-9.8-6c-1.1-0.7-1.5-2.2-1-3.5l0,0
		c0.5-1.3,1.9-1.8,2.9-1.2l9.8,6C574.6,543.2,575,544.8,574.5,546.1L574.5,546.1z"/>
	<path id="XMLID_117_" class="st0" d="M498.3,544.1c-1.1,0.9-2.6,1-3.4,0.1l-7.2-8.3c-0.8-0.9-0.5-2.4,0.5-3.4l0,0
		c1.1-0.9,2.6-1,3.4-0.1l7.2,8.3C499.7,541.7,499.4,543.2,498.3,544.1L498.3,544.1z"/>
	<path id="XMLID_116_" class="st1" d="M560.6,579.3c-0.5,1.3-1.9,1.8-2.9,1.2l-9.8-6c-1.1-0.7-1.5-2.2-1-3.5l0,0
		c0.5-1.3,1.9-1.8,2.9-1.2l9.8,6C560.7,576.4,561.2,578,560.6,579.3L560.6,579.3z"/>
	<path id="XMLID_115_" class="st2" d="M543.4,610.5c-0.6,1.2-1.9,1.7-3,0.9l-9.5-6.7c-1-0.7-1.4-2.3-0.8-3.6l0,0
		c0.6-1.2,1.9-1.7,3-0.9l9.5,6.7C543.7,607.6,544,609.2,543.4,610.5L543.4,610.5z"/>
	<path id="XMLID_114_" class="st0" d="M558.3,510.9c-1.4,0.3-2.8-0.5-3-1.7l-2-10.8c-0.2-1.2,0.8-2.4,2.2-2.6l0,0
		c1.4-0.3,2.8,0.5,3,1.7l2,10.8C560.7,509.5,559.7,510.7,558.3,510.9L558.3,510.9z"/>
	<path id="XMLID_113_" class="st1" d="M526.3,499.7c-0.5,1.3-1.9,1.8-2.9,1.2l-9.8-6c-1.1-0.7-1.5-2.2-1-3.5l0,0
		c0.5-1.3,1.9-1.8,2.9-1.2l9.8,6C526.4,496.9,526.9,498.4,526.3,499.7L526.3,499.7z"/>
	<path id="XMLID_112_" class="st2" d="M516.3,516.3c0.5,1.3,0.1,2.9-1,3.5l-9.9,5.7c-1.1,0.6-2.4,0.1-2.9-1.2l0,0
		c-0.5-1.3-0.1-2.9,1-3.5l9.9-5.7C514.5,514.4,515.8,515,516.3,516.3L516.3,516.3z"/>
	<path id="XMLID_111_" class="st2" d="M597.8,497.1c-0.6,1.2-1.9,1.7-3,0.9l-9.5-6.7c-1-0.7-1.4-2.3-0.8-3.6l0,0
		c0.6-1.2,1.9-1.7,3-0.9l9.5,6.7C598,494.2,598.4,495.8,597.8,497.1L597.8,497.1z"/>
	<path id="XMLID_110_" class="st2" d="M591.1,528.1c1.1,0.7,1.5,2.2,0.9,3.5l-5.1,11.7c-0.6,1.3-1.9,1.8-2.9,1.1l0,0
		c-1.1-0.7-1.5-2.2-0.9-3.5l5.1-11.7C588.7,527.9,590,527.4,591.1,528.1L591.1,528.1z"/>
	<path id="XMLID_109_" class="st0" d="M467.2,501.4c-1.4-0.2-2.3-1.3-2-2.5l2.6-11c0.3-1.2,1.7-2,3.1-1.9l0,0c1.4,0.2,2.3,1.3,2,2.5
		l-2.6,11C470,500.8,468.6,501.6,467.2,501.4L467.2,501.4z"/>
	<path id="XMLID_108_" class="st3" d="M664,561.6c0.6,1.3,0.2,2.9-0.8,3.6l-9.5,6.6c-1,0.7-2.4,0.3-3-1l0,0
		c-0.6-1.3-0.2-2.9,0.8-3.6l9.5-6.6C662.1,559.9,663.4,560.3,664,561.6L664,561.6z"/>
	<path id="XMLID_107_" class="st1" d="M671.8,485c0.3,1.4-0.5,2.8-1.7,3.1l-10.8,2.8c-1.2,0.3-2.3-0.6-2.6-2l0,0
		c-0.3-1.4,0.5-2.8,1.7-3.1l10.8-2.8C670.4,482.7,671.5,483.6,671.8,485L671.8,485z"/>
	<path id="XMLID_106_" class="st2" d="M663.4,525.4c-0.6,1.3-1.9,1.7-3,1l-9.5-6.6c-1-0.7-1.4-2.3-0.8-3.6l0,0c0.6-1.3,1.9-1.7,3-1
		l9.5,6.6C663.6,522.5,664,524.1,663.4,525.4L663.4,525.4z"/>
</g>
<g id="XMLID_249_">
	<path id="XMLID_266_" class="st0" d="M437.5,469.2c1-1,2.6-1.1,3.4-0.2l7.6,7.9c0.8,0.9,0.7,2.4-0.4,3.4l0,0c-1,1-2.6,1.1-3.4,0.2
		l-7.6-7.9C436.3,471.7,436.5,470.2,437.5,469.2L437.5,469.2z"/>
	<path id="XMLID_265_" class="st1" d="M412.7,446.8c-0.3-1.4,0.6-2.5,1.8-2.6l11.5-0.4c1.3,0,2.5,1,2.7,2.4l0,0
		c0.3,1.4-0.6,2.5-1.8,2.6l-11.5,0.4C414.2,449.3,413,448.2,412.7,446.8L412.7,446.8z"/>
	<path id="XMLID_264_" class="st2" d="M395.6,425.3c-1.1-0.8-1.6-2.4-1.1-3.5l5.2-10.2c0.6-1.1,2-1.4,3.1-0.6l0,0
		c1.2,0.8,1.6,2.4,1.1,3.5l-5.2,10.2C398.2,425.9,396.8,426.1,395.6,425.3L395.6,425.3z"/>
	<path id="XMLID_263_" class="st3" d="M475.3,424.9c-0.8-1.2-0.6-2.7,0.4-3.4l9.2-6c1-0.7,2.5-0.2,3.3,1l0,0
		c0.8,1.2,0.6,2.7-0.4,3.4l-9.2,6C477.6,426.5,476.1,426.1,475.3,424.9L475.3,424.9z"/>
	<path id="XMLID_262_" class="st1" d="M459.1,440c-0.3-1.4,0.6-2.5,1.8-2.6l11.5-0.4c1.3,0,2.5,1,2.7,2.4l0,0
		c0.3,1.4-0.6,2.5-1.8,2.6l-11.5,0.4C460.6,442.4,459.4,441.3,459.1,440L459.1,440z"/>
	<path id="XMLID_261_" class="st0" d="M523.9,399.8c0.4-1.4,1.6-2.3,2.8-1.9l10.6,3c1.2,0.3,1.8,1.7,1.4,3.1l0,0
		c-0.4,1.4-1.6,2.3-2.8,1.9l-10.6-3C524.1,402.6,523.5,401.2,523.9,399.8L523.9,399.8z"/>
	<path id="XMLID_260_" class="st1" d="M452.5,404.6c-0.3-1.4,0.6-2.5,1.8-2.6l11.5-0.4c1.3,0,2.5,1,2.7,2.4l0,0
		c0.3,1.4-0.6,2.5-1.8,2.6l-11.5,0.4C454,407.1,452.8,406,452.5,404.6L452.5,404.6z"/>
	<path id="XMLID_259_" class="st2" d="M449.8,369.1c-0.2-1.4,0.7-2.5,2-2.4l11.6,0.4c1.3,0,2.4,1.2,2.6,2.6l0,0
		c0.2,1.4-0.7,2.5-2,2.4l-11.6-0.4C451.1,371.6,449.9,370.4,449.8,369.1L449.8,369.1z"/>
	<path id="XMLID_258_" class="st0" d="M491.9,460.5c1-1,2.6-1.1,3.4-0.2l7.6,7.9c0.8,0.9,0.7,2.4-0.4,3.4l0,0c-1,1-2.6,1.1-3.4,0.2
		l-7.6-7.9C490.7,463,490.9,461.5,491.9,460.5L491.9,460.5z"/>
	<path id="XMLID_257_" class="st1" d="M524.8,452.3c-0.3-1.4,0.6-2.5,1.8-2.6l11.5-0.4c1.3,0,2.5,1,2.7,2.4l0,0
		c0.3,1.4-0.6,2.5-1.8,2.6l-11.5,0.4C526.3,454.7,525.1,453.7,524.8,452.3L524.8,452.3z"/>
	<path id="XMLID_256_" class="st2" d="M524.1,432.9c-1.1-0.8-1.6-2.4-1.1-3.5l5.2-10.2c0.6-1.1,2-1.4,3.1-0.6l0,0
		c1.1,0.8,1.6,2.4,1.1,3.5l-5.2,10.2C526.6,433.5,525.2,433.8,524.1,432.9L524.1,432.9z"/>
	<path id="XMLID_255_" class="st2" d="M466.6,493.7c-0.2-1.4,0.7-2.5,2-2.4l11.6,0.4c1.3,0,2.4,1.2,2.6,2.6l0,0
		c0.2,1.4-0.7,2.5-2,2.4l-11.6-0.4C467.9,496.2,466.7,495.1,466.6,493.7L466.6,493.7z"/>
	<path id="XMLID_254_" class="st2" d="M455.1,464.1c-1.3,0-2.5-1.1-2.7-2.4l-2.2-12.6c-0.2-1.4,0.6-2.5,1.8-2.5l0,0
		c1.3,0,2.5,1.1,2.7,2.4l2.2,12.6C457.2,462.9,456.4,464.1,455.1,464.1L455.1,464.1z"/>
	<path id="XMLID_253_" class="st0" d="M573.3,418.4c1.3-0.6,2.6-0.2,3.1,0.9l3.9,10.6c0.4,1.2-0.3,2.6-1.5,3.3l0,0
		c-1.3,0.6-2.6,0.2-3.1-0.9l-3.9-10.6C571.3,420.5,572,419.1,573.3,418.4L573.3,418.4z"/>
	<path id="XMLID_252_" class="st3" d="M375.8,476.1c-1.2-0.7-1.8-2.3-1.3-3.4l4.4-10.7c0.5-1.2,1.8-1.5,3-0.8l0,0
		c1.2,0.7,1.8,2.3,1.3,3.4l-4.4,10.7C378.3,476.4,377,476.8,375.8,476.1L375.8,476.1z"/>
	<path id="XMLID_251_" class="st1" d="M411.3,544.4c-1-1-1.1-2.6-0.3-3.5l7.5-8.2c0.8-0.9,2.3-0.8,3.3,0.3l0,0c1,1,1.1,2.6,0.3,3.5
		l-7.5,8.2C413.7,545.5,412.2,545.4,411.3,544.4L411.3,544.4z"/>
	<path id="XMLID_250_" class="st2" d="M396.2,506c-0.2-1.4,0.7-2.5,2-2.4l11.6,0.3c1.3,0,2.4,1.2,2.6,2.6l0,0c0.2,1.4-0.7,2.5-2,2.4
		l-11.6-0.3C397.5,508.5,396.3,507.4,396.2,506L396.2,506z"/>
</g>
<g id="XMLID_231_">
	<path id="XMLID_248_" class="st0" d="M596.9,461.6c1-1,2.6-1.1,3.4-0.2l7.6,7.9c0.8,0.9,0.7,2.4-0.4,3.4l0,0c-1,1-2.6,1.1-3.4,0.2
		l-7.6-7.9C595.7,464.1,595.8,462.6,596.9,461.6L596.9,461.6z"/>
	<path id="XMLID_247_" class="st1" d="M572.1,439.3c-0.3-1.4,0.6-2.5,1.8-2.6l11.5-0.4c1.3,0,2.5,1,2.7,2.4l0,0
		c0.3,1.4-0.6,2.5-1.8,2.6l-11.5,0.4C573.6,441.7,572.4,440.6,572.1,439.3L572.1,439.3z"/>
	<path id="XMLID_246_" class="st2" d="M555,417.8c-1.1-0.8-1.6-2.4-1.1-3.5l5.2-10.2c0.6-1.1,2-1.4,3.1-0.6l0,0
		c1.2,0.8,1.6,2.4,1.1,3.5l-5.2,10.2C557.5,418.3,556.1,418.6,555,417.8L555,417.8z"/>
	<path id="XMLID_245_" class="st3" d="M634.7,417.3c-0.8-1.2-0.6-2.7,0.4-3.4l9.2-6c1-0.7,2.5-0.2,3.3,1l0,0
		c0.8,1.2,0.6,2.7-0.4,3.4l-9.2,6C636.9,419,635.5,418.6,634.7,417.3L634.7,417.3z"/>
	<path id="XMLID_244_" class="st1" d="M618.5,432.4c-0.3-1.4,0.6-2.5,1.8-2.6l11.5-0.4c1.3,0,2.5,1,2.7,2.4l0,0
		c0.3,1.4-0.6,2.5-1.8,2.6l-11.5,0.4C620,434.9,618.7,433.8,618.5,432.4L618.5,432.4z"/>
	<path id="XMLID_243_" class="st0" d="M683.2,392.2c0.4-1.4,1.6-2.3,2.8-1.9l10.6,3c1.2,0.3,1.8,1.7,1.4,3.1l0,0
		c-0.4,1.4-1.6,2.3-2.8,1.9l-10.6-3C683.5,395,682.8,393.6,683.2,392.2L683.2,392.2z"/>
	<path id="XMLID_242_" class="st1" d="M611.9,397c-0.3-1.4,0.6-2.5,1.8-2.6l11.5-0.4c1.3,0,2.5,1,2.7,2.4l0,0
		c0.3,1.4-0.6,2.5-1.8,2.6l-11.5,0.4C613.3,399.5,612.1,398.4,611.9,397L611.9,397z"/>
	<path id="XMLID_241_" class="st2" d="M609.1,361.5c-0.2-1.4,0.7-2.5,2-2.4l11.6,0.4c1.3,0,2.4,1.2,2.6,2.6l0,0
		c0.2,1.4-0.7,2.5-2,2.4l-11.6-0.4C610.5,364,609.3,362.9,609.1,361.5L609.1,361.5z"/>
	<path id="XMLID_240_" class="st0" d="M651.3,452.9c1-1,2.6-1.1,3.4-0.2l7.6,7.9c0.8,0.9,0.7,2.4-0.4,3.4l0,0c-1,1-2.6,1.1-3.4,0.2
		l-7.6-7.9C650.1,455.4,650.3,453.9,651.3,452.9L651.3,452.9z"/>
	<path id="XMLID_239_" class="st1" d="M684.2,444.7c-0.3-1.4,0.6-2.5,1.8-2.6l11.5-0.4c1.3,0,2.5,1,2.7,2.4l0,0
		c0.3,1.4-0.6,2.5-1.8,2.6l-11.5,0.4C685.7,447.2,684.5,446.1,684.2,444.7L684.2,444.7z"/>
	<path id="XMLID_238_" class="st2" d="M683.4,425.4c-1.1-0.8-1.6-2.4-1.1-3.5l5.2-10.2c0.6-1.1,2-1.4,3.1-0.6l0,0
		c1.1,0.8,1.6,2.4,1.1,3.5l-5.2,10.2C686,426,684.6,426.2,683.4,425.4L683.4,425.4z"/>
	<path id="XMLID_237_" class="st2" d="M625.9,486.2c-0.2-1.4,0.7-2.5,2-2.4l11.6,0.4c1.3,0,2.4,1.2,2.6,2.6l0,0
		c0.2,1.4-0.7,2.5-2,2.4l-11.6-0.4C627.3,488.7,626.1,487.5,625.9,486.2L625.9,486.2z"/>
	<path id="XMLID_236_" class="st2" d="M614.5,456.5c-1.3,0-2.5-1.1-2.7-2.4l-2.2-12.6c-0.2-1.4,0.6-2.5,1.8-2.5l0,0
		c1.3,0,2.5,1.1,2.7,2.4l2.2,12.6C616.5,455.4,615.7,456.5,614.5,456.5L614.5,456.5z"/>
	<path id="XMLID_235_" class="st0" d="M732.6,410.9c1.3-0.6,2.6-0.2,3.1,0.9l3.9,10.6c0.4,1.2-0.3,2.6-1.5,3.3l0,0
		c-1.3,0.6-2.6,0.2-3.1-0.9l-3.9-10.6C730.7,413,731.4,411.5,732.6,410.9L732.6,410.9z"/>
	<path id="XMLID_234_" class="st3" d="M535.1,468.5c-1.2-0.7-1.8-2.3-1.3-3.4l4.4-10.7c0.5-1.2,1.8-1.5,3-0.8l0,0
		c1.2,0.7,1.8,2.3,1.3,3.4l-4.4,10.7C537.7,468.9,536.3,469.2,535.1,468.5L535.1,468.5z"/>
	<path id="XMLID_233_" class="st1" d="M570.6,536.8c-1-1-1.1-2.6-0.3-3.5l7.5-8.2c0.8-0.9,2.3-0.8,3.3,0.3l0,0c1,1,1.1,2.6,0.3,3.5
		l-7.5,8.2C573.1,538,571.6,537.9,570.6,536.8L570.6,536.8z"/>
	<path id="XMLID_232_" class="st2" d="M555.5,498.5c-0.2-1.4,0.7-2.5,2-2.4l11.6,0.3c1.3,0,2.4,1.2,2.6,2.6l0,0
		c0.2,1.4-0.7,2.5-2,2.4l-11.6-0.3C556.9,501,555.7,499.8,555.5,498.5L555.5,498.5z"/>
</g>
<g id="XMLID_213_">
	<path id="XMLID_230_" class="st0" d="M778.4,313c-0.5,1.4-1.8,2.1-2.9,1.7l-10.3-3.8c-1.1-0.4-1.6-1.8-1.2-3.2l0,0
		c0.5-1.4,1.8-2.1,2.9-1.7l10.3,3.8C778.4,310.2,778.9,311.7,778.4,313L778.4,313z"/>
	<path id="XMLID_229_" class="st1" d="M810.5,322.1c0.8,1.1,0.6,2.5-0.5,3.1l-10.1,5.4c-1.1,0.6-2.7,0.2-3.5-1l0,0
		c-0.8-1.1-0.6-2.5,0.5-3.1l10.1-5.4C808.1,320.6,809.6,321,810.5,322.1L810.5,322.1z"/>
	<path id="XMLID_228_" class="st2" d="M835.3,333.9c1.4,0.2,2.5,1.4,2.5,2.7l-0.1,11.4c0,1.3-1.2,2.1-2.5,1.9l0,0
		c-1.4-0.2-2.5-1.4-2.5-2.7l0.1-11.4C832.8,334.5,833.9,333.7,835.3,333.9L835.3,333.9z"/>
	<path id="XMLID_227_" class="st3" d="M764,369.4c1.2,0.7,1.8,2.2,1.1,3.2l-5.6,9.5c-0.6,1-2.1,1.3-3.4,0.5l0,0
		c-1.2-0.7-1.8-2.2-1.1-3.2l5.6-9.5C761.2,368.9,762.7,368.7,764,369.4L764,369.4z"/>
	<path id="XMLID_226_" class="st1" d="M771.9,348.8c0.8,1.1,0.6,2.5-0.5,3.1l-10.1,5.4c-1.1,0.6-2.7,0.2-3.5-1l0,0
		c-0.8-1.1-0.6-2.5,0.5-3.1l10.1-5.4C769.5,347.2,771,347.6,771.9,348.8L771.9,348.8z"/>
	<path id="XMLID_225_" class="st0" d="M731.5,413.4c0.3,1.4-0.5,2.8-1.7,3l-10.8,2c-1.2,0.2-2.4-0.8-2.6-2.2l0,0
		c-0.3-1.4,0.5-2.8,1.7-3l10.8-2C730.1,411,731.2,412,731.5,413.4L731.5,413.4z"/>
	<path id="XMLID_224_" class="st1" d="M793.4,377.6c0.8,1.1,0.6,2.5-0.5,3.1l-10.1,5.4c-1.1,0.6-2.7,0.2-3.5-1l0,0
		c-0.8-1.1-0.6-2.5,0.5-3.1l10.1-5.4C791,376,792.6,376.4,793.4,377.6L793.4,377.6z"/>
	<path id="XMLID_223_" class="st2" d="M811.5,408.2c0.8,1.2,0.4,2.5-0.7,3l-10.6,4.8c-1.2,0.5-2.7,0-3.5-1.2l0,0
		c-0.8-1.2-0.4-2.5,0.7-3l10.6-4.8C809.2,406.6,810.8,407.1,811.5,408.2L811.5,408.2z"/>
	<path id="XMLID_222_" class="st0" d="M733.4,344.8c-0.5,1.4-1.8,2.1-2.9,1.7l-10.3-3.8c-1.1-0.4-1.6-1.8-1.1-3.2l0,0
		c0.5-1.4,1.8-2.1,2.9-1.7l10.3,3.8C733.3,342,733.9,343.5,733.4,344.8L733.4,344.8z"/>
	<path id="XMLID_221_" class="st1" d="M707.5,366.7c0.8,1.1,0.6,2.5-0.5,3.1l-10.1,5.4c-1.1,0.6-2.7,0.2-3.5-1l0,0
		c-0.8-1.1-0.6-2.5,0.5-3.1l10.1-5.4C705.1,365.1,706.6,365.6,707.5,366.7L707.5,366.7z"/>
	<path id="XMLID_220_" class="st2" d="M716.7,383.7c1.4,0.2,2.5,1.4,2.5,2.7l-0.1,11.4c0,1.3-1.2,2.1-2.5,1.9l0,0
		c-1.4-0.2-2.5-1.4-2.5-2.7l0.1-11.4C714.2,384.3,715.3,383.5,716.7,383.7L716.7,383.7z"/>
	<path id="XMLID_219_" class="st2" d="M741.5,303.8c0.8,1.2,0.4,2.5-0.7,3l-10.6,4.7c-1.2,0.5-2.7,0-3.5-1.2l0,0
		c-0.8-1.2-0.4-2.5,0.7-3l10.6-4.7C739.2,302.1,740.7,302.6,741.5,303.8L741.5,303.8z"/>
	<path id="XMLID_218_" class="st2" d="M764.8,325.3c1.1-0.6,2.7-0.1,3.5,1l7.5,10.3c0.8,1.1,0.6,2.5-0.5,3.1l0,0
		c-1.1,0.6-2.7,0.1-3.5-1l-7.5-10.3C763.5,327.3,763.7,325.9,764.8,325.3L764.8,325.3z"/>
	<path id="XMLID_217_" class="st0" d="M678.9,418.4c-0.9,1.1-2.3,1.4-3.2,0.5l-8.2-7.8c-0.9-0.9-0.9-2.5-0.1-3.6l0,0
		c0.9-1.1,2.3-1.4,3.2-0.5l8.2,7.8C679.7,415.7,679.8,417.3,678.9,418.4L678.9,418.4z"/>
	<path id="XMLID_216_" class="st3" d="M830.7,279.6c1.4,0.1,2.6,1.2,2.7,2.5l0.8,11.6c0.1,1.3-1,2.2-2.3,2.1l0,0
		c-1.4-0.1-2.6-1.2-2.7-2.5l-0.8-11.6C828.3,280.4,829.3,279.4,830.7,279.6L830.7,279.6z"/>
	<path id="XMLID_215_" class="st1" d="M768.8,233.9c1.3,0.5,2.2,1.9,1.8,3l-3.1,10.7c-0.3,1.2-1.7,1.7-3,1.2l0,0
		c-1.3-0.5-2.2-1.9-1.8-3l3.1-10.7C766.1,234,767.4,233.4,768.8,233.9L768.8,233.9z"/>
	<path id="XMLID_214_" class="st2" d="M799.2,261.7c0.8,1.2,0.5,2.5-0.7,3l-10.6,4.8c-1.2,0.5-2.7,0-3.5-1.1l0,0
		c-0.8-1.2-0.5-2.5,0.7-3l10.6-4.8C796.9,260,798.5,260.5,799.2,261.7L799.2,261.7z"/>
</g>
<g id="XMLID_195_">
	<path id="XMLID_212_" class="st0" d="M735.6,531c-1,1-2.6,1.1-3.4,0.2l-7.6-7.9c-0.8-0.9-0.7-2.4,0.4-3.4l0,0c1-1,2.6-1.1,3.4-0.2
		l7.6,7.9C736.8,528.5,736.6,530,735.6,531L735.6,531z"/>
	<path id="XMLID_211_" class="st1" d="M760.3,553.3c0.3,1.4-0.6,2.5-1.8,2.6l-11.5,0.4c-1.3,0-2.5-1-2.7-2.4l0,0
		c-0.3-1.4,0.6-2.5,1.8-2.6l11.5-0.4C758.9,550.9,760.1,551.9,760.3,553.3L760.3,553.3z"/>
	<path id="XMLID_210_" class="st2" d="M777.4,574.8c1.1,0.8,1.6,2.4,1.1,3.5l-5.2,10.2c-0.6,1.1-2,1.4-3.1,0.6l0,0
		c-1.2-0.8-1.6-2.4-1.1-3.5l5.2-10.2C774.9,574.3,776.3,574,777.4,574.8L777.4,574.8z"/>
	<path id="XMLID_209_" class="st3" d="M697.8,575.2c0.8,1.2,0.6,2.7-0.4,3.4l-9.2,6c-1,0.7-2.5,0.2-3.3-1l0,0
		c-0.8-1.2-0.6-2.7,0.4-3.4l9.2-6C695.5,573.6,697,574,697.8,575.2L697.8,575.2z"/>
	<path id="XMLID_208_" class="st1" d="M713.9,560.2c0.3,1.4-0.6,2.5-1.8,2.6l-11.5,0.4c-1.3,0-2.5-1-2.7-2.4l0,0
		c-0.3-1.4,0.6-2.5,1.8-2.6l11.5-0.4C712.5,557.7,713.7,558.8,713.9,560.2L713.9,560.2z"/>
	<path id="XMLID_207_" class="st0" d="M649.2,600.4c-0.4,1.4-1.6,2.3-2.8,1.9l-10.6-3c-1.2-0.3-1.8-1.7-1.4-3.1l0,0
		c0.4-1.4,1.6-2.3,2.8-1.9l10.6,3C649,597.6,649.6,599,649.2,600.4L649.2,600.4z"/>
	<path id="XMLID_206_" class="st1" d="M720.6,595.5c0.3,1.4-0.6,2.5-1.8,2.6l-11.5,0.4c-1.3,0-2.5-1-2.7-2.4l0,0
		c-0.3-1.4,0.6-2.5,1.8-2.6l11.5-0.4C719.1,593.1,720.3,594.2,720.6,595.5L720.6,595.5z"/>
	<path id="XMLID_205_" class="st2" d="M723.3,631.1c0.2,1.4-0.7,2.5-2,2.4l-11.6-0.4c-1.3,0-2.4-1.2-2.6-2.6l0,0
		c-0.2-1.4,0.7-2.5,2-2.4l11.6,0.4C722,628.5,723.1,629.7,723.3,631.1L723.3,631.1z"/>
	<path id="XMLID_204_" class="st0" d="M681.1,539.7c-1,1-2.6,1.1-3.4,0.2l-7.6-7.9c-0.8-0.9-0.7-2.4,0.4-3.4l0,0
		c1-1,2.6-1.1,3.4-0.2l7.6,7.9C682.3,537.2,682.2,538.7,681.1,539.7L681.1,539.7z"/>
	<path id="XMLID_203_" class="st1" d="M648.2,547.9c0.3,1.4-0.6,2.5-1.8,2.6l-11.5,0.4c-1.3,0-2.5-1-2.7-2.4l0,0
		c-0.3-1.4,0.6-2.5,1.8-2.6l11.5-0.4C646.8,545.4,648,546.5,648.2,547.9L648.2,547.9z"/>
	<path id="XMLID_202_" class="st2" d="M649,567.2c1.1,0.8,1.6,2.4,1.1,3.5l-5.2,10.2c-0.6,1.1-2,1.4-3.1,0.6l0,0
		c-1.1-0.8-1.6-2.4-1.1-3.5l5.2-10.2C646.5,566.6,647.9,566.4,649,567.2L649,567.2z"/>
	<path id="XMLID_201_" class="st2" d="M706.5,506.4c0.2,1.4-0.7,2.5-2,2.4l-11.6-0.4c-1.3,0-2.4-1.2-2.6-2.6l0,0
		c-0.2-1.4,0.7-2.5,2-2.4l11.6,0.4C705.2,503.9,706.3,505.1,706.5,506.4L706.5,506.4z"/>
	<path id="XMLID_200_" class="st2" d="M718,536c1.3,0,2.5,1.1,2.7,2.4l2.2,12.6c0.2,1.4-0.6,2.5-1.8,2.5l0,0c-1.3,0-2.5-1.1-2.7-2.4
		l-2.2-12.6C715.9,537.2,716.7,536.1,718,536L718,536z"/>
	<path id="XMLID_199_" class="st0" d="M599.8,581.7c-1.3,0.6-2.6,0.2-3.1-0.9l-3.9-10.6c-0.4-1.2,0.3-2.6,1.5-3.3l0,0
		c1.3-0.6,2.6-0.2,3.1,0.9l3.9,10.6C601.7,579.6,601.1,581.1,599.8,581.7L599.8,581.7z"/>
	<path id="XMLID_198_" class="st3" d="M797.3,524.1c1.2,0.7,1.8,2.3,1.3,3.4l-4.4,10.7c-0.5,1.2-1.8,1.5-3,0.8l0,0
		c-1.2-0.7-1.8-2.3-1.3-3.4l4.4-10.7C794.8,523.7,796.1,523.3,797.3,524.1L797.3,524.1z"/>
	<path id="XMLID_197_" class="st1" d="M761.8,455.8c1,1,1.1,2.6,0.3,3.5l-7.5,8.2c-0.8,0.9-2.3,0.8-3.3-0.3l0,0
		c-1-1-1.1-2.6-0.3-3.5l7.5-8.2C759.4,454.6,760.8,454.7,761.8,455.8L761.8,455.8z"/>
	<path id="XMLID_196_" class="st2" d="M776.9,494.1c0.2,1.4-0.7,2.5-2,2.4l-11.6-0.3c-1.3,0-2.4-1.2-2.6-2.6l0,0
		c-0.2-1.4,0.7-2.5,2-2.4l11.6,0.3C775.6,491.6,776.7,492.7,776.9,494.1L776.9,494.1z"/>
</g>
<g id="XMLID_429_">
	<path id="XMLID_446_" class="st0" d="M443.2,546.9c1.4-0.3,2.8,0.5,3,1.7l2,10.8c0.2,1.2-0.8,2.4-2.2,2.6l0,0
		c-1.4,0.3-2.8-0.5-3-1.7l-2-10.8C440.8,548.3,441.8,547.1,443.2,546.9L443.2,546.9z"/>
	<path id="XMLID_445_" class="st1" d="M434.7,514.6c0.5-1.3,1.9-1.8,2.9-1.2l9.8,6c1.1,0.7,1.5,2.2,1,3.5l0,0
		c-0.5,1.3-1.9,1.8-2.9,1.2l-9.8-6C434.6,517.5,434.2,515.9,434.7,514.6L434.7,514.6z"/>
	<path id="XMLID_444_" class="st2" d="M432.2,487.3c-0.5-1.3-0.1-2.9,1-3.5l9.9-5.7c1.1-0.6,2.4-0.1,2.9,1.2l0,0
		c0.5,1.3,0.1,2.9-1,3.5l-9.9,5.7C434,489.1,432.7,488.6,432.2,487.3L432.2,487.3z"/>
	<path id="XMLID_443_" class="st3" d="M499.1,530.6c0-1.4,1-2.6,2.2-2.6h11c1.2,0,2.2,1.2,2.2,2.6l0,0c0,1.4-1,2.6-2.2,2.6h-11
		C500.1,533.2,499.1,532.1,499.1,530.6L499.1,530.6z"/>
	<path id="XMLID_442_" class="st1" d="M477.3,534.3c0.5-1.3,1.9-1.8,2.9-1.2l9.8,6c1.1,0.7,1.5,2.2,1,3.5l0,0
		c-0.5,1.3-1.9,1.8-2.9,1.2l-9.8-6C477.2,537.2,476.7,535.6,477.3,534.3L477.3,534.3z"/>
	<path id="XMLID_441_" class="st0" d="M553.4,536.2c1.1-0.9,2.6-1,3.4-0.1l7.2,8.3c0.8,0.9,0.5,2.4-0.5,3.4l0,0
		c-1.1,0.9-2.6,1-3.4,0.1l-7.2-8.3C552.1,538.7,552.4,537.2,553.4,536.2L553.4,536.2z"/>
	<path id="XMLID_440_" class="st1" d="M491.1,501.1c0.5-1.3,1.9-1.8,2.9-1.2l9.8,6c1.1,0.7,1.5,2.2,1,3.5l0,0
		c-0.5,1.3-1.9,1.8-2.9,1.2l-9.8-6C491,504,490.6,502.4,491.1,501.1L491.1,501.1z"/>
	<path id="XMLID_439_" class="st2" d="M508.3,469.9c0.6-1.2,1.9-1.7,3-0.9l9.5,6.7c1,0.7,1.4,2.3,0.8,3.6l0,0
		c-0.6,1.2-1.9,1.7-3,0.9l-9.5-6.7C508.1,472.8,507.7,471.2,508.3,469.9L508.3,469.9z"/>
	<path id="XMLID_438_" class="st0" d="M493.5,569.5c1.4-0.3,2.8,0.5,3,1.7l2,10.8c0.2,1.2-0.8,2.4-2.2,2.6l0,0
		c-1.4,0.3-2.8-0.5-3-1.7l-2-10.8C491.1,570.9,492,569.7,493.5,569.5L493.5,569.5z"/>
	<path id="XMLID_437_" class="st1" d="M525.4,580.7c0.5-1.3,1.9-1.8,2.9-1.2l9.8,6c1.1,0.7,1.5,2.2,1,3.5l0,0
		c-0.5,1.3-1.9,1.8-2.9,1.2l-9.8-6C525.3,583.5,524.9,582,525.4,580.7L525.4,580.7z"/>
	<path id="XMLID_436_" class="st2" d="M535.4,564.1c-0.5-1.3-0.1-2.9,1-3.5l9.9-5.7c1.1-0.6,2.4-0.1,2.9,1.2l0,0
		c0.5,1.3,0.1,2.9-1,3.5l-9.9,5.7C537.2,565.9,535.9,565.4,535.4,564.1L535.4,564.1z"/>
	<path id="XMLID_435_" class="st2" d="M454,583.3c0.6-1.2,1.9-1.7,3-0.9l9.5,6.7c1,0.7,1.4,2.3,0.8,3.6l0,0c-0.6,1.2-1.9,1.7-3,0.9
		l-9.5-6.7C453.7,586.2,453.4,584.6,454,583.3L454,583.3z"/>
	<path id="XMLID_434_" class="st2" d="M460.7,552.3c-1.1-0.7-1.5-2.2-0.9-3.5l5.1-11.7c0.6-1.3,1.9-1.8,2.9-1.1l0,0
		c1.1,0.7,1.5,2.2,0.9,3.5l-5.1,11.7C463,552.5,461.7,553,460.7,552.3L460.7,552.3z"/>
	<path id="XMLID_433_" class="st0" d="M584.5,578.9c1.4,0.2,2.3,1.3,2,2.5l-2.6,11c-0.3,1.2-1.7,2-3.1,1.9l0,0
		c-1.4-0.2-2.3-1.3-2-2.5l2.6-11C581.8,579.6,583.1,578.8,584.5,578.9L584.5,578.9z"/>
	<path id="XMLID_432_" class="st3" d="M387.8,518.8c-0.6-1.3-0.2-2.9,0.8-3.6l9.5-6.6c1-0.7,2.4-0.3,3,1l0,0
		c0.6,1.3,0.2,2.9-0.8,3.6l-9.5,6.6C389.7,520.5,388.4,520,387.8,518.8L387.8,518.8z"/>
	<path id="XMLID_431_" class="st1" d="M380,595.4c-0.3-1.4,0.5-2.8,1.7-3.1l10.8-2.8c1.2-0.3,2.3,0.6,2.6,2l0,0
		c0.3,1.4-0.5,2.8-1.7,3.1l-10.8,2.8C381.4,597.7,380.2,596.8,380,595.4L380,595.4z"/>
	<path id="XMLID_430_" class="st2" d="M388.4,555c0.6-1.3,1.9-1.7,3-1l9.5,6.6c1,0.7,1.4,2.3,0.8,3.6l0,0c-0.6,1.3-1.9,1.7-3,1
		l-9.5-6.6C388.1,557.9,387.8,556.3,388.4,555L388.4,555z"/>
</g>
<g id="XMLID_411_">
	<path id="XMLID_428_" class="st0" d="M342.2,517.3c1.2,0.8,1.6,2.3,0.9,3.3l-6.3,9.1c-0.7,1-2.2,1.1-3.4,0.3l0,0
		c-1.2-0.8-1.6-2.3-0.9-3.3l6.3-9.1C339.5,516.6,341,516.5,342.2,517.3L342.2,517.3z"/>
	<path id="XMLID_427_" class="st1" d="M359.2,488.6c1.3-0.5,2.6,0,2.9,1.3l2.7,11.2c0.3,1.2-0.5,2.6-1.8,3.2l0,0
		c-1.3,0.5-2.6,0-2.9-1.3l-2.7-11.2C357,490.5,357.9,489.1,359.2,488.6L359.2,488.6z"/>
	<path id="XMLID_426_" class="st2" d="M376.8,467.5c0.6-1.3,2-2.1,3.2-1.7l11,3c1.2,0.3,1.7,1.6,1.2,2.9l0,0c-0.6,1.3-2,2.1-3.2,1.7
		l-11-3C376.8,470.1,376.2,468.8,376.8,467.5L376.8,467.5z"/>
	<path id="XMLID_425_" class="st3" d="M393.1,545.5c1-1,2.5-1.2,3.4-0.3l7.8,7.8c0.8,0.9,0.7,2.4-0.3,3.4l0,0c-1,1-2.5,1.2-3.4,0.3
		l-7.8-7.8C392,548.1,392.1,546.6,393.1,545.5L393.1,545.5z"/>
	<path id="XMLID_424_" class="st1" d="M375.1,532.7c1.3-0.5,2.6,0,2.9,1.3l2.7,11.2c0.3,1.2-0.5,2.6-1.8,3.2l0,0
		c-1.3,0.5-2.6,0-2.9-1.3l-2.7-11.2C373,534.6,373.8,533.2,375.1,532.7L375.1,532.7z"/>
	<path id="XMLID_423_" class="st0" d="M427.4,588.1c1.4,0.1,2.5,1.2,2.5,2.4l-0.8,11c-0.1,1.2-1.3,2.1-2.8,2l0,0
		c-1.4-0.1-2.5-1.2-2.5-2.4l0.8-11C424.7,588.9,426,588,427.4,588.1L427.4,588.1z"/>
	<path id="XMLID_422_" class="st1" d="M408.5,519.1c1.3-0.5,2.6,0,2.9,1.3l2.7,11.2c0.3,1.2-0.5,2.6-1.8,3.2l0,0
		c-1.3,0.5-2.6,0-2.9-1.3l-2.7-11.2C406.3,521.1,407.2,519.6,408.5,519.1L408.5,519.1z"/>
	<path id="XMLID_421_" class="st2" d="M442.7,509.4c1.3-0.4,2.5,0.2,2.8,1.5l1.9,11.5c0.2,1.3-0.7,2.6-2,3.1l0,0
		c-1.3,0.4-2.5-0.2-2.8-1.5l-1.9-11.5C440.5,511.2,441.4,509.8,442.7,509.4L442.7,509.4z"/>
	<path id="XMLID_420_" class="st0" d="M361.6,568.9c1.2,0.8,1.6,2.3,0.9,3.3l-6.3,9.1c-0.7,1-2.2,1.1-3.4,0.3l0,0
		c-1.2-0.8-1.6-2.3-0.9-3.3l6.3-9.1C358.9,568.2,360.4,568.1,361.6,568.9L361.6,568.9z"/>
	<path id="XMLID_419_" class="st1" d="M376.2,599.5c1.3-0.5,2.6,0,2.9,1.3l2.7,11.2c0.3,1.2-0.5,2.6-1.8,3.2l0,0
		c-1.3,0.5-2.6,0-2.9-1.3l-2.7-11.2C374.1,601.5,374.9,600,376.2,599.5L376.2,599.5z"/>
	<path id="XMLID_418_" class="st2" d="M395,594.9c0.6-1.3,2-2.1,3.2-1.7l11,3c1.2,0.3,1.7,1.6,1.2,2.9l0,0c-0.6,1.3-2,2.1-3.2,1.7
		l-11-3C394.9,597.5,394.4,596.2,395,594.9L395,594.9z"/>
	<path id="XMLID_417_" class="st2" d="M323.9,550.7c1.3-0.4,2.5,0.2,2.8,1.5l1.9,11.5c0.2,1.3-0.7,2.6-2,3.1l0,0
		c-1.3,0.4-2.5-0.2-2.8-1.5l-1.9-11.5C321.7,552.5,322.6,551.1,323.9,550.7L323.9,550.7z"/>
	<path id="XMLID_416_" class="st2" d="M350.7,533.5c-0.3-1.2,0.5-2.6,1.9-3.1l11.9-4.7c1.3-0.5,2.6,0.1,2.9,1.3l0,0
		c0.3,1.2-0.5,2.6-1.9,3.1l-11.9,4.7C352.2,535.4,351,534.8,350.7,533.5L350.7,533.5z"/>
	<path id="XMLID_415_" class="st0" d="M419,640.2c0.9,1.1,0.7,2.5-0.3,3.2l-9.6,5.9c-1.1,0.6-2.6,0.3-3.5-0.8l0,0
		c-0.9-1.1-0.7-2.5,0.3-3.2l9.6-5.9C416.6,638.8,418.1,639.1,419,640.2L419,640.2z"/>
	<path id="XMLID_414_" class="st3" d="M323.1,458.2c0.5-1.3,1.9-2.2,3.1-1.9l11.4,2.1c1.2,0.2,1.9,1.5,1.4,2.8l0,0
		c-0.5,1.3-1.9,2.2-3.1,1.9l-11.4-2.1C323.3,460.8,322.6,459.5,323.1,458.2L323.1,458.2z"/>
	<path id="XMLID_413_" class="st1" d="M263.3,506.6c0.8-1.2,2.3-1.6,3.4-1l9.5,5.7c1,0.6,1.2,2.1,0.4,3.3l0,0
		c-0.8,1.2-2.3,1.6-3.4,1l-9.5-5.7C262.6,509.2,262.4,507.8,263.3,506.6L263.3,506.6z"/>
	<path id="XMLID_412_" class="st2" d="M297.8,484.2c1.3-0.5,2.6,0.2,2.8,1.4l2,11.4c0.2,1.3-0.7,2.6-2,3.1l0,0
		c-1.3,0.5-2.6-0.2-2.8-1.4l-2-11.4C295.6,486,296.5,484.6,297.8,484.2L297.8,484.2z"/>
</g>
<g id="XMLID_393_">
	<path id="XMLID_410_" class="st0" d="M540.5,478.3c1.4-0.3,2.8,0.5,3,1.7l2,10.8c0.2,1.2-0.8,2.4-2.2,2.6l0,0
		c-1.4,0.3-2.8-0.5-3-1.7l-2-10.8C538.1,479.7,539.1,478.5,540.5,478.3L540.5,478.3z"/>
	<path id="XMLID_409_" class="st1" d="M532.1,446c0.5-1.3,1.9-1.8,2.9-1.2l9.8,6c1.1,0.7,1.5,2.2,1,3.5l0,0
		c-0.5,1.3-1.9,1.8-2.9,1.2l-9.8-6C531.9,448.9,531.5,447.3,532.1,446L532.1,446z"/>
	<path id="XMLID_408_" class="st2" d="M529.5,418.6c-0.5-1.3-0.1-2.9,1-3.5l9.9-5.7c1.1-0.6,2.4-0.1,2.9,1.2l0,0
		c0.5,1.3,0.1,2.9-1,3.5l-9.9,5.7C531.4,420.5,530.1,420,529.5,418.6L529.5,418.6z"/>
	<path id="XMLID_407_" class="st3" d="M596.4,462c0-1.4,1-2.6,2.2-2.6h11c1.2,0,2.2,1.2,2.2,2.6l0,0c0,1.4-1,2.6-2.2,2.6h-11
		C597.4,464.6,596.4,463.4,596.4,462L596.4,462z"/>
	<path id="XMLID_406_" class="st1" d="M574.6,465.7c0.5-1.3,1.9-1.8,2.9-1.2l9.8,6c1.1,0.7,1.5,2.2,1,3.5l0,0
		c-0.5,1.3-1.9,1.8-2.9,1.2l-9.8-6C574.5,468.6,574.1,467,574.6,465.7L574.6,465.7z"/>
	<path id="XMLID_405_" class="st0" d="M650.8,467.6c1.1-0.9,2.6-1,3.4-0.1l7.2,8.3c0.8,0.9,0.5,2.4-0.5,3.4l0,0
		c-1.1,0.9-2.6,1-3.4,0.1l-7.2-8.3C649.4,470.1,649.7,468.6,650.8,467.6L650.8,467.6z"/>
	<path id="XMLID_404_" class="st1" d="M588.5,432.5c0.5-1.3,1.9-1.8,2.9-1.2l9.8,6c1.1,0.7,1.5,2.2,1,3.5l0,0
		c-0.5,1.3-1.9,1.8-2.9,1.2l-9.8-6C588.3,435.4,587.9,433.8,588.5,432.5L588.5,432.5z"/>
	<path id="XMLID_403_" class="st2" d="M605.7,401.3c0.6-1.2,1.9-1.7,3-0.9l9.5,6.7c1,0.7,1.4,2.3,0.8,3.6l0,0
		c-0.6,1.2-1.9,1.7-3,0.9l-9.5-6.7C605.4,404.2,605.1,402.6,605.7,401.3L605.7,401.3z"/>
	<path id="XMLID_402_" class="st0" d="M590.8,500.9c1.4-0.3,2.8,0.5,3,1.7l2,10.8c0.2,1.2-0.8,2.4-2.2,2.6l0,0
		c-1.4,0.3-2.8-0.5-3-1.7l-2-10.8C588.4,502.3,589.4,501.1,590.8,500.9L590.8,500.9z"/>
	<path id="XMLID_401_" class="st1" d="M622.8,512.1c0.5-1.3,1.9-1.8,2.9-1.2l9.8,6c1.1,0.7,1.5,2.2,1,3.5l0,0
		c-0.5,1.3-1.9,1.8-2.9,1.2l-9.8-6C622.7,514.9,622.2,513.4,622.8,512.1L622.8,512.1z"/>
	<path id="XMLID_400_" class="st2" d="M632.7,495.5c-0.5-1.3-0.1-2.9,1-3.5l9.9-5.7c1.1-0.6,2.4-0.1,2.9,1.2l0,0
		c0.5,1.3,0.1,2.9-1,3.5l-9.9,5.7C634.6,497.3,633.3,496.8,632.7,495.5L632.7,495.5z"/>
	<path id="XMLID_399_" class="st2" d="M551.3,514.7c0.6-1.2,1.9-1.7,3-0.9l9.5,6.7c1,0.7,1.4,2.3,0.8,3.6l0,0
		c-0.6,1.2-1.9,1.7-3,0.9l-9.5-6.7C551.1,517.6,550.7,516,551.3,514.7L551.3,514.7z"/>
	<path id="XMLID_398_" class="st2" d="M558,483.7c-1.1-0.7-1.5-2.2-0.9-3.5l5.1-11.7c0.6-1.3,1.9-1.8,2.9-1.1l0,0
		c1.1,0.7,1.5,2.2,0.9,3.5l-5.1,11.7C560.4,483.8,559.1,484.3,558,483.7L558,483.7z"/>
	<path id="XMLID_397_" class="st0" d="M681.9,510.3c1.4,0.2,2.3,1.3,2,2.5l-2.6,11c-0.3,1.2-1.7,2-3.1,1.9l0,0
		c-1.4-0.2-2.3-1.3-2-2.5l2.6-11C679.1,511,680.4,510.2,681.9,510.3L681.9,510.3z"/>
	<path id="XMLID_396_" class="st3" d="M485.1,450.2c-0.6-1.3-0.2-2.9,0.8-3.6l9.5-6.6c1-0.7,2.4-0.3,3,1l0,0
		c0.6,1.3,0.2,2.9-0.8,3.6l-9.5,6.6C487,451.9,485.7,451.4,485.1,450.2L485.1,450.2z"/>
	<path id="XMLID_395_" class="st1" d="M477.3,526.8c-0.3-1.4,0.5-2.8,1.7-3.1l10.8-2.8c1.2-0.3,2.3,0.6,2.6,2l0,0
		c0.3,1.4-0.5,2.8-1.7,3.1l-10.8,2.8C478.7,529.1,477.5,528.2,477.3,526.8L477.3,526.8z"/>
	<path id="XMLID_394_" class="st2" d="M485.7,486.4c0.6-1.3,1.9-1.7,3-1l9.5,6.6c1,0.7,1.4,2.3,0.8,3.6l0,0c-0.6,1.3-1.9,1.7-3,1
		l-9.5-6.6C485.5,489.2,485.1,487.6,485.7,486.4L485.7,486.4z"/>
</g>
<g id="XMLID_375_">
	<path id="XMLID_392_" class="st0" d="M324.4,476.8c-1.4,0.3-2.8-0.5-3-1.7l-2-10.8c-0.2-1.2,0.8-2.4,2.2-2.6l0,0
		c1.4-0.3,2.8,0.5,3,1.7l2,10.8C326.8,475.3,325.8,476.5,324.4,476.8L324.4,476.8z"/>
	<path id="XMLID_391_" class="st1" d="M332.8,509c-0.5,1.3-1.9,1.8-2.9,1.2l-9.8-6c-1.1-0.7-1.5-2.2-1-3.5l0,0
		c0.5-1.3,1.9-1.8,2.9-1.2l9.8,6C333,506.2,333.4,507.7,332.8,509L332.8,509z"/>
	<path id="XMLID_390_" class="st2" d="M335.4,536.4c0.5,1.3,0.1,2.9-1,3.5l-9.9,5.7c-1.1,0.6-2.4,0.1-2.9-1.2l0,0
		c-0.5-1.3-0.1-2.9,1-3.5l9.9-5.7C333.5,534.5,334.8,535.1,335.4,536.4L335.4,536.4z"/>
	<path id="XMLID_389_" class="st3" d="M268.5,493c0,1.4-1,2.6-2.2,2.6h-11c-1.2,0-2.2-1.2-2.2-2.6l0,0c0-1.4,1-2.6,2.2-2.6h11
		C267.5,490.4,268.5,491.6,268.5,493L268.5,493z"/>
	<path id="XMLID_388_" class="st1" d="M290.3,489.3c-0.5,1.3-1.9,1.8-2.9,1.2l-9.8-6c-1.1-0.7-1.5-2.2-1-3.5l0,0
		c0.5-1.3,1.9-1.8,2.9-1.2l9.8,6C290.4,486.5,290.8,488,290.3,489.3L290.3,489.3z"/>
	<path id="XMLID_387_" class="st0" d="M214.1,487.4c-1.1,0.9-2.6,1-3.4,0.1l-7.2-8.3c-0.8-0.9-0.5-2.4,0.5-3.4l0,0
		c1.1-0.9,2.6-1,3.4-0.1l7.2,8.3C215.5,484.9,215.2,486.4,214.1,487.4L214.1,487.4z"/>
	<path id="XMLID_386_" class="st1" d="M276.4,522.5c-0.5,1.3-1.9,1.8-2.9,1.2l-9.8-6c-1.1-0.7-1.5-2.2-1-3.5l0,0
		c0.5-1.3,1.9-1.8,2.9-1.2l9.8,6C276.6,519.6,277,521.2,276.4,522.5L276.4,522.5z"/>
	<path id="XMLID_385_" class="st2" d="M259.2,553.7c-0.6,1.2-1.9,1.7-3,0.9l-9.5-6.7c-1-0.7-1.4-2.3-0.8-3.6l0,0
		c0.6-1.2,1.9-1.7,3-0.9l9.5,6.7C259.5,550.9,259.8,552.5,259.2,553.7L259.2,553.7z"/>
	<path id="XMLID_384_" class="st0" d="M274.1,454.2c-1.4,0.3-2.8-0.5-3-1.7l-2-10.8c-0.2-1.2,0.8-2.4,2.2-2.6l0,0
		c1.4-0.3,2.8,0.5,3,1.7l2,10.8C276.5,452.7,275.5,453.9,274.1,454.2L274.1,454.2z"/>
	<path id="XMLID_383_" class="st1" d="M242.1,443c-0.5,1.3-1.9,1.8-2.9,1.2l-9.8-6c-1.1-0.7-1.5-2.2-1-3.5l0,0
		c0.5-1.3,1.9-1.8,2.9-1.2l9.8,6C242.2,440.1,242.7,441.7,242.1,443L242.1,443z"/>
	<path id="XMLID_382_" class="st2" d="M232.2,459.5c0.5,1.3,0.1,2.9-1,3.5l-9.9,5.7c-1.1,0.6-2.4,0.1-2.9-1.2l0,0
		c-0.5-1.3-0.1-2.9,1-3.5l9.9-5.7C230.3,457.7,231.6,458.2,232.2,459.5L232.2,459.5z"/>
	<path id="XMLID_381_" class="st2" d="M313.6,440.3c-0.6,1.2-1.9,1.7-3,0.9l-9.5-6.7c-1-0.7-1.4-2.3-0.8-3.6l0,0
		c0.6-1.2,1.9-1.7,3-0.9l9.5,6.7C313.8,437.4,314.2,439,313.6,440.3L313.6,440.3z"/>
	<path id="XMLID_380_" class="st2" d="M306.9,471.3c1.1,0.7,1.5,2.2,0.9,3.5l-5.1,11.7c-0.6,1.3-1.9,1.8-2.9,1.1l0,0
		c-1.1-0.7-1.5-2.2-0.9-3.5l5.1-11.7C304.5,471.2,305.8,470.7,306.9,471.3L306.9,471.3z"/>
	<path id="XMLID_379_" class="st0" d="M183,444.7c-1.4-0.2-2.3-1.3-2-2.5l2.6-11c0.3-1.2,1.7-2,3.1-1.9l0,0c1.4,0.2,2.3,1.3,2,2.5
		l-2.6,11C185.8,444,184.5,444.8,183,444.7L183,444.7z"/>
	<path id="XMLID_378_" class="st3" d="M379.8,504.8c0.6,1.3,0.2,2.9-0.8,3.6l-9.5,6.6c-1,0.7-2.4,0.3-3-1l0,0
		c-0.6-1.3-0.2-2.9,0.8-3.6l9.5-6.6C377.9,503.1,379.2,503.6,379.8,504.8L379.8,504.8z"/>
	<path id="XMLID_377_" class="st1" d="M387.6,428.3c0.3,1.4-0.5,2.8-1.7,3.1l-10.8,2.8c-1.2,0.3-2.3-0.6-2.6-2l0,0
		c-0.3-1.4,0.5-2.8,1.7-3.1l10.8-2.8C386.2,426,387.3,426.9,387.6,428.3L387.6,428.3z"/>
	<path id="XMLID_376_" class="st2" d="M379.2,468.6c-0.6,1.3-1.9,1.7-3,1l-9.5-6.6c-1-0.7-1.4-2.3-0.8-3.6l0,0c0.6-1.3,1.9-1.7,3-1
		l9.5,6.6C379.4,465.8,379.8,467.4,379.2,468.6L379.2,468.6z"/>
</g>
<g id="XMLID_357_">
	<path id="XMLID_374_" class="st0" d="M131.4,552.3c-1.4,0.3-2.8-0.5-3-1.7l-2-10.8c-0.2-1.2,0.8-2.4,2.2-2.6l0,0
		c1.4-0.3,2.8,0.5,3,1.7l2,10.8C133.8,550.9,132.8,552.1,131.4,552.3L131.4,552.3z"/>
	<path id="XMLID_373_" class="st1" d="M139.9,584.6c-0.5,1.3-1.9,1.8-2.9,1.2l-9.8-6c-1.1-0.7-1.5-2.2-1-3.5l0,0
		c0.5-1.3,1.9-1.8,2.9-1.2l9.8,6C140,581.8,140.4,583.3,139.9,584.6L139.9,584.6z"/>
	<path id="XMLID_372_" class="st2" d="M142.4,612c0.5,1.3,0.1,2.9-1,3.5l-9.9,5.7c-1.1,0.6-2.4,0.1-2.9-1.2l0,0
		c-0.5-1.3-0.1-2.9,1-3.5l9.9-5.7C140.6,610.1,141.9,610.7,142.4,612L142.4,612z"/>
	<path id="XMLID_371_" class="st3" d="M75.5,568.6c0,1.4-1,2.6-2.2,2.6h-11c-1.2,0-2.2-1.2-2.2-2.6l0,0c0-1.4,1-2.6,2.2-2.6h11
		C74.5,566,75.5,567.2,75.5,568.6L75.5,568.6z"/>
	<path id="XMLID_370_" class="st1" d="M97.3,564.9c-0.5,1.3-1.9,1.8-2.9,1.2l-9.8-6c-1.1-0.7-1.5-2.2-1-3.5l0,0
		c0.5-1.3,1.9-1.8,2.9-1.2l9.8,6C97.4,562,97.9,563.6,97.3,564.9L97.3,564.9z"/>
	<path id="XMLID_369_" class="st0" d="M21.1,563c-1.1,0.9-2.6,1-3.4,0.1l-7.2-8.3c-0.8-0.9-0.5-2.4,0.5-3.4l0,0
		c1.1-0.9,2.6-1,3.4-0.1l7.2,8.3C22.5,560.5,22.2,562,21.1,563L21.1,563z"/>
	<path id="XMLID_368_" class="st1" d="M83.5,598.1c-0.5,1.3-1.9,1.8-2.9,1.2l-9.8-6c-1.1-0.7-1.5-2.2-1-3.5l0,0
		c0.5-1.3,1.9-1.8,2.9-1.2l9.8,6C83.6,595.2,84,596.8,83.5,598.1L83.5,598.1z"/>
	<path id="XMLID_367_" class="st2" d="M66.3,629.3c-0.6,1.2-1.9,1.7-3,0.9l-9.5-6.7c-1-0.7-1.4-2.3-0.8-3.6l0,0
		c0.6-1.2,1.9-1.7,3-0.9l9.5,6.7C66.5,626.5,66.9,628.1,66.3,629.3L66.3,629.3z"/>
	<path id="XMLID_366_" class="st0" d="M81.1,529.8c-1.4,0.3-2.8-0.5-3-1.7l-2-10.8c-0.2-1.2,0.8-2.4,2.2-2.6l0,0
		c1.4-0.3,2.8,0.5,3,1.7l2,10.8C83.5,528.3,82.5,529.5,81.1,529.8L81.1,529.8z"/>
	<path id="XMLID_365_" class="st1" d="M49.1,518.6c-0.5,1.3-1.9,1.8-2.9,1.2l-9.8-6c-1.1-0.7-1.5-2.2-1-3.5l0,0
		c0.5-1.3,1.9-1.8,2.9-1.2l9.8,6C49.3,515.7,49.7,517.3,49.1,518.6L49.1,518.6z"/>
	<path id="XMLID_364_" class="st2" d="M39.2,535.1c0.5,1.3,0.1,2.9-1,3.5l-9.9,5.7c-1.1,0.6-2.4,0.1-2.9-1.2l0,0
		c-0.5-1.3-0.1-2.9,1-3.5l9.9-5.7C37.4,533.3,38.7,533.8,39.2,535.1L39.2,535.1z"/>
	<path id="XMLID_363_" class="st2" d="M120.6,515.9c-0.6,1.2-1.9,1.7-3,0.9l-9.5-6.7c-1-0.7-1.4-2.3-0.8-3.6l0,0
		c0.6-1.2,1.9-1.7,3-0.9l9.5,6.7C120.9,513,121.2,514.6,120.6,515.9L120.6,515.9z"/>
	<path id="XMLID_362_" class="st2" d="M113.9,546.9c1.1,0.7,1.5,2.2,0.9,3.5l-5.1,11.7c-0.6,1.3-1.9,1.8-2.9,1.1l0,0
		c-1.1-0.7-1.5-2.2-0.9-3.5l5.1-11.7C111.5,546.8,112.9,546.3,113.9,546.9L113.9,546.9z"/>
	<path id="XMLID_361_" class="st0" d="M-9.9,520.3c-1.4-0.2-2.3-1.3-2-2.5l2.6-11c0.3-1.2,1.7-2,3.1-1.9l0,0c1.4,0.2,2.3,1.3,2,2.5
		l-2.6,11C-7.2,519.6-8.5,520.4-9.9,520.3L-9.9,520.3z"/>
	<path id="XMLID_360_" class="st3" d="M186.8,580.4c0.6,1.3,0.2,2.9-0.8,3.6l-9.5,6.6c-1,0.7-2.4,0.3-3-1l0,0
		c-0.6-1.3-0.2-2.9,0.8-3.6l9.5-6.6C184.9,578.7,186.2,579.2,186.8,580.4L186.8,580.4z"/>
	<path id="XMLID_359_" class="st1" d="M194.6,503.9c0.3,1.4-0.5,2.8-1.7,3.1l-10.8,2.8c-1.2,0.3-2.3-0.6-2.6-2l0,0
		c-0.3-1.4,0.5-2.8,1.7-3.1l10.8-2.8C193.2,501.6,194.4,502.4,194.6,503.9L194.6,503.9z"/>
	<path id="XMLID_358_" class="st2" d="M186.2,544.2c-0.6,1.3-1.9,1.7-3,1l-9.5-6.6c-1-0.7-1.4-2.3-0.8-3.6l0,0c0.6-1.3,1.9-1.7,3-1
		l9.5,6.6C186.4,541.4,186.8,543,186.2,544.2L186.2,544.2z"/>
</g>
<g id="XMLID_339_">
	<path id="XMLID_356_" class="st0" d="M-43.8,486.9c1.4-0.3,2.8,0.5,3,1.7l2,10.8c0.2,1.2-0.8,2.4-2.2,2.6l0,0
		c-1.4,0.3-2.8-0.5-3-1.7l-2-10.8C-46.2,488.3-45.2,487.1-43.8,486.9L-43.8,486.9z"/>
	<path id="XMLID_355_" class="st1" d="M-52.3,454.6c0.5-1.3,1.9-1.8,2.9-1.2l9.8,6c1.1,0.7,1.5,2.2,1,3.5l0,0
		c-0.5,1.3-1.9,1.8-2.9,1.2l-9.8-6C-52.4,457.5-52.8,455.9-52.3,454.6L-52.3,454.6z"/>
	<path id="XMLID_354_" class="st2" d="M-54.8,427.3c-0.5-1.3-0.1-2.9,1-3.5l9.9-5.7c1.1-0.6,2.4-0.1,2.9,1.2l0,0
		c0.5,1.3,0.1,2.9-1,3.5l-9.9,5.7C-53,429.1-54.3,428.6-54.8,427.3L-54.8,427.3z"/>
	<path id="XMLID_353_" class="st3" d="M12.1,470.6c0-1.4,1-2.6,2.2-2.6h11c1.2,0,2.2,1.2,2.2,2.6l0,0c0,1.4-1,2.6-2.2,2.6h-11
		C13.1,473.2,12.1,472.1,12.1,470.6L12.1,470.6z"/>
	<path id="XMLID_352_" class="st1" d="M-9.7,474.3c0.5-1.3,1.9-1.8,2.9-1.2l9.8,6c1.1,0.7,1.5,2.2,1,3.5l0,0
		c-0.5,1.3-1.9,1.8-2.9,1.2l-9.8-6C-9.8,477.2-10.3,475.6-9.7,474.3L-9.7,474.3z"/>
	<path id="XMLID_351_" class="st0" d="M66.4,476.2c1.1-0.9,2.6-1,3.4-0.1l7.2,8.3c0.8,0.9,0.5,2.4-0.5,3.4l0,0
		c-1.1,0.9-2.6,1-3.4,0.1l-7.2-8.3C65.1,478.7,65.4,477.2,66.4,476.2L66.4,476.2z"/>
	<path id="XMLID_350_" class="st1" d="M4.1,441.1c0.5-1.3,1.9-1.8,2.9-1.2l9.8,6c1.1,0.7,1.5,2.2,1,3.5l0,0
		c-0.5,1.3-1.9,1.8-2.9,1.2l-9.8-6C4,444,3.6,442.4,4.1,441.1L4.1,441.1z"/>
	<path id="XMLID_349_" class="st2" d="M21.3,409.9c0.6-1.2,1.9-1.7,3-0.9l9.5,6.7c1,0.7,1.4,2.3,0.8,3.6l0,0c-0.6,1.2-1.9,1.7-3,0.9
		l-9.5-6.7C21.1,412.8,20.7,411.2,21.3,409.9L21.3,409.9z"/>
	<path id="XMLID_348_" class="st0" d="M6.5,509.5c1.4-0.3,2.8,0.5,3,1.7l2,10.8c0.2,1.2-0.8,2.4-2.2,2.6l0,0c-1.4,0.3-2.8-0.5-3-1.7
		l-2-10.8C4.1,510.9,5,509.7,6.5,509.5L6.5,509.5z"/>
	<path id="XMLID_347_" class="st1" d="M38.4,520.7c0.5-1.3,1.9-1.8,2.9-1.2l9.8,6c1.1,0.7,1.5,2.2,1,3.5l0,0
		c-0.5,1.3-1.9,1.8-2.9,1.2l-9.8-6C38.3,523.5,37.9,522,38.4,520.7L38.4,520.7z"/>
	<path id="XMLID_346_" class="st2" d="M48.4,504.1c-0.5-1.3-0.1-2.9,1-3.5l9.9-5.7c1.1-0.6,2.4-0.1,2.9,1.2l0,0
		c0.5,1.3,0.1,2.9-1,3.5l-9.9,5.7C50.2,505.9,48.9,505.4,48.4,504.1L48.4,504.1z"/>
	<path id="XMLID_345_" class="st2" d="M-33,523.3c0.6-1.2,1.9-1.7,3-0.9l9.5,6.7c1,0.7,1.4,2.3,0.8,3.6l0,0c-0.6,1.2-1.9,1.7-3,0.9
		l-9.5-6.7C-33.3,526.2-33.6,524.6-33,523.3L-33,523.3z"/>
	<path id="XMLID_344_" class="st2" d="M-26.3,492.3c-1.1-0.7-1.5-2.2-0.9-3.5l5.1-11.7c0.6-1.3,1.9-1.8,2.9-1.1l0,0
		c1.1,0.7,1.5,2.2,0.9,3.5l-5.1,11.7C-24,492.5-25.3,493-26.3,492.3L-26.3,492.3z"/>
	<path id="XMLID_343_" class="st0" d="M97.5,518.9c1.4,0.2,2.3,1.3,2,2.5l-2.6,11c-0.3,1.2-1.7,2-3.1,1.9l0,0
		c-1.4-0.2-2.3-1.3-2-2.5l2.6-11C94.8,519.6,96.1,518.8,97.5,518.9L97.5,518.9z"/>
	<path id="XMLID_342_" class="st3" d="M-99.2,458.8c-0.6-1.3-0.2-2.9,0.8-3.6l9.5-6.6c1-0.7,2.4-0.3,3,1l0,0
		c0.6,1.3,0.2,2.9-0.8,3.6l-9.5,6.6C-97.3,460.5-98.6,460-99.2,458.8L-99.2,458.8z"/>
	<path id="XMLID_341_" class="st1" d="M-107,535.4c-0.3-1.4,0.5-2.8,1.7-3.1l10.8-2.8c1.2-0.3,2.3,0.6,2.6,2l0,0
		c0.3,1.4-0.5,2.8-1.7,3.1l-10.8,2.8C-105.6,537.7-106.8,536.8-107,535.4L-107,535.4z"/>
	<path id="XMLID_340_" class="st2" d="M-98.6,495c0.6-1.3,1.9-1.7,3-1l9.5,6.6c1,0.7,1.4,2.3,0.8,3.6l0,0c-0.6,1.3-1.9,1.7-3,1
		l-9.5-6.6C-98.9,497.9-99.2,496.3-98.6,495L-98.6,495z"/>
</g>
<g id="XMLID_321_">
	<path id="XMLID_338_" class="st0" d="M53.5,418.3c1.4-0.3,2.8,0.5,3,1.7l2,10.8c0.2,1.2-0.8,2.4-2.2,2.6l0,0
		c-1.4,0.3-2.8-0.5-3-1.7l-2-10.8C51.1,419.7,52.1,418.5,53.5,418.3L53.5,418.3z"/>
	<path id="XMLID_337_" class="st1" d="M45.1,386c0.5-1.3,1.9-1.8,2.9-1.2l9.8,6c1.1,0.7,1.5,2.2,1,3.5l0,0c-0.5,1.3-1.9,1.8-2.9,1.2
		l-9.8-6C44.9,388.9,44.5,387.3,45.1,386L45.1,386z"/>
	<path id="XMLID_336_" class="st2" d="M42.5,358.6c-0.5-1.3-0.1-2.9,1-3.5l9.9-5.7c1.1-0.6,2.4-0.1,2.9,1.2l0,0
		c0.5,1.3,0.1,2.9-1,3.5l-9.9,5.7C44.4,360.5,43.1,360,42.5,358.6L42.5,358.6z"/>
	<path id="XMLID_335_" class="st3" d="M109.4,402c0-1.4,1-2.6,2.2-2.6h11c1.2,0,2.2,1.2,2.2,2.6l0,0c0,1.4-1,2.6-2.2,2.6h-11
		C110.4,404.6,109.4,403.4,109.4,402L109.4,402z"/>
	<path id="XMLID_334_" class="st1" d="M87.6,405.7c0.5-1.3,1.9-1.8,2.9-1.2l9.8,6c1.1,0.7,1.5,2.2,1,3.5l0,0
		c-0.5,1.3-1.9,1.8-2.9,1.2l-9.8-6C87.5,408.6,87.1,407,87.6,405.7L87.6,405.7z"/>
	<path id="XMLID_333_" class="st0" d="M163.8,407.6c1.1-0.9,2.6-1,3.4-0.1l7.2,8.3c0.8,0.9,0.5,2.4-0.5,3.4l0,0
		c-1.1,0.9-2.6,1-3.4,0.1l-7.2-8.3C162.4,410.1,162.7,408.6,163.8,407.6L163.8,407.6z"/>
	<path id="XMLID_332_" class="st1" d="M101.5,372.5c0.5-1.3,1.9-1.8,2.9-1.2l9.8,6c1.1,0.7,1.5,2.2,1,3.5l0,0
		c-0.5,1.3-1.9,1.8-2.9,1.2l-9.8-6C101.3,375.4,100.9,373.8,101.5,372.5L101.5,372.5z"/>
	<path id="XMLID_331_" class="st2" d="M118.7,341.3c0.6-1.2,1.9-1.7,3-0.9l9.5,6.7c1,0.7,1.4,2.3,0.8,3.6l0,0
		c-0.6,1.2-1.9,1.7-3,0.9l-9.5-6.7C118.4,344.2,118.1,342.6,118.7,341.3L118.7,341.3z"/>
	<path id="XMLID_330_" class="st0" d="M103.8,440.9c1.4-0.3,2.8,0.5,3,1.7l2,10.8c0.2,1.2-0.8,2.4-2.2,2.6l0,0
		c-1.4,0.3-2.8-0.5-3-1.7l-2-10.8C101.4,442.3,102.4,441.1,103.8,440.9L103.8,440.9z"/>
	<path id="XMLID_329_" class="st1" d="M135.8,452.1c0.5-1.3,1.9-1.8,2.9-1.2l9.8,6c1.1,0.7,1.5,2.2,1,3.5l0,0
		c-0.5,1.3-1.9,1.8-2.9,1.2l-9.8-6C135.7,454.9,135.2,453.4,135.8,452.1L135.8,452.1z"/>
	<path id="XMLID_328_" class="st2" d="M145.7,435.5c-0.5-1.3-0.1-2.9,1-3.5l9.9-5.7c1.1-0.6,2.4-0.1,2.9,1.2l0,0
		c0.5,1.3,0.1,2.9-1,3.5l-9.9,5.7C147.6,437.3,146.3,436.8,145.7,435.5L145.7,435.5z"/>
	<path id="XMLID_327_" class="st2" d="M64.3,454.7c0.6-1.2,1.9-1.7,3-0.9l9.5,6.7c1,0.7,1.4,2.3,0.8,3.6l0,0c-0.6,1.2-1.9,1.7-3,0.9
		l-9.5-6.7C64.1,457.6,63.7,456,64.3,454.7L64.3,454.7z"/>
	<path id="XMLID_326_" class="st2" d="M71,423.7c-1.1-0.7-1.5-2.2-0.9-3.5l5.1-11.7c0.6-1.3,1.9-1.8,2.9-1.1l0,0
		c1.1,0.7,1.5,2.2,0.9,3.5l-5.1,11.7C73.4,423.8,72.1,424.3,71,423.7L71,423.7z"/>
	<path id="XMLID_325_" class="st0" d="M194.9,450.3c1.4,0.2,2.3,1.3,2,2.5l-2.6,11c-0.3,1.2-1.7,2-3.1,1.9l0,0
		c-1.4-0.2-2.3-1.3-2-2.5l2.6-11C192.1,451,193.4,450.2,194.9,450.3L194.9,450.3z"/>
	<path id="XMLID_324_" class="st3" d="M-1.9,390.2c-0.6-1.3-0.2-2.9,0.8-3.6l9.5-6.6c1-0.7,2.4-0.3,3,1l0,0c0.6,1.3,0.2,2.9-0.8,3.6
		l-9.5,6.6C0,391.9-1.3,391.4-1.9,390.2L-1.9,390.2z"/>
	<path id="XMLID_323_" class="st1" d="M-9.7,466.8c-0.3-1.4,0.5-2.8,1.7-3.1l10.8-2.8c1.2-0.3,2.3,0.6,2.6,2l0,0
		c0.3,1.4-0.5,2.8-1.7,3.1l-10.8,2.8C-8.3,469.1-9.5,468.2-9.7,466.8L-9.7,466.8z"/>
	<path id="XMLID_322_" class="st2" d="M-1.3,426.4c0.6-1.3,1.9-1.7,3-1l9.5,6.6c1,0.7,1.4,2.3,0.8,3.6l0,0c-0.6,1.3-1.9,1.7-3,1
		l-9.5-6.6C-1.5,429.2-1.9,427.6-1.3,426.4L-1.3,426.4z"/>
</g>
<g id="XMLID_303_">
	<path id="XMLID_320_" class="st0" d="M228.6,518.6c-1,1-2.6,1.1-3.4,0.2l-7.6-7.9c-0.8-0.9-0.7-2.4,0.4-3.4l0,0
		c1-1,2.6-1.1,3.4-0.2l7.6,7.9C229.8,516.1,229.6,517.6,228.6,518.6L228.6,518.6z"/>
	<path id="XMLID_319_" class="st1" d="M253.4,541c0.3,1.4-0.6,2.5-1.8,2.6l-11.5,0.4c-1.3,0-2.5-1-2.7-2.4l0,0
		c-0.3-1.4,0.6-2.5,1.8-2.6l11.5-0.4C251.9,538.5,253.1,539.6,253.4,541L253.4,541z"/>
	<path id="XMLID_318_" class="st2" d="M270.5,562.5c1.1,0.8,1.6,2.4,1.1,3.5l-5.2,10.2c-0.6,1.1-2,1.4-3.1,0.6l0,0
		c-1.2-0.8-1.6-2.4-1.1-3.5l5.2-10.2C267.9,561.9,269.3,561.6,270.5,562.5L270.5,562.5z"/>
	<path id="XMLID_317_" class="st3" d="M190.8,562.9c0.8,1.2,0.6,2.7-0.4,3.4l-9.2,6c-1,0.7-2.5,0.2-3.3-1l0,0
		c-0.8-1.2-0.6-2.7,0.4-3.4l9.2-6C188.5,561.2,190,561.7,190.8,562.9L190.8,562.9z"/>
	<path id="XMLID_316_" class="st1" d="M207,547.8c0.3,1.4-0.6,2.5-1.8,2.6l-11.5,0.4c-1.3,0-2.5-1-2.7-2.4l0,0
		c-0.3-1.4,0.6-2.5,1.8-2.6l11.5-0.4C205.5,545.4,206.7,546.5,207,547.8L207,547.8z"/>
	<path id="XMLID_315_" class="st0" d="M142.2,588c-0.4,1.4-1.6,2.3-2.8,1.9l-10.6-3c-1.2-0.3-1.8-1.7-1.4-3.1l0,0
		c0.4-1.4,1.6-2.3,2.8-1.9l10.6,3C142,585.2,142.6,586.6,142.2,588L142.2,588z"/>
	<path id="XMLID_314_" class="st1" d="M213.6,583.2c0.3,1.4-0.6,2.5-1.8,2.6l-11.5,0.4c-1.3,0-2.5-1-2.7-2.4l0,0
		c-0.3-1.4,0.6-2.5,1.8-2.6l11.5-0.4C212.1,580.7,213.3,581.8,213.6,583.2L213.6,583.2z"/>
	<path id="XMLID_313_" class="st2" d="M216.3,618.7c0.2,1.4-0.7,2.5-2,2.4l-11.6-0.4c-1.3,0-2.4-1.2-2.6-2.6l0,0
		c-0.2-1.4,0.7-2.5,2-2.4l11.6,0.4C215,616.2,216.2,617.3,216.3,618.7L216.3,618.7z"/>
	<path id="XMLID_312_" class="st0" d="M174.1,527.3c-1,1-2.6,1.1-3.4,0.2l-7.6-7.9c-0.8-0.9-0.7-2.4,0.4-3.4l0,0
		c1-1,2.6-1.1,3.4-0.2l7.6,7.9C175.4,524.8,175.2,526.3,174.1,527.3L174.1,527.3z"/>
	<path id="XMLID_311_" class="st1" d="M141.3,535.5c0.3,1.4-0.6,2.5-1.8,2.6l-11.5,0.4c-1.3,0-2.5-1-2.7-2.4l0,0
		c-0.3-1.4,0.6-2.5,1.8-2.6l11.5-0.4C139.8,533,141,534.1,141.3,535.5L141.3,535.5z"/>
	<path id="XMLID_310_" class="st2" d="M142,554.8c1.1,0.8,1.6,2.4,1.1,3.5l-5.2,10.2c-0.6,1.1-2,1.4-3.1,0.6l0,0
		c-1.1-0.8-1.6-2.4-1.1-3.5l5.2-10.2C139.5,554.3,140.9,554,142,554.8L142,554.8z"/>
	<path id="XMLID_309_" class="st2" d="M199.5,494.1c0.2,1.4-0.7,2.5-2,2.4l-11.6-0.4c-1.3,0-2.4-1.2-2.6-2.6l0,0
		c-0.2-1.4,0.7-2.5,2-2.4l11.6,0.4C198.2,491.5,199.4,492.7,199.5,494.1L199.5,494.1z"/>
	<path id="XMLID_308_" class="st2" d="M211,523.7c1.3,0,2.5,1.1,2.7,2.4l2.2,12.6c0.2,1.4-0.6,2.5-1.8,2.5l0,0
		c-1.3,0-2.5-1.1-2.7-2.4l-2.2-12.6C208.9,524.9,209.7,523.7,211,523.7L211,523.7z"/>
	<path id="XMLID_307_" class="st0" d="M92.8,569.3c-1.3,0.6-2.6,0.2-3.1-0.9l-3.9-10.6c-0.4-1.2,0.3-2.6,1.5-3.3l0,0
		c1.3-0.6,2.6-0.2,3.1,0.9l3.9,10.6C94.8,567.2,94.1,568.7,92.8,569.3L92.8,569.3z"/>
	<path id="XMLID_306_" class="st3" d="M290.3,511.7c1.2,0.7,1.8,2.3,1.3,3.4l-4.4,10.7c-0.5,1.2-1.8,1.5-3,0.8l0,0
		c-1.2-0.7-1.8-2.3-1.3-3.4l4.4-10.7C287.8,511.3,289.1,511,290.3,511.7L290.3,511.7z"/>
	<path id="XMLID_305_" class="st1" d="M254.8,443.4c1,1,1.1,2.6,0.3,3.5l-7.5,8.2c-0.8,0.9-2.3,0.8-3.3-0.3l0,0
		c-1-1-1.1-2.6-0.3-3.5l7.5-8.2C252.4,442.2,253.8,442.4,254.8,443.4L254.8,443.4z"/>
	<path id="XMLID_304_" class="st2" d="M269.9,481.8c0.2,1.4-0.7,2.5-2,2.4l-11.6-0.3c-1.3,0-2.4-1.2-2.6-2.6l0,0
		c-0.2-1.4,0.7-2.5,2-2.4l11.6,0.3C268.6,479.2,269.7,480.4,269.9,481.8L269.9,481.8z"/>
</g>
<g id="XMLID_285_">
	<path id="XMLID_302_" class="st0" d="M65.2,490.2c-1,1-2.6,1.1-3.4,0.2l-7.6-7.9c-0.8-0.9-0.7-2.4,0.4-3.4l0,0c1-1,2.6-1.1,3.4-0.2
		l7.6,7.9C66.4,487.7,66.3,489.2,65.2,490.2L65.2,490.2z"/>
	<path id="XMLID_301_" class="st1" d="M90,512.5c0.3,1.4-0.6,2.5-1.8,2.6l-11.5,0.4c-1.3,0-2.5-1-2.7-2.4l0,0
		c-0.3-1.4,0.6-2.5,1.8-2.6l11.5-0.4C88.5,510.1,89.7,511.1,90,512.5L90,512.5z"/>
	<path id="XMLID_300_" class="st2" d="M107.1,534c1.1,0.8,1.6,2.4,1.1,3.5l-5.2,10.2c-0.6,1.1-2,1.4-3.1,0.6l0,0
		c-1.2-0.8-1.6-2.4-1.1-3.5l5.2-10.2C104.6,533.5,105.9,533.2,107.1,534L107.1,534z"/>
	<path id="XMLID_299_" class="st3" d="M27.4,534.4c0.8,1.2,0.6,2.7-0.4,3.4l-9.2,6c-1,0.7-2.5,0.2-3.3-1l0,0
		c-0.8-1.2-0.6-2.7,0.4-3.4l9.2-6C25.2,532.8,26.6,533.2,27.4,534.4L27.4,534.4z"/>
	<path id="XMLID_298_" class="st1" d="M43.6,519.4c0.3,1.4-0.6,2.5-1.8,2.6l-11.5,0.4c-1.3,0-2.5-1-2.7-2.4l0,0
		c-0.3-1.4,0.6-2.5,1.8-2.6l11.5-0.4C42.1,516.9,43.3,518,43.6,519.4L43.6,519.4z"/>
	<path id="XMLID_297_" class="st0" d="M-21.1,559.6c-0.4,1.4-1.6,2.3-2.8,1.9l-10.6-3c-1.2-0.3-1.8-1.7-1.4-3.1l0,0
		c0.4-1.4,1.6-2.3,2.8-1.9l10.6,3C-21.4,556.8-20.8,558.2-21.1,559.6L-21.1,559.6z"/>
	<path id="XMLID_296_" class="st1" d="M50.2,554.7c0.3,1.4-0.6,2.5-1.8,2.6l-11.5,0.4c-1.3,0-2.5-1-2.7-2.4l0,0
		c-0.3-1.4,0.6-2.5,1.8-2.6l11.5-0.4C48.7,552.3,50,553.4,50.2,554.7L50.2,554.7z"/>
	<path id="XMLID_295_" class="st2" d="M53,590.3c0.2,1.4-0.7,2.5-2,2.4l-11.6-0.4c-1.3,0-2.4-1.2-2.6-2.6l0,0
		c-0.2-1.4,0.7-2.5,2-2.4l11.6,0.4C51.6,587.7,52.8,588.9,53,590.3L53,590.3z"/>
	<path id="XMLID_294_" class="st0" d="M10.8,498.9c-1,1-2.6,1.1-3.4,0.2l-7.6-7.9c-0.8-0.9-0.7-2.4,0.4-3.4l0,0c1-1,2.6-1.1,3.4-0.2
		l7.6,7.9C12,496.4,11.8,497.9,10.8,498.9L10.8,498.9z"/>
	<path id="XMLID_293_" class="st1" d="M-22.1,507c0.3,1.4-0.6,2.5-1.8,2.6l-11.5,0.4c-1.3,0-2.5-1-2.7-2.4l0,0
		c-0.3-1.4,0.6-2.5,1.8-2.6l11.5-0.4C-23.6,504.6-22.4,505.7-22.1,507L-22.1,507z"/>
	<path id="XMLID_292_" class="st2" d="M-21.3,526.4c1.1,0.8,1.6,2.4,1.1,3.5l-5.2,10.2c-0.6,1.1-2,1.4-3.1,0.6l0,0
		c-1.1-0.8-1.6-2.4-1.1-3.5l5.2-10.2C-23.9,525.8-22.5,525.6-21.3,526.4L-21.3,526.4z"/>
	<path id="XMLID_291_" class="st2" d="M36.2,465.6c0.2,1.4-0.7,2.5-2,2.4l-11.6-0.4c-1.3,0-2.4-1.2-2.6-2.6l0,0
		c-0.2-1.4,0.7-2.5,2-2.4l11.6,0.4C34.8,463.1,36,464.2,36.2,465.6L36.2,465.6z"/>
	<path id="XMLID_290_" class="st2" d="M47.6,495.2c1.3,0,2.5,1.1,2.7,2.4l2.2,12.6c0.2,1.4-0.6,2.5-1.8,2.5l0,0
		c-1.3,0-2.5-1.1-2.7-2.4l-2.2-12.6C45.5,496.4,46.4,495.3,47.6,495.2L47.6,495.2z"/>
	<path id="XMLID_289_" class="st0" d="M-70.6,540.9c-1.3,0.6-2.6,0.2-3.1-0.9l-3.9-10.6c-0.4-1.2,0.3-2.6,1.5-3.3l0,0
		c1.3-0.6,2.6-0.2,3.1,0.9l3.9,10.6C-68.6,538.8-69.3,540.3-70.6,540.9L-70.6,540.9z"/>
	<path id="XMLID_288_" class="st3" d="M126.9,483.3c1.2,0.7,1.8,2.3,1.3,3.4l-4.4,10.7c-0.5,1.2-1.8,1.5-3,0.8l0,0
		c-1.2-0.7-1.8-2.3-1.3-3.4l4.4-10.7C124.4,482.9,125.8,482.5,126.9,483.3L126.9,483.3z"/>
	<path id="XMLID_287_" class="st1" d="M91.5,415c1,1,1.1,2.6,0.3,3.5l-7.5,8.2c-0.8,0.9-2.3,0.8-3.3-0.3l0,0c-1-1-1.1-2.6-0.3-3.5
		l7.5-8.2C89,413.8,90.5,413.9,91.5,415L91.5,415z"/>
	<path id="XMLID_286_" class="st2" d="M106.6,453.3c0.2,1.4-0.7,2.5-2,2.4L93,455.4c-1.3,0-2.4-1.2-2.6-2.6l0,0
		c-0.2-1.4,0.7-2.5,2-2.4l11.6,0.3C105.2,450.8,106.4,451.9,106.6,453.3L106.6,453.3z"/>
</g>
<g id="XMLID_177_">
	<path id="XMLID_194_" class="st0" d="M-117.2,531.6c1-1,2.6-1.1,3.4-0.2l7.6,7.9c0.8,0.9,0.7,2.4-0.4,3.4l0,0c-1,1-2.6,1.1-3.4,0.2
		l-7.6-7.9C-118.4,534.1-118.2,532.6-117.2,531.6L-117.2,531.6z"/>
	<path id="XMLID_193_" class="st1" d="M-142,509.2c-0.3-1.4,0.6-2.5,1.8-2.6l11.5-0.4c1.3,0,2.5,1,2.7,2.4l0,0
		c0.3,1.4-0.6,2.5-1.8,2.6l-11.5,0.4C-140.5,511.7-141.7,510.6-142,509.2L-142,509.2z"/>
	<path id="XMLID_192_" class="st2" d="M-159.1,487.7c-1.1-0.8-1.6-2.4-1.1-3.5l5.2-10.2c0.6-1.1,2-1.4,3.1-0.6l0,0
		c1.2,0.8,1.6,2.4,1.1,3.5l-5.2,10.2C-156.5,488.3-157.9,488.5-159.1,487.7L-159.1,487.7z"/>
	<path id="XMLID_191_" class="st3" d="M-79.4,487.3c-0.8-1.2-0.6-2.7,0.4-3.4l9.2-6c1-0.7,2.5-0.2,3.3,1l0,0
		c0.8,1.2,0.6,2.7-0.4,3.4l-9.2,6C-77.1,488.9-78.6,488.5-79.4,487.3L-79.4,487.3z"/>
	<path id="XMLID_190_" class="st1" d="M-95.6,502.3c-0.3-1.4,0.6-2.5,1.8-2.6l11.5-0.4c1.3,0,2.5,1,2.7,2.4l0,0
		c0.3,1.4-0.6,2.5-1.8,2.6l-11.5,0.4C-94.1,504.8-95.3,503.7-95.6,502.3L-95.6,502.3z"/>
	<path id="XMLID_189_" class="st0" d="M-30.8,462.2c0.4-1.4,1.6-2.3,2.8-1.9l10.6,3c1.2,0.3,1.8,1.7,1.4,3.1l0,0
		c-0.4,1.4-1.6,2.3-2.8,1.9l-10.6-3C-30.6,465-31.2,463.6-30.8,462.2L-30.8,462.2z"/>
	<path id="XMLID_188_" class="st1" d="M-102.2,467c-0.3-1.4,0.6-2.5,1.8-2.6l11.5-0.4c1.3,0,2.5,1,2.7,2.4l0,0
		c0.3,1.4-0.6,2.5-1.8,2.6l-11.5,0.4C-100.7,469.4-102,468.4-102.2,467L-102.2,467z"/>
	<path id="XMLID_187_" class="st2" d="M-105,431.5c-0.2-1.4,0.7-2.5,2-2.4l11.6,0.4c1.3,0,2.4,1.2,2.6,2.6l0,0
		c0.2,1.4-0.7,2.5-2,2.4l-11.6-0.4C-103.6,434-104.8,432.8-105,431.5L-105,431.5z"/>
	<path id="XMLID_186_" class="st0" d="M-62.8,522.9c1-1,2.6-1.1,3.4-0.2l7.6,7.9c0.8,0.9,0.7,2.4-0.4,3.4l0,0c-1,1-2.6,1.1-3.4,0.2
		l-7.6-7.9C-64,525.4-63.8,523.9-62.8,522.9L-62.8,522.9z"/>
	<path id="XMLID_185_" class="st1" d="M-29.9,514.7c-0.3-1.4,0.6-2.5,1.8-2.6l11.5-0.4c1.3,0,2.5,1,2.7,2.4l0,0
		c0.3,1.4-0.6,2.5-1.8,2.6l-11.5,0.4C-28.4,517.1-29.6,516.1-29.9,514.7L-29.9,514.7z"/>
	<path id="XMLID_184_" class="st2" d="M-30.7,495.3c-1.1-0.8-1.6-2.4-1.1-3.5l5.2-10.2c0.6-1.1,2-1.4,3.1-0.6l0,0
		c1.1,0.8,1.6,2.4,1.1,3.5l-5.2,10.2C-28.1,495.9-29.5,496.2-30.7,495.3L-30.7,495.3z"/>
	<path id="XMLID_183_" class="st2" d="M-88.2,556.1c-0.2-1.4,0.7-2.5,2-2.4l11.6,0.4c1.3,0,2.4,1.2,2.6,2.6l0,0
		c0.2,1.4-0.7,2.5-2,2.4l-11.6-0.4C-86.8,558.6-88,557.5-88.2,556.1L-88.2,556.1z"/>
	<path id="XMLID_182_" class="st2" d="M-99.6,526.5c-1.3,0-2.5-1.1-2.7-2.4l-2.2-12.6c-0.2-1.4,0.6-2.5,1.8-2.5l0,0
		c1.3,0,2.5,1.1,2.7,2.4l2.2,12.6C-97.5,525.3-98.4,526.5-99.6,526.5L-99.6,526.5z"/>
	<path id="XMLID_181_" class="st0" d="M18.6,480.8c1.3-0.6,2.6-0.2,3.1,0.9l3.9,10.6c0.4,1.2-0.3,2.6-1.5,3.3l0,0
		c-1.3,0.6-2.6,0.2-3.1-0.9L17,484.1C16.6,482.9,17.3,481.5,18.6,480.8L18.6,480.8z"/>
	<path id="XMLID_180_" class="st3" d="M-178.9,538.5c-1.2-0.7-1.8-2.3-1.3-3.4l4.4-10.7c0.5-1.2,1.8-1.5,3-0.8l0,0
		c1.2,0.7,1.8,2.3,1.3,3.4l-4.4,10.7C-176.4,538.8-177.8,539.2-178.9,538.5L-178.9,538.5z"/>
	<path id="XMLID_179_" class="st1" d="M-143.5,606.8c-1-1-1.1-2.6-0.3-3.5l7.5-8.2c0.8-0.9,2.3-0.8,3.3,0.3l0,0c1,1,1.1,2.6,0.3,3.5
		l-7.5,8.2C-141,607.9-142.5,607.8-143.5,606.8L-143.5,606.8z"/>
	<path id="XMLID_178_" class="st2" d="M-158.6,568.4c-0.2-1.4,0.7-2.5,2-2.4l11.6,0.3c1.3,0,2.4,1.2,2.6,2.6l0,0
		c0.2,1.4-0.7,2.5-2,2.4l-11.6-0.3C-157.2,570.9-158.4,569.8-158.6,568.4L-158.6,568.4z"/>
</g>
<g id="XMLID_74_">
	<path id="XMLID_104_" class="st0" d="M-46.5,350.8c1-1,2.6-1.1,3.4-0.2l7.6,7.9c0.8,0.9,0.7,2.4-0.4,3.4l0,0c-1,1-2.6,1.1-3.4,0.2
		l-7.6-7.9C-47.7,353.3-47.5,351.8-46.5,350.8L-46.5,350.8z"/>
	<path id="XMLID_91_" class="st1" d="M-71.2,328.5c-0.3-1.4,0.6-2.5,1.8-2.6l11.5-0.4c1.3,0,2.5,1,2.7,2.4l0,0
		c0.3,1.4-0.6,2.5-1.8,2.6l-11.5,0.4C-69.8,330.9-71,329.8-71.2,328.5L-71.2,328.5z"/>
	<path id="XMLID_89_" class="st2" d="M-88.3,307c-1.1-0.8-1.6-2.4-1.1-3.5l5.2-10.2c0.6-1.1,2-1.4,3.1-0.6l0,0
		c1.2,0.8,1.6,2.4,1.1,3.5l-5.2,10.2C-85.8,307.5-87.2,307.8-88.3,307L-88.3,307z"/>
	<path id="XMLID_88_" class="st3" d="M-8.7,306.5c-0.8-1.2-0.6-2.7,0.4-3.4l9.2-6c1-0.7,2.5-0.2,3.3,1l0,0c0.8,1.2,0.6,2.7-0.4,3.4
		l-9.2,6C-6.4,308.2-7.9,307.7-8.7,306.5L-8.7,306.5z"/>
	<path id="XMLID_87_" class="st1" d="M-24.9,321.6c-0.3-1.4,0.6-2.5,1.8-2.6l11.5-0.4c1.3,0,2.5,1,2.7,2.4l0,0
		c0.3,1.4-0.6,2.5-1.8,2.6l-11.5,0.4C-23.4,324-24.6,323-24.9,321.6L-24.9,321.6z"/>
	<path id="XMLID_86_" class="st0" d="M39.9,281.4c0.4-1.4,1.6-2.3,2.8-1.9l10.6,3c1.2,0.3,1.8,1.7,1.4,3.1l0,0
		c-0.4,1.4-1.6,2.3-2.8,1.9l-10.6-3C40.1,284.2,39.5,282.8,39.9,281.4L39.9,281.4z"/>
	<path id="XMLID_85_" class="st1" d="M-31.5,286.2c-0.3-1.4,0.6-2.5,1.8-2.6l11.5-0.4c1.3,0,2.5,1,2.7,2.4l0,0
		c0.3,1.4-0.6,2.5-1.8,2.6l-11.5,0.4C-30,288.7-31.2,287.6-31.5,286.2L-31.5,286.2z"/>
	<path id="XMLID_84_" class="st2" d="M-34.2,250.7c-0.2-1.4,0.7-2.5,2-2.4l11.6,0.4c1.3,0,2.4,1.2,2.6,2.6l0,0
		c0.2,1.4-0.7,2.5-2,2.4l-11.6-0.4C-32.9,253.2-34,252.1-34.2,250.7L-34.2,250.7z"/>
	<path id="XMLID_83_" class="st0" d="M8,342.1c1-1,2.6-1.1,3.4-0.2l7.6,7.9c0.8,0.9,0.7,2.4-0.4,3.4l0,0c-1,1-2.6,1.1-3.4,0.2
		l-7.6-7.9C6.8,344.6,6.9,343.1,8,342.1L8,342.1z"/>
	<path id="XMLID_82_" class="st1" d="M40.9,333.9c-0.3-1.4,0.6-2.5,1.8-2.6l11.5-0.4c1.3,0,2.5,1,2.7,2.4l0,0
		c0.3,1.4-0.6,2.5-1.8,2.6l-11.5,0.4C42.3,336.4,41.1,335.3,40.9,333.9L40.9,333.9z"/>
	<path id="XMLID_81_" class="st2" d="M40.1,314.6c-1.1-0.8-1.6-2.4-1.1-3.5l5.2-10.2c0.6-1.1,2-1.4,3.1-0.6l0,0
		c1.1,0.8,1.6,2.4,1.1,3.5L43.2,314C42.6,315.1,41.2,315.4,40.1,314.6L40.1,314.6z"/>
	<path id="XMLID_80_" class="st2" d="M-17.4,375.4c-0.2-1.4,0.7-2.5,2-2.4l11.6,0.4c1.3,0,2.4,1.2,2.6,2.6l0,0
		c0.2,1.4-0.7,2.5-2,2.4l-11.6-0.4C-16.1,377.9-17.3,376.7-17.4,375.4L-17.4,375.4z"/>
	<path id="XMLID_79_" class="st2" d="M-28.9,345.7c-1.3,0-2.5-1.1-2.7-2.4l-2.2-12.6c-0.2-1.4,0.6-2.5,1.8-2.5l0,0
		c1.3,0,2.5,1.1,2.7,2.4l2.2,12.6C-26.8,344.6-27.6,345.7-28.9,345.7L-28.9,345.7z"/>
	<path id="XMLID_78_" class="st0" d="M89.3,300.1c1.3-0.6,2.6-0.2,3.1,0.9l3.9,10.6c0.4,1.2-0.3,2.6-1.5,3.3l0,0
		c-1.3,0.6-2.6,0.2-3.1-0.9l-3.9-10.6C87.4,302.2,88,300.7,89.3,300.1L89.3,300.1z"/>
	<path id="XMLID_77_" class="st3" d="M-108.2,357.7c-1.2-0.7-1.8-2.3-1.3-3.4l4.4-10.7c0.5-1.2,1.8-1.5,3-0.8l0,0
		c1.2,0.7,1.8,2.3,1.3,3.4l-4.4,10.7C-105.7,358.1-107,358.4-108.2,357.7L-108.2,357.7z"/>
	<path id="XMLID_76_" class="st1" d="M-72.7,426c-1-1-1.1-2.6-0.3-3.5l7.5-8.2c0.8-0.9,2.3-0.8,3.3,0.3l0,0c1,1,1.1,2.6,0.3,3.5
		l-7.5,8.2C-70.3,427.2-71.7,427.1-72.7,426L-72.7,426z"/>
	<path id="XMLID_75_" class="st2" d="M-87.8,387.7c-0.2-1.4,0.7-2.5,2-2.4l11.6,0.3c1.3,0,2.4,1.2,2.6,2.6l0,0
		c0.2,1.4-0.7,2.5-2,2.4l-11.6-0.3C-86.5,390.2-87.6,389-87.8,387.7L-87.8,387.7z"/>
</g>
</svg>
