<?xml version="1.0" encoding="utf-8"?>
<!-- Generator: Adobe Illustrator 19.0.0, SVG Export Plug-In . SVG Version: 6.00 Build 0)  -->
<svg version="1.1" id="Layer_1" xmlns="http://www.w3.org/2000/svg" xmlns:xlink="http://www.w3.org/1999/xlink" x="0px" y="0px"
	 viewBox="0 0 465 245" style="enable-background:new 0 0 465 245;" xml:space="preserve">
<image style="display:none;overflow:visible;" width="531" height="298" id="XMLID_3_" xlink:href="../../../Pictures/Screenshots/Screenshot 2026-02-13 171657.png"  transform="matrix(1.3051 0 0 1.3051 -60 -51.4153)">
</image>
<path id="XMLID_4_" d="M68.8,153c-6.6-7.2-9.9-17.1-9.9-29.8s3.3-22.6,9.9-29.8c6.6-7.2,15.1-10.8,25.7-10.8
	c10.5,0,19.1,3.6,25.7,10.8c6.6,7.2,9.9,17.1,9.9,29.8s-3.3,22.6-9.9,29.8c-6.6,7.2-15.1,10.8-25.7,10.8
	C84,163.8,75.4,160.2,68.8,153z M76.6,96c-4.8,6.7-7.1,15.8-7.1,27.3c0,11.5,2.4,20.6,7.1,27.3c4.8,6.7,10.7,10,17.8,10
	c7.1,0,13.1-3.3,17.9-10c4.8-6.7,7.2-15.8,7.2-27.3c0-11.5-2.4-20.6-7.2-27.3c-4.8-6.7-10.8-10-17.9-10C87.3,85.9,81.4,89.3,76.6,96
	z"/>
<path id="XMLID_10_" d="M145.7,158.4V85.9c0-1.2-0.6-1.7-1.7-1.7h-5.8v-2.2h6.1c5,0,8.4-0.2,10.4-0.7v77.2c0,1.2,0.6,1.7,1.7,1.7
	h5.8v2.2h-24.1v-2.2h5.8C145.1,160.1,145.7,159.5,145.7,158.4z"/>
<path id="XMLID_12_" d="M179,158.4v-45.6c0-1.2-0.6-1.7-1.7-1.7h-5.8v-2.2h6.1c5,0,8.4-0.2,10.4-0.7v50.6c0,1,0.6,1.5,1.7,1.5h5.8
	v2.2h-24.1v-2.2h5.8C178.4,160.1,179,159.5,179,158.4z M179.3,95c-1.1-1.1-1.7-2.5-1.7-4.2c0-1.7,0.6-3,1.7-4.2s2.5-1.7,4.2-1.7
	c1.7,0,3,0.6,4.2,1.7s1.7,2.5,1.7,4.2c0,1.7-0.6,3-1.7,4.2s-2.5,1.7-4.2,1.7C181.8,96.7,180.5,96.1,179.3,95z"/>
<path id="XMLID_15_" d="M235.2,108.7H251v2.2h-4.6c-0.7,0-1.3,0.6-1.7,1.7l-18.5,49.6h-3.3l-18.5-49.6c-0.4-1.2-1-1.7-1.7-1.7H198
	v-2.2h21.1v2.2h-6.2l14.3,39.2l14.4-39.2h-6.3V108.7z"/>
<path id="XMLID_17_" d="M262.9,158.4v-45.6c0-1.2-0.6-1.7-1.7-1.7h-5.8v-2.2h6.1c5,0,8.4-0.2,10.4-0.7v50.6c0,1,0.6,1.5,1.7,1.5h5.8
	v2.2h-24.1v-2.2h5.8C262.3,160.1,262.9,159.5,262.9,158.4z M263.2,95c-1.1-1.1-1.7-2.5-1.7-4.2c0-1.7,0.6-3,1.7-4.2s2.5-1.7,4.2-1.7
	c1.7,0,3,0.6,4.2,1.7s1.7,2.5,1.7,4.2c0,1.7-0.6,3-1.7,4.2s-2.5,1.7-4.2,1.7C265.7,96.7,264.3,96.1,263.2,95z"/>
<path id="XMLID_20_" d="M318.6,133.4l0.1-4.3v-4.3c0-9.7-3.1-14.5-9.4-14.5c-2.7,0-4.9,0.9-6.4,2.8c-1.5,1.9-2.3,4-2.3,6.5
	c0,2.5,0.3,4.6,1,6.4c-1.4,1.2-3.3,1.9-5.8,1.9c-2.5,0-3.7-2-3.7-6.1c0-4.1,1.6-7.5,4.8-10.3c3.2-2.8,7.7-4.2,13.6-4.2
	c11.5,0,17.2,6.8,17.2,20.3V153c0,4.5,1.2,6.7,3.7,6.7c1.2,0,2.2-0.5,3-1.6c0.9-1.1,1.3-2.3,1.3-3.7c0-1.4-0.1-2.7-0.4-4l2.4-0.4
	c0.3,1.2,0.5,2.6,0.5,4.1c0,3-0.9,5.3-2.7,7.1c-1.8,1.7-4.1,2.6-7,2.6c-2.9,0-5.3-1.2-7.1-3.5c-1.8-2.4-2.7-5.9-2.7-10.6v-2.2
	c-1.4,5.6-3.6,9.8-6.7,12.4c-3.1,2.6-6.6,4-10.6,4c-4,0-7.2-1.3-9.7-3.8c-2.4-2.5-3.7-5.9-3.7-10c0-4.2,1.9-7.9,5.8-11.2
	c3.9-3.3,9.5-4.9,16.7-4.9c1.6,0,4.2,0.2,7.9,0.6V133.4z M304.2,159.1c3.5,0,6.6-2,9.4-5.9c2.8-3.9,4.4-9.4,4.9-16.6
	c-0.8-0.1-2-0.1-3.5-0.1c-6.6,0-11.3,1.4-14.2,4.2c-2.9,2.8-4.3,6-4.3,9.6c0,2.4,0.7,4.5,2.1,6.2C300,158.2,301.9,159.1,304.2,159.1
	z"/>
<path id="XMLID_23_" d="M382.3,128.7l12.9,4.8c3.1,1.2,5.4,2.9,7,5.3c1.6,2.4,2.4,5,2.4,7.9c0,4.5-1.8,8.4-5.3,11.9
	c-3.6,3.5-8.3,5.2-14.3,5.2c-6,0-11.6-1.1-16.9-3.3c0.5-2,0.7-5.5,0.7-10.4v-5h2.2l0.9,6.4c0.7,6.2,5.1,9.3,13,9.3
	c3.6,0,6.5-1.1,8.9-3.3c2.4-2.2,3.5-4.7,3.5-7.5c0-3.9-2.4-6.7-7.1-8.4l-12.9-4.8c-2.9-1.1-5.1-2.8-6.6-5.1
	c-1.5-2.3-2.2-4.9-2.2-7.8c0-4.4,1.6-8.2,4.7-11.6c3.1-3.3,7.1-5,11.8-5c4.8,0,10.1,1.1,16.1,3.3c-0.5,2-0.7,5.5-0.7,10.4v5h-2.2
	l-0.9-6.4c-0.7-6-4.4-8.9-11.3-8.9c-3.1,0-5.6,1-7.6,2.9c-2,1.9-3,4.1-3,6.7C375.5,124.1,377.8,127,382.3,128.7z"/>
<path id="XMLID_8_" d="M1,1v243h463V1H1z M450,230H15V16h435V230z"/>
<path id="XMLID_1_" d="M346.7,82.9c0.4-2.5,1.8-4.5,5.3-4.2c2.4,0.2,4.5,2.2,4.8,4.5c0.1,1.1,0,2.1-0.2,3.2c-1,6-2.1,11.9-3.1,17.9
	c-0.2,1.1-0.6,2.5-1.8,2.7c-0.7,0.1-1.5-0.4-1.9-1c-0.4-0.6-0.5-1.4-0.6-2.2c-0.8-4.9-1.5-9.8-2.3-14.8
	C346.6,87.2,346.4,84.9,346.7,82.9z"/>
</svg>
