<?xml version="1.0" encoding="utf-8"?>
<!-- Generator: Adobe Illustrator 19.0.0, SVG Export Plug-In . SVG Version: 6.00 Build 0)  -->
<svg version="1.1" id="Layer_1" xmlns="http://www.w3.org/2000/svg" xmlns:xlink="http://www.w3.org/1999/xlink" x="0px" y="0px"
	 viewBox="-535 390 465 245" style="enable-background:new -535 390 465 245;" xml:space="preserve">
<style type="text/css">
	.st0{fill:#BCD0AA;}
</style>
<path id="XMLID_4_" class="st0" d="M-466.2,543c-6.6-7.2-9.9-17.1-9.9-29.8s3.3-22.6,9.9-29.8c6.6-7.2,15.1-10.8,25.7-10.8
	c10.5,0,19.1,3.6,25.7,10.8c6.6,7.2,9.9,17.1,9.9,29.8s-3.3,22.6-9.9,29.8s-15.1,10.8-25.7,10.8C-451,553.8-459.6,550.2-466.2,543z
	 M-458.4,486c-4.8,6.7-7.1,15.8-7.1,27.3s2.4,20.6,7.1,27.3c4.8,6.7,10.7,10,17.8,10s13.1-3.3,17.9-10c4.8-6.7,7.2-15.8,7.2-27.3
	s-2.4-20.6-7.2-27.3s-10.8-10-17.9-10C-447.7,475.9-453.6,479.3-458.4,486z"/>
<path id="XMLID_10_" class="st0" d="M-389.3,548.4v-72.5c0-1.2-0.6-1.7-1.7-1.7h-5.8V472h6.1c5,0,8.4-0.2,10.4-0.7v77.2
	c0,1.2,0.6,1.7,1.7,1.7h5.8v2.2h-24.1v-2.2h5.8C-389.9,550.1-389.3,549.5-389.3,548.4z"/>
<path id="XMLID_12_" class="st0" d="M-356,548.4v-45.6c0-1.2-0.6-1.7-1.7-1.7h-5.8v-2.2h6.1c5,0,8.4-0.2,10.4-0.7v50.6
	c0,1,0.6,1.5,1.7,1.5h5.8v2.2h-24.1v-2.2h5.8C-356.6,550.1-356,549.5-356,548.4z M-355.7,485c-1.1-1.1-1.7-2.5-1.7-4.2
	c0-1.7,0.6-3,1.7-4.2c1.1-1.2,2.5-1.7,4.2-1.7s3,0.6,4.2,1.7c1.2,1.1,1.7,2.5,1.7,4.2c0,1.7-0.6,3-1.7,4.2c-1.1,1.2-2.5,1.7-4.2,1.7
	S-354.5,486.1-355.7,485z"/>
<path id="XMLID_15_" class="st0" d="M-299.8,498.7h15.8v2.2h-4.6c-0.7,0-1.3,0.6-1.7,1.7l-18.5,49.6h-3.3l-18.5-49.6
	c-0.4-1.2-1-1.7-1.7-1.7h-4.7v-2.2h21.1v2.2h-6.2l14.3,39.2l14.4-39.2h-6.3L-299.8,498.7L-299.8,498.7z"/>
<path id="XMLID_17_" class="st0" d="M-272.1,548.4v-45.6c0-1.2-0.6-1.7-1.7-1.7h-5.8v-2.2h6.1c5,0,8.4-0.2,10.4-0.7v50.6
	c0,1,0.6,1.5,1.7,1.5h5.8v2.2h-24.1v-2.2h5.8C-272.7,550.1-272.1,549.5-272.1,548.4z M-271.8,485c-1.1-1.1-1.7-2.5-1.7-4.2
	c0-1.7,0.6-3,1.7-4.2s2.5-1.7,4.2-1.7s3,0.6,4.2,1.7s1.7,2.5,1.7,4.2c0,1.7-0.6,3-1.7,4.2s-2.5,1.7-4.2,1.7S-270.7,486.1-271.8,485z
	"/>
<path id="XMLID_20_" class="st0" d="M-216.4,523.4l0.1-4.3v-4.3c0-9.7-3.1-14.5-9.4-14.5c-2.7,0-4.9,0.9-6.4,2.8
	c-1.5,1.9-2.3,4-2.3,6.5s0.3,4.6,1,6.4c-1.4,1.2-3.3,1.9-5.8,1.9s-3.7-2-3.7-6.1c0-4.1,1.6-7.5,4.8-10.3c3.2-2.8,7.7-4.2,13.6-4.2
	c11.5,0,17.2,6.8,17.2,20.3V543c0,4.5,1.2,6.7,3.7,6.7c1.2,0,2.2-0.5,3-1.6c0.9-1.1,1.3-2.3,1.3-3.7c0-1.4-0.1-2.7-0.4-4l2.4-0.4
	c0.3,1.2,0.5,2.6,0.5,4.1c0,3-0.9,5.3-2.7,7.1c-1.8,1.7-4.1,2.6-7,2.6s-5.3-1.2-7.1-3.5c-1.8-2.4-2.7-5.9-2.7-10.6v-2.2
	c-1.4,5.6-3.6,9.8-6.7,12.4s-6.6,4-10.6,4s-7.2-1.3-9.7-3.8c-2.4-2.5-3.7-5.9-3.7-10c0-4.2,1.9-7.9,5.8-11.2
	c3.9-3.3,9.5-4.9,16.7-4.9c1.6,0,4.2,0.2,7.9,0.6v-1.2H-216.4z M-230.8,549.1c3.5,0,6.6-2,9.4-5.9s4.4-9.4,4.9-16.6
	c-0.8-0.1-2-0.1-3.5-0.1c-6.6,0-11.3,1.4-14.2,4.2c-2.9,2.8-4.3,6-4.3,9.6c0,2.4,0.7,4.5,2.1,6.2S-233.1,549.1-230.8,549.1z"/>
<path id="XMLID_23_" class="st0" d="M-152.7,518.7l12.9,4.8c3.1,1.2,5.4,2.9,7,5.3c1.6,2.4,2.4,5,2.4,7.9c0,4.5-1.8,8.4-5.3,11.9
	c-3.6,3.5-8.3,5.2-14.3,5.2s-11.6-1.1-16.9-3.3c0.5-2,0.7-5.5,0.7-10.4v-5h2.2l0.9,6.4c0.7,6.2,5.1,9.3,13,9.3
	c3.6,0,6.5-1.1,8.9-3.3c2.4-2.2,3.5-4.7,3.5-7.5c0-3.9-2.4-6.7-7.1-8.4l-12.9-4.8c-2.9-1.1-5.1-2.8-6.6-5.1
	c-1.5-2.3-2.2-4.9-2.2-7.8c0-4.4,1.6-8.2,4.7-11.6c3.1-3.3,7.1-5,11.8-5c4.8,0,10.1,1.1,16.1,3.3c-0.5,2-0.7,5.5-0.7,10.4v5h-2.2
	l-0.9-6.4c-0.7-6-4.4-8.9-11.3-8.9c-3.1,0-5.6,1-7.6,2.9c-2,1.9-3,4.1-3,6.7C-159.5,514.1-157.2,517-152.7,518.7z"/>
<path id="XMLID_8_" class="st0" d="M-534,391v243h463V391H-534z M-85,620h-435V406h435V620z"/>
<path id="XMLID_1_" class="st0" d="M-188.3,472.9c0.4-2.5,1.8-4.5,5.3-4.2c2.4,0.2,4.5,2.2,4.8,4.5c0.1,1.1,0,2.1-0.2,3.2
	c-1,6-2.1,11.9-3.1,17.9c-0.2,1.1-0.6,2.5-1.8,2.7c-0.7,0.1-1.5-0.4-1.9-1s-0.5-1.4-0.6-2.2c-0.8-4.9-1.5-9.8-2.3-14.8
	C-188.4,477.2-188.6,474.9-188.3,472.9z"/>
</svg>
